M48
; DRILL file KiCad 10.0.1 date 2026-05-03T14:29:15
; FORMAT={-:-/ absolute / metric / decimal}
; #@! TF.CreationDate,2026-05-03T14:29:15-06:00
; #@! TF.GenerationSoftware,Kicad,Pcbnew,10.0.1
; #@! TF.FileFunction,MixedPlating,1,2
FMAT,2
METRIC
; #@! TA.AperFunction,Plated,PTH,ViaDrill
T1C0.300
; #@! TA.AperFunction,Plated,PTH,ComponentDrill
T2C0.600
; #@! TA.AperFunction,Plated,PTH,ComponentDrill
T3C0.950
; #@! TA.AperFunction,Plated,PTH,ComponentDrill
T4C1.000
; #@! TA.AperFunction,NonPlated,NPTH,ComponentDrill
T5C0.650
; #@! TA.AperFunction,NonPlated,NPTH,ComponentDrill
T6C0.900
%
G90
G05
T1
X72.7Y-123.1
X73.1Y-154.1
X73.7Y-141.7
X73.7Y-142.4
X73.9Y-137.8
X73.9Y-138.5
X76.0Y-145.7
X76.0Y-148.0
X77.1Y-131.0
X78.2Y-140.4
X79.0Y-122.4
X79.2Y-108.6
X79.3Y-125.4
X79.5Y-128.3
X81.1Y-147.3
X81.1Y-151.5
X81.2Y-143.4
X82.486Y-143.027
X82.6Y-144.7
X82.9Y-127.8
X83.2Y-140.8
X83.343Y-143.943
X83.4Y-147.4
X83.4Y-151.6
X84.2Y-119.7
X84.3Y-117.5
X86.3Y-134.3
X86.7Y-127.9
X87.3Y-130.7
X87.4Y-147.0
X87.6Y-121.8
X87.9Y-128.4
X87.9Y-129.727
X92.4Y-130.6
X92.5Y-140.7
X93.4Y-135.1
X93.8Y-130.6
X94.0Y-109.1
X94.0Y-122.5
X95.017Y-142.217
X95.2Y-146.8
X95.2Y-151.3
X95.3Y-122.3
X95.3Y-123.1
X96.8Y-144.0
X97.3Y-119.9
X97.3Y-132.9
X97.4Y-138.2
X97.5Y-146.9
X97.5Y-151.3
X98.573Y-128.721
X100.5Y-128.6
X101.6Y-146.8
X102.9Y-142.1
X103.2Y-124.5
X103.2Y-129.4
X103.375Y-156.7
X105.6Y-139.7
X105.7Y-121.6
X105.7Y-127.6
X106.2Y-124.5
X107.3Y-133.6
X107.6Y-110.273
X107.6Y-111.6
X108.8Y-114.8
X108.8Y-117.0
X110.1Y-127.9
X110.2Y-121.5
X111.062Y-132.7
X112.7Y-141.7
X112.8Y-133.0
X114.7Y-136.3
X116.6Y-134.4
T3
X86.35Y-107.375
X88.85Y-107.375
X91.35Y-107.375
X93.85Y-107.375
X114.1Y-139.2
X114.1Y-141.7
X114.1Y-144.2
X114.1Y-146.7
X114.1Y-149.2
T4
X66.0Y-107.3
X66.0Y-109.84
X66.0Y-112.38
X66.0Y-114.92
X66.0Y-117.46
X66.0Y-120.0
X66.0Y-122.54
X66.0Y-125.08
X66.3Y-136.3
X66.3Y-138.8
X66.3Y-145.5
X66.3Y-148.0
X73.1Y-155.5
X75.6Y-155.5
X99.96Y-106.7
X102.5Y-106.7
X105.04Y-106.7
X107.58Y-106.7
X111.75Y-107.2
X111.75Y-109.74
X111.75Y-112.28
X111.75Y-114.82
X114.29Y-107.2
X114.29Y-109.74
X114.29Y-112.28
X114.29Y-114.82
T5
X112.72Y-121.79
X112.72Y-127.57
T6
X74.4Y-106.4
X77.4Y-106.4
X87.6Y-156.55
X90.6Y-156.55
T2
G00X111.67Y-120.36
M15
G01X112.77Y-120.36
M16
G05
G00X111.67Y-129.0
M15
G01X112.77Y-129.0
M16
G05
G00X116.1Y-120.36
M15
G01X116.7Y-120.36
M16
G05
G00X116.1Y-129.0
M15
G01X116.7Y-129.0
M16
G05
M30
