%TF.GenerationSoftware,KiCad,Pcbnew,10.0.1*%
%TF.CreationDate,2026-05-03T14:29:22-06:00*%
%TF.ProjectId,2026_InClass_2Wheel_Robot_Donnellan,32303236-5f49-46e4-936c-6173735f3257,rev?*%
%TF.SameCoordinates,Original*%
%TF.FileFunction,Soldermask,Bot*%
%TF.FilePolarity,Negative*%
%FSLAX46Y46*%
G04 Gerber Fmt 4.6, Leading zero omitted, Abs format (unit mm)*
G04 Created by KiCad (PCBNEW 10.0.1) date 2026-05-03 14:29:22*
%MOMM*%
%LPD*%
G01*
G04 APERTURE LIST*
G04 Aperture macros list*
%AMRoundRect*
0 Rectangle with rounded corners*
0 $1 Rounding radius*
0 $2 $3 $4 $5 $6 $7 $8 $9 X,Y pos of 4 corners*
0 Add a 4 corners polygon primitive as box body*
4,1,4,$2,$3,$4,$5,$6,$7,$8,$9,$2,$3,0*
0 Add four circle primitives for the rounded corners*
1,1,$1+$1,$2,$3*
1,1,$1+$1,$4,$5*
1,1,$1+$1,$6,$7*
1,1,$1+$1,$8,$9*
0 Add four rect primitives between the rounded corners*
20,1,$1+$1,$2,$3,$4,$5,0*
20,1,$1+$1,$4,$5,$6,$7,0*
20,1,$1+$1,$6,$7,$8,$9,0*
20,1,$1+$1,$8,$9,$2,$3,0*%
G04 Aperture macros list end*
%ADD10RoundRect,0.250000X0.600000X0.750000X-0.600000X0.750000X-0.600000X-0.750000X0.600000X-0.750000X0*%
%ADD11O,1.700000X2.000000*%
%ADD12C,0.900000*%
%ADD13RoundRect,0.250000X0.750000X-0.600000X0.750000X0.600000X-0.750000X0.600000X-0.750000X-0.600000X0*%
%ADD14O,2.000000X1.700000*%
%ADD15R,1.700000X1.700000*%
%ADD16C,1.700000*%
%ADD17RoundRect,0.250000X-0.725000X0.600000X-0.725000X-0.600000X0.725000X-0.600000X0.725000X0.600000X0*%
%ADD18O,1.950000X1.700000*%
%ADD19C,0.650000*%
%ADD20O,2.100000X1.000000*%
%ADD21O,1.600000X1.000000*%
%ADD22RoundRect,0.250000X-0.600000X-0.725000X0.600000X-0.725000X0.600000X0.725000X-0.600000X0.725000X0*%
%ADD23O,1.700000X1.950000*%
G04 APERTURE END LIST*
D10*
%TO.C,J1*%
X75600000Y-155500000D03*
D11*
X73100000Y-155500000D03*
%TD*%
D12*
%TO.C,S1*%
X87600000Y-156550000D03*
X90600000Y-156550000D03*
%TD*%
D13*
%TO.C,J2*%
X66300000Y-138800000D03*
D14*
X66300000Y-136300000D03*
%TD*%
D12*
%TO.C,S2*%
X77400000Y-106400000D03*
X74400000Y-106400000D03*
%TD*%
D13*
%TO.C,J3*%
X66300000Y-148000000D03*
D14*
X66300000Y-145500000D03*
%TD*%
D15*
%TO.C,J7*%
X99960000Y-106700000D03*
D16*
X102500000Y-106700000D03*
X105040000Y-106700000D03*
X107580000Y-106700000D03*
%TD*%
D17*
%TO.C,J8*%
X114100000Y-139200000D03*
D18*
X114100000Y-141700000D03*
X114100000Y-144200000D03*
X114100000Y-146700000D03*
X114100000Y-149200000D03*
%TD*%
D19*
%TO.C,J9*%
X112720000Y-127570000D03*
X112720000Y-121790000D03*
D20*
X112220000Y-129000000D03*
D21*
X116400000Y-129000000D03*
D20*
X112220000Y-120360000D03*
D21*
X116400000Y-120360000D03*
%TD*%
D22*
%TO.C,J6*%
X86350000Y-107375000D03*
D23*
X88850000Y-107375000D03*
X91350000Y-107375000D03*
X93850000Y-107375000D03*
%TD*%
D15*
%TO.C,J4*%
X66000000Y-107300000D03*
D16*
X66000000Y-109840000D03*
X66000000Y-112380000D03*
X66000000Y-114920000D03*
X66000000Y-117460000D03*
X66000000Y-120000000D03*
X66000000Y-122540000D03*
X66000000Y-125080000D03*
%TD*%
D15*
%TO.C,J5*%
X114290000Y-107200000D03*
D16*
X111750000Y-107200000D03*
X114290000Y-109740000D03*
X111750000Y-109740000D03*
X114290000Y-112280000D03*
X111750000Y-112280000D03*
X114290000Y-114820000D03*
X111750000Y-114820000D03*
%TD*%
M02*
