%TF.GenerationSoftware,KiCad,Pcbnew,10.0.1*%
%TF.CreationDate,2026-05-03T14:29:22-06:00*%
%TF.ProjectId,2026_InClass_2Wheel_Robot_Donnellan,32303236-5f49-46e4-936c-6173735f3257,rev?*%
%TF.SameCoordinates,Original*%
%TF.FileFunction,Paste,Top*%
%TF.FilePolarity,Positive*%
%FSLAX46Y46*%
G04 Gerber Fmt 4.6, Leading zero omitted, Abs format (unit mm)*
G04 Created by KiCad (PCBNEW 10.0.1) date 2026-05-03 14:29:22*
%MOMM*%
%LPD*%
G01*
G04 APERTURE LIST*
G04 Aperture macros list*
%AMRoundRect*
0 Rectangle with rounded corners*
0 $1 Rounding radius*
0 $2 $3 $4 $5 $6 $7 $8 $9 X,Y pos of 4 corners*
0 Add a 4 corners polygon primitive as box body*
4,1,4,$2,$3,$4,$5,$6,$7,$8,$9,$2,$3,0*
0 Add four circle primitives for the rounded corners*
1,1,$1+$1,$2,$3*
1,1,$1+$1,$4,$5*
1,1,$1+$1,$6,$7*
1,1,$1+$1,$8,$9*
0 Add four rect primitives between the rounded corners*
20,1,$1+$1,$2,$3,$4,$5,0*
20,1,$1+$1,$4,$5,$6,$7,0*
20,1,$1+$1,$6,$7,$8,$9,0*
20,1,$1+$1,$8,$9,$2,$3,0*%
G04 Aperture macros list end*
%ADD10RoundRect,0.250000X0.350000X0.450000X-0.350000X0.450000X-0.350000X-0.450000X0.350000X-0.450000X0*%
%ADD11RoundRect,0.250000X0.325000X0.450000X-0.325000X0.450000X-0.325000X-0.450000X0.325000X-0.450000X0*%
%ADD12RoundRect,0.250000X0.337500X0.475000X-0.337500X0.475000X-0.337500X-0.475000X0.337500X-0.475000X0*%
%ADD13RoundRect,0.250000X0.475000X-0.337500X0.475000X0.337500X-0.475000X0.337500X-0.475000X-0.337500X0*%
%ADD14R,0.900000X1.250000*%
%ADD15R,0.800000X0.900000*%
%ADD16RoundRect,0.150000X0.512500X0.150000X-0.512500X0.150000X-0.512500X-0.150000X0.512500X-0.150000X0*%
%ADD17RoundRect,0.250000X-0.475000X0.337500X-0.475000X-0.337500X0.475000X-0.337500X0.475000X0.337500X0*%
%ADD18RoundRect,0.250000X-0.350000X-0.450000X0.350000X-0.450000X0.350000X0.450000X-0.350000X0.450000X0*%
%ADD19RoundRect,0.375000X-0.625000X-0.375000X0.625000X-0.375000X0.625000X0.375000X-0.625000X0.375000X0*%
%ADD20RoundRect,0.500000X-0.500000X-1.400000X0.500000X-1.400000X0.500000X1.400000X-0.500000X1.400000X0*%
%ADD21RoundRect,0.090000X-0.660000X-0.360000X0.660000X-0.360000X0.660000X0.360000X-0.660000X0.360000X0*%
%ADD22RoundRect,0.250000X0.312500X1.450000X-0.312500X1.450000X-0.312500X-1.450000X0.312500X-1.450000X0*%
%ADD23R,1.500000X2.300000*%
%ADD24RoundRect,0.250000X0.450000X0.350000X-0.450000X0.350000X-0.450000X-0.350000X0.450000X-0.350000X0*%
%ADD25RoundRect,0.250000X-0.325000X-0.450000X0.325000X-0.450000X0.325000X0.450000X-0.325000X0.450000X0*%
%ADD26RoundRect,0.150000X0.500000X-0.150000X0.500000X0.150000X-0.500000X0.150000X-0.500000X-0.150000X0*%
%ADD27RoundRect,0.075000X0.575000X-0.075000X0.575000X0.075000X-0.575000X0.075000X-0.575000X-0.075000X0*%
%ADD28RoundRect,0.250000X0.450000X-0.350000X0.450000X0.350000X-0.450000X0.350000X-0.450000X-0.350000X0*%
%ADD29RoundRect,0.250000X-0.337500X-0.475000X0.337500X-0.475000X0.337500X0.475000X-0.337500X0.475000X0*%
%ADD30RoundRect,0.075000X-0.700000X-0.075000X0.700000X-0.075000X0.700000X0.075000X-0.700000X0.075000X0*%
%ADD31RoundRect,0.075000X-0.075000X-0.700000X0.075000X-0.700000X0.075000X0.700000X-0.075000X0.700000X0*%
%ADD32RoundRect,0.100000X-0.850000X-0.100000X0.850000X-0.100000X0.850000X0.100000X-0.850000X0.100000X0*%
%ADD33RoundRect,0.250000X-0.450000X0.325000X-0.450000X-0.325000X0.450000X-0.325000X0.450000X0.325000X0*%
G04 APERTURE END LIST*
D10*
%TO.C,R8*%
X101625000Y-125400000D03*
X99625000Y-125400000D03*
%TD*%
D11*
%TO.C,D5*%
X108025000Y-133600000D03*
X105975000Y-133600000D03*
%TD*%
D12*
%TO.C,C19*%
X87500000Y-134300000D03*
X85425000Y-134300000D03*
%TD*%
D13*
%TO.C,C7*%
X81100000Y-152800000D03*
X81100000Y-150725000D03*
%TD*%
D12*
%TO.C,C18*%
X94637500Y-135100000D03*
X92562500Y-135100000D03*
%TD*%
%TO.C,C20*%
X80262500Y-122362500D03*
X78187500Y-122362500D03*
%TD*%
D14*
%TO.C,S1*%
X86850000Y-154475000D03*
X89850000Y-154475000D03*
X91350000Y-154475000D03*
D15*
X85300000Y-155500000D03*
X92900000Y-155500000D03*
X85300000Y-157600000D03*
X92900000Y-157600000D03*
%TD*%
D13*
%TO.C,C11*%
X95200000Y-152475000D03*
X95200000Y-150400000D03*
%TD*%
D16*
%TO.C,U5*%
X107100000Y-125400000D03*
X107100000Y-124450000D03*
X107100000Y-123500000D03*
X104825000Y-123500000D03*
X104825000Y-124450000D03*
X104825000Y-125400000D03*
%TD*%
D17*
%TO.C,C15*%
X81900000Y-138800000D03*
X81900000Y-140875000D03*
%TD*%
D14*
%TO.C,S2*%
X78150000Y-108475000D03*
X75150000Y-108475000D03*
X73650000Y-108475000D03*
D15*
X79700000Y-107450000D03*
X72100000Y-107450000D03*
X79700000Y-105350000D03*
X72100000Y-105350000D03*
%TD*%
D13*
%TO.C,C5*%
X82900000Y-129037500D03*
X82900000Y-126962500D03*
%TD*%
D12*
%TO.C,C17*%
X77237500Y-145700000D03*
X75162500Y-145700000D03*
%TD*%
D18*
%TO.C,R6*%
X104862500Y-127550000D03*
X106862500Y-127550000D03*
%TD*%
D19*
%TO.C,U3*%
X100150000Y-146800000D03*
X100150000Y-149100000D03*
D20*
X106450000Y-149100000D03*
D19*
X100150000Y-151400000D03*
%TD*%
D21*
%TO.C,D3*%
X101850000Y-136350000D03*
X101850000Y-139650000D03*
X106750000Y-139650000D03*
X106750000Y-136350000D03*
%TD*%
D19*
%TO.C,U2*%
X85900000Y-147000000D03*
X85900000Y-149300000D03*
D20*
X92200000Y-149300000D03*
D19*
X85900000Y-151600000D03*
%TD*%
D18*
%TO.C,R5*%
X104962500Y-121550000D03*
X106962500Y-121550000D03*
%TD*%
D13*
%TO.C,C10*%
X97500000Y-152475000D03*
X97500000Y-150400000D03*
%TD*%
D22*
%TO.C,F1*%
X115337500Y-132700000D03*
X111062500Y-132700000D03*
%TD*%
D12*
%TO.C,C1*%
X85537500Y-119700000D03*
X83462500Y-119700000D03*
%TD*%
D13*
%TO.C,C22*%
X75700000Y-131037500D03*
X75700000Y-128962500D03*
%TD*%
D12*
%TO.C,C14*%
X103750000Y-142150000D03*
X101675000Y-142150000D03*
%TD*%
D18*
%TO.C,R7*%
X106000000Y-131500000D03*
X108000000Y-131500000D03*
%TD*%
D10*
%TO.C,R9*%
X101625000Y-123400000D03*
X99625000Y-123400000D03*
%TD*%
D13*
%TO.C,C8*%
X81100000Y-148537500D03*
X81100000Y-146462500D03*
%TD*%
D10*
%TO.C,R10*%
X85200000Y-112800000D03*
X83200000Y-112800000D03*
%TD*%
D23*
%TO.C,SW1*%
X71400000Y-123100000D03*
X71400000Y-129800000D03*
%TD*%
D24*
%TO.C,Y1*%
X80325000Y-124462500D03*
X78125000Y-124462500D03*
X78125000Y-126162500D03*
X80325000Y-126162500D03*
%TD*%
D25*
%TO.C,D2*%
X102550000Y-156700000D03*
X104600000Y-156700000D03*
%TD*%
D26*
%TO.C,J9*%
X111580000Y-127880000D03*
X111580000Y-127080000D03*
D27*
X111580000Y-125930000D03*
X111580000Y-124930000D03*
X111580000Y-124430000D03*
X111580000Y-123430000D03*
D26*
X111580000Y-122280000D03*
X111580000Y-121480000D03*
X111580000Y-121480000D03*
X111580000Y-122280000D03*
D27*
X111580000Y-122930000D03*
X111580000Y-123930000D03*
X111580000Y-125430000D03*
X111580000Y-126430000D03*
D26*
X111580000Y-127080000D03*
X111580000Y-127880000D03*
%TD*%
D28*
%TO.C,R1*%
X89900000Y-141875000D03*
X89900000Y-139875000D03*
%TD*%
D29*
%TO.C,C3*%
X96062500Y-132900000D03*
X98137500Y-132900000D03*
%TD*%
D30*
%TO.C,U1*%
X85150000Y-122600000D03*
X85150000Y-123100000D03*
X85150000Y-123600000D03*
X85150000Y-124100000D03*
X85150000Y-124600000D03*
X85150000Y-125100000D03*
X85150000Y-125600000D03*
X85150000Y-126100000D03*
X85150000Y-126600000D03*
X85150000Y-127100000D03*
X85150000Y-127600000D03*
X85150000Y-128100000D03*
X85150000Y-128600000D03*
X85150000Y-129100000D03*
X85150000Y-129600000D03*
X85150000Y-130100000D03*
D31*
X87075000Y-132025000D03*
X87575000Y-132025000D03*
X88075000Y-132025000D03*
X88575000Y-132025000D03*
X89075000Y-132025000D03*
X89575000Y-132025000D03*
X90075000Y-132025000D03*
X90575000Y-132025000D03*
X91075000Y-132025000D03*
X91575000Y-132025000D03*
X92075000Y-132025000D03*
X92575000Y-132025000D03*
X93075000Y-132025000D03*
X93575000Y-132025000D03*
X94075000Y-132025000D03*
X94575000Y-132025000D03*
D30*
X96500000Y-130100000D03*
X96500000Y-129600000D03*
X96500000Y-129100000D03*
X96500000Y-128600000D03*
X96500000Y-128100000D03*
X96500000Y-127600000D03*
X96500000Y-127100000D03*
X96500000Y-126600000D03*
X96500000Y-126100000D03*
X96500000Y-125600000D03*
X96500000Y-125100000D03*
X96500000Y-124600000D03*
X96500000Y-124100000D03*
X96500000Y-123600000D03*
X96500000Y-123100000D03*
X96500000Y-122600000D03*
D31*
X94575000Y-120675000D03*
X94075000Y-120675000D03*
X93575000Y-120675000D03*
X93075000Y-120675000D03*
X92575000Y-120675000D03*
X92075000Y-120675000D03*
X91575000Y-120675000D03*
X91075000Y-120675000D03*
X90575000Y-120675000D03*
X90075000Y-120675000D03*
X89575000Y-120675000D03*
X89075000Y-120675000D03*
X88575000Y-120675000D03*
X88075000Y-120675000D03*
X87575000Y-120675000D03*
X87075000Y-120675000D03*
%TD*%
D13*
%TO.C,C12*%
X97500000Y-148112500D03*
X97500000Y-146037500D03*
%TD*%
D32*
%TO.C,U4*%
X72500000Y-136525000D03*
X72500000Y-137175000D03*
X72500000Y-137825000D03*
X72500000Y-138475000D03*
X72500000Y-139125000D03*
X72500000Y-139775000D03*
X72500000Y-140425000D03*
X72500000Y-141075000D03*
X72500000Y-141725000D03*
X72500000Y-142375000D03*
X72500000Y-143025000D03*
X72500000Y-143675000D03*
X79500000Y-143675000D03*
X79500000Y-143025000D03*
X79500000Y-142375000D03*
X79500000Y-141725000D03*
X79500000Y-141075000D03*
X79500000Y-140425000D03*
X79500000Y-139775000D03*
X79500000Y-139125000D03*
X79500000Y-138475000D03*
X79500000Y-137825000D03*
X79500000Y-137175000D03*
X79500000Y-136525000D03*
%TD*%
D18*
%TO.C,R3*%
X112100000Y-117900000D03*
X114100000Y-117900000D03*
%TD*%
D12*
%TO.C,C16*%
X77237500Y-148000000D03*
X75162500Y-148000000D03*
%TD*%
D10*
%TO.C,R4*%
X98600000Y-140500000D03*
X96600000Y-140500000D03*
%TD*%
D13*
%TO.C,C13*%
X95200000Y-148112500D03*
X95200000Y-146037500D03*
%TD*%
%TO.C,C9*%
X83400000Y-148537500D03*
X83400000Y-146462500D03*
%TD*%
D29*
%TO.C,C21*%
X78225000Y-128262500D03*
X80300000Y-128262500D03*
%TD*%
D12*
%TO.C,C2*%
X85500000Y-117500000D03*
X83425000Y-117500000D03*
%TD*%
D33*
%TO.C,D4*%
X92500000Y-139850000D03*
X92500000Y-141900000D03*
%TD*%
D10*
%TO.C,R2*%
X104500000Y-154300000D03*
X102500000Y-154300000D03*
%TD*%
D13*
%TO.C,C6*%
X83400000Y-152800000D03*
X83400000Y-150725000D03*
%TD*%
D25*
%TO.C,D1*%
X96550000Y-138200000D03*
X98600000Y-138200000D03*
%TD*%
D13*
%TO.C,C4*%
X97400000Y-121100000D03*
X97400000Y-119025000D03*
%TD*%
M02*
