%TF.GenerationSoftware,KiCad,Pcbnew,10.0.1*%
%TF.CreationDate,2026-05-05T15:22:00-06:00*%
%TF.ProjectId,2026_InClass_2Wheel_Robot_Donnellan,32303236-5f49-46e4-936c-6173735f3257,rev?*%
%TF.SameCoordinates,Original*%
%TF.FileFunction,Legend,Top*%
%TF.FilePolarity,Positive*%
%FSLAX46Y46*%
G04 Gerber Fmt 4.6, Leading zero omitted, Abs format (unit mm)*
G04 Created by KiCad (PCBNEW 10.0.1) date 2026-05-05 15:22:00*
%MOMM*%
%LPD*%
G01*
G04 APERTURE LIST*
%ADD10C,0.150000*%
%ADD11C,0.254000*%
%ADD12C,0.120000*%
%ADD13C,0.127000*%
%ADD14C,0.200000*%
%ADD15C,0.100000*%
%ADD16C,0.000000*%
G04 APERTURE END LIST*
D10*
X100458333Y-127554819D02*
X100125000Y-127078628D01*
X99886905Y-127554819D02*
X99886905Y-126554819D01*
X99886905Y-126554819D02*
X100267857Y-126554819D01*
X100267857Y-126554819D02*
X100363095Y-126602438D01*
X100363095Y-126602438D02*
X100410714Y-126650057D01*
X100410714Y-126650057D02*
X100458333Y-126745295D01*
X100458333Y-126745295D02*
X100458333Y-126888152D01*
X100458333Y-126888152D02*
X100410714Y-126983390D01*
X100410714Y-126983390D02*
X100363095Y-127031009D01*
X100363095Y-127031009D02*
X100267857Y-127078628D01*
X100267857Y-127078628D02*
X99886905Y-127078628D01*
X101029762Y-126983390D02*
X100934524Y-126935771D01*
X100934524Y-126935771D02*
X100886905Y-126888152D01*
X100886905Y-126888152D02*
X100839286Y-126792914D01*
X100839286Y-126792914D02*
X100839286Y-126745295D01*
X100839286Y-126745295D02*
X100886905Y-126650057D01*
X100886905Y-126650057D02*
X100934524Y-126602438D01*
X100934524Y-126602438D02*
X101029762Y-126554819D01*
X101029762Y-126554819D02*
X101220238Y-126554819D01*
X101220238Y-126554819D02*
X101315476Y-126602438D01*
X101315476Y-126602438D02*
X101363095Y-126650057D01*
X101363095Y-126650057D02*
X101410714Y-126745295D01*
X101410714Y-126745295D02*
X101410714Y-126792914D01*
X101410714Y-126792914D02*
X101363095Y-126888152D01*
X101363095Y-126888152D02*
X101315476Y-126935771D01*
X101315476Y-126935771D02*
X101220238Y-126983390D01*
X101220238Y-126983390D02*
X101029762Y-126983390D01*
X101029762Y-126983390D02*
X100934524Y-127031009D01*
X100934524Y-127031009D02*
X100886905Y-127078628D01*
X100886905Y-127078628D02*
X100839286Y-127173866D01*
X100839286Y-127173866D02*
X100839286Y-127364342D01*
X100839286Y-127364342D02*
X100886905Y-127459580D01*
X100886905Y-127459580D02*
X100934524Y-127507200D01*
X100934524Y-127507200D02*
X101029762Y-127554819D01*
X101029762Y-127554819D02*
X101220238Y-127554819D01*
X101220238Y-127554819D02*
X101315476Y-127507200D01*
X101315476Y-127507200D02*
X101363095Y-127459580D01*
X101363095Y-127459580D02*
X101410714Y-127364342D01*
X101410714Y-127364342D02*
X101410714Y-127173866D01*
X101410714Y-127173866D02*
X101363095Y-127078628D01*
X101363095Y-127078628D02*
X101315476Y-127031009D01*
X101315476Y-127031009D02*
X101220238Y-126983390D01*
X104662319Y-134328094D02*
X103662319Y-134328094D01*
X103662319Y-134328094D02*
X103662319Y-134089999D01*
X103662319Y-134089999D02*
X103709938Y-133947142D01*
X103709938Y-133947142D02*
X103805176Y-133851904D01*
X103805176Y-133851904D02*
X103900414Y-133804285D01*
X103900414Y-133804285D02*
X104090890Y-133756666D01*
X104090890Y-133756666D02*
X104233747Y-133756666D01*
X104233747Y-133756666D02*
X104424223Y-133804285D01*
X104424223Y-133804285D02*
X104519461Y-133851904D01*
X104519461Y-133851904D02*
X104614700Y-133947142D01*
X104614700Y-133947142D02*
X104662319Y-134089999D01*
X104662319Y-134089999D02*
X104662319Y-134328094D01*
X103662319Y-132851904D02*
X103662319Y-133328094D01*
X103662319Y-133328094D02*
X104138509Y-133375713D01*
X104138509Y-133375713D02*
X104090890Y-133328094D01*
X104090890Y-133328094D02*
X104043271Y-133232856D01*
X104043271Y-133232856D02*
X104043271Y-132994761D01*
X104043271Y-132994761D02*
X104090890Y-132899523D01*
X104090890Y-132899523D02*
X104138509Y-132851904D01*
X104138509Y-132851904D02*
X104233747Y-132804285D01*
X104233747Y-132804285D02*
X104471842Y-132804285D01*
X104471842Y-132804285D02*
X104567080Y-132851904D01*
X104567080Y-132851904D02*
X104614700Y-132899523D01*
X104614700Y-132899523D02*
X104662319Y-132994761D01*
X104662319Y-132994761D02*
X104662319Y-133232856D01*
X104662319Y-133232856D02*
X104614700Y-133328094D01*
X104614700Y-133328094D02*
X104567080Y-133375713D01*
X85819642Y-136339580D02*
X85772023Y-136387200D01*
X85772023Y-136387200D02*
X85629166Y-136434819D01*
X85629166Y-136434819D02*
X85533928Y-136434819D01*
X85533928Y-136434819D02*
X85391071Y-136387200D01*
X85391071Y-136387200D02*
X85295833Y-136291961D01*
X85295833Y-136291961D02*
X85248214Y-136196723D01*
X85248214Y-136196723D02*
X85200595Y-136006247D01*
X85200595Y-136006247D02*
X85200595Y-135863390D01*
X85200595Y-135863390D02*
X85248214Y-135672914D01*
X85248214Y-135672914D02*
X85295833Y-135577676D01*
X85295833Y-135577676D02*
X85391071Y-135482438D01*
X85391071Y-135482438D02*
X85533928Y-135434819D01*
X85533928Y-135434819D02*
X85629166Y-135434819D01*
X85629166Y-135434819D02*
X85772023Y-135482438D01*
X85772023Y-135482438D02*
X85819642Y-135530057D01*
X86772023Y-136434819D02*
X86200595Y-136434819D01*
X86486309Y-136434819D02*
X86486309Y-135434819D01*
X86486309Y-135434819D02*
X86391071Y-135577676D01*
X86391071Y-135577676D02*
X86295833Y-135672914D01*
X86295833Y-135672914D02*
X86200595Y-135720533D01*
X87248214Y-136434819D02*
X87438690Y-136434819D01*
X87438690Y-136434819D02*
X87533928Y-136387200D01*
X87533928Y-136387200D02*
X87581547Y-136339580D01*
X87581547Y-136339580D02*
X87676785Y-136196723D01*
X87676785Y-136196723D02*
X87724404Y-136006247D01*
X87724404Y-136006247D02*
X87724404Y-135625295D01*
X87724404Y-135625295D02*
X87676785Y-135530057D01*
X87676785Y-135530057D02*
X87629166Y-135482438D01*
X87629166Y-135482438D02*
X87533928Y-135434819D01*
X87533928Y-135434819D02*
X87343452Y-135434819D01*
X87343452Y-135434819D02*
X87248214Y-135482438D01*
X87248214Y-135482438D02*
X87200595Y-135530057D01*
X87200595Y-135530057D02*
X87152976Y-135625295D01*
X87152976Y-135625295D02*
X87152976Y-135863390D01*
X87152976Y-135863390D02*
X87200595Y-135958628D01*
X87200595Y-135958628D02*
X87248214Y-136006247D01*
X87248214Y-136006247D02*
X87343452Y-136053866D01*
X87343452Y-136053866D02*
X87533928Y-136053866D01*
X87533928Y-136053866D02*
X87629166Y-136006247D01*
X87629166Y-136006247D02*
X87676785Y-135958628D01*
X87676785Y-135958628D02*
X87724404Y-135863390D01*
X80933333Y-154922080D02*
X80885714Y-154969700D01*
X80885714Y-154969700D02*
X80742857Y-155017319D01*
X80742857Y-155017319D02*
X80647619Y-155017319D01*
X80647619Y-155017319D02*
X80504762Y-154969700D01*
X80504762Y-154969700D02*
X80409524Y-154874461D01*
X80409524Y-154874461D02*
X80361905Y-154779223D01*
X80361905Y-154779223D02*
X80314286Y-154588747D01*
X80314286Y-154588747D02*
X80314286Y-154445890D01*
X80314286Y-154445890D02*
X80361905Y-154255414D01*
X80361905Y-154255414D02*
X80409524Y-154160176D01*
X80409524Y-154160176D02*
X80504762Y-154064938D01*
X80504762Y-154064938D02*
X80647619Y-154017319D01*
X80647619Y-154017319D02*
X80742857Y-154017319D01*
X80742857Y-154017319D02*
X80885714Y-154064938D01*
X80885714Y-154064938D02*
X80933333Y-154112557D01*
X81266667Y-154017319D02*
X81933333Y-154017319D01*
X81933333Y-154017319D02*
X81504762Y-155017319D01*
X68666666Y-157354819D02*
X68666666Y-158069104D01*
X68666666Y-158069104D02*
X68619047Y-158211961D01*
X68619047Y-158211961D02*
X68523809Y-158307200D01*
X68523809Y-158307200D02*
X68380952Y-158354819D01*
X68380952Y-158354819D02*
X68285714Y-158354819D01*
X69666666Y-158354819D02*
X69095238Y-158354819D01*
X69380952Y-158354819D02*
X69380952Y-157354819D01*
X69380952Y-157354819D02*
X69285714Y-157497676D01*
X69285714Y-157497676D02*
X69190476Y-157592914D01*
X69190476Y-157592914D02*
X69095238Y-157640533D01*
X92957142Y-137139580D02*
X92909523Y-137187200D01*
X92909523Y-137187200D02*
X92766666Y-137234819D01*
X92766666Y-137234819D02*
X92671428Y-137234819D01*
X92671428Y-137234819D02*
X92528571Y-137187200D01*
X92528571Y-137187200D02*
X92433333Y-137091961D01*
X92433333Y-137091961D02*
X92385714Y-136996723D01*
X92385714Y-136996723D02*
X92338095Y-136806247D01*
X92338095Y-136806247D02*
X92338095Y-136663390D01*
X92338095Y-136663390D02*
X92385714Y-136472914D01*
X92385714Y-136472914D02*
X92433333Y-136377676D01*
X92433333Y-136377676D02*
X92528571Y-136282438D01*
X92528571Y-136282438D02*
X92671428Y-136234819D01*
X92671428Y-136234819D02*
X92766666Y-136234819D01*
X92766666Y-136234819D02*
X92909523Y-136282438D01*
X92909523Y-136282438D02*
X92957142Y-136330057D01*
X93909523Y-137234819D02*
X93338095Y-137234819D01*
X93623809Y-137234819D02*
X93623809Y-136234819D01*
X93623809Y-136234819D02*
X93528571Y-136377676D01*
X93528571Y-136377676D02*
X93433333Y-136472914D01*
X93433333Y-136472914D02*
X93338095Y-136520533D01*
X94480952Y-136663390D02*
X94385714Y-136615771D01*
X94385714Y-136615771D02*
X94338095Y-136568152D01*
X94338095Y-136568152D02*
X94290476Y-136472914D01*
X94290476Y-136472914D02*
X94290476Y-136425295D01*
X94290476Y-136425295D02*
X94338095Y-136330057D01*
X94338095Y-136330057D02*
X94385714Y-136282438D01*
X94385714Y-136282438D02*
X94480952Y-136234819D01*
X94480952Y-136234819D02*
X94671428Y-136234819D01*
X94671428Y-136234819D02*
X94766666Y-136282438D01*
X94766666Y-136282438D02*
X94814285Y-136330057D01*
X94814285Y-136330057D02*
X94861904Y-136425295D01*
X94861904Y-136425295D02*
X94861904Y-136472914D01*
X94861904Y-136472914D02*
X94814285Y-136568152D01*
X94814285Y-136568152D02*
X94766666Y-136615771D01*
X94766666Y-136615771D02*
X94671428Y-136663390D01*
X94671428Y-136663390D02*
X94480952Y-136663390D01*
X94480952Y-136663390D02*
X94385714Y-136711009D01*
X94385714Y-136711009D02*
X94338095Y-136758628D01*
X94338095Y-136758628D02*
X94290476Y-136853866D01*
X94290476Y-136853866D02*
X94290476Y-137044342D01*
X94290476Y-137044342D02*
X94338095Y-137139580D01*
X94338095Y-137139580D02*
X94385714Y-137187200D01*
X94385714Y-137187200D02*
X94480952Y-137234819D01*
X94480952Y-137234819D02*
X94671428Y-137234819D01*
X94671428Y-137234819D02*
X94766666Y-137187200D01*
X94766666Y-137187200D02*
X94814285Y-137139580D01*
X94814285Y-137139580D02*
X94861904Y-137044342D01*
X94861904Y-137044342D02*
X94861904Y-136853866D01*
X94861904Y-136853866D02*
X94814285Y-136758628D01*
X94814285Y-136758628D02*
X94766666Y-136711009D01*
X94766666Y-136711009D02*
X94671428Y-136663390D01*
X78657142Y-120959580D02*
X78609523Y-121007200D01*
X78609523Y-121007200D02*
X78466666Y-121054819D01*
X78466666Y-121054819D02*
X78371428Y-121054819D01*
X78371428Y-121054819D02*
X78228571Y-121007200D01*
X78228571Y-121007200D02*
X78133333Y-120911961D01*
X78133333Y-120911961D02*
X78085714Y-120816723D01*
X78085714Y-120816723D02*
X78038095Y-120626247D01*
X78038095Y-120626247D02*
X78038095Y-120483390D01*
X78038095Y-120483390D02*
X78085714Y-120292914D01*
X78085714Y-120292914D02*
X78133333Y-120197676D01*
X78133333Y-120197676D02*
X78228571Y-120102438D01*
X78228571Y-120102438D02*
X78371428Y-120054819D01*
X78371428Y-120054819D02*
X78466666Y-120054819D01*
X78466666Y-120054819D02*
X78609523Y-120102438D01*
X78609523Y-120102438D02*
X78657142Y-120150057D01*
X79038095Y-120150057D02*
X79085714Y-120102438D01*
X79085714Y-120102438D02*
X79180952Y-120054819D01*
X79180952Y-120054819D02*
X79419047Y-120054819D01*
X79419047Y-120054819D02*
X79514285Y-120102438D01*
X79514285Y-120102438D02*
X79561904Y-120150057D01*
X79561904Y-120150057D02*
X79609523Y-120245295D01*
X79609523Y-120245295D02*
X79609523Y-120340533D01*
X79609523Y-120340533D02*
X79561904Y-120483390D01*
X79561904Y-120483390D02*
X78990476Y-121054819D01*
X78990476Y-121054819D02*
X79609523Y-121054819D01*
X80228571Y-120054819D02*
X80323809Y-120054819D01*
X80323809Y-120054819D02*
X80419047Y-120102438D01*
X80419047Y-120102438D02*
X80466666Y-120150057D01*
X80466666Y-120150057D02*
X80514285Y-120245295D01*
X80514285Y-120245295D02*
X80561904Y-120435771D01*
X80561904Y-120435771D02*
X80561904Y-120673866D01*
X80561904Y-120673866D02*
X80514285Y-120864342D01*
X80514285Y-120864342D02*
X80466666Y-120959580D01*
X80466666Y-120959580D02*
X80419047Y-121007200D01*
X80419047Y-121007200D02*
X80323809Y-121054819D01*
X80323809Y-121054819D02*
X80228571Y-121054819D01*
X80228571Y-121054819D02*
X80133333Y-121007200D01*
X80133333Y-121007200D02*
X80085714Y-120959580D01*
X80085714Y-120959580D02*
X80038095Y-120864342D01*
X80038095Y-120864342D02*
X79990476Y-120673866D01*
X79990476Y-120673866D02*
X79990476Y-120435771D01*
X79990476Y-120435771D02*
X80038095Y-120245295D01*
X80038095Y-120245295D02*
X80085714Y-120150057D01*
X80085714Y-120150057D02*
X80133333Y-120102438D01*
X80133333Y-120102438D02*
X80228571Y-120054819D01*
X93838095Y-158507200D02*
X93980952Y-158554819D01*
X93980952Y-158554819D02*
X94219047Y-158554819D01*
X94219047Y-158554819D02*
X94314285Y-158507200D01*
X94314285Y-158507200D02*
X94361904Y-158459580D01*
X94361904Y-158459580D02*
X94409523Y-158364342D01*
X94409523Y-158364342D02*
X94409523Y-158269104D01*
X94409523Y-158269104D02*
X94361904Y-158173866D01*
X94361904Y-158173866D02*
X94314285Y-158126247D01*
X94314285Y-158126247D02*
X94219047Y-158078628D01*
X94219047Y-158078628D02*
X94028571Y-158031009D01*
X94028571Y-158031009D02*
X93933333Y-157983390D01*
X93933333Y-157983390D02*
X93885714Y-157935771D01*
X93885714Y-157935771D02*
X93838095Y-157840533D01*
X93838095Y-157840533D02*
X93838095Y-157745295D01*
X93838095Y-157745295D02*
X93885714Y-157650057D01*
X93885714Y-157650057D02*
X93933333Y-157602438D01*
X93933333Y-157602438D02*
X94028571Y-157554819D01*
X94028571Y-157554819D02*
X94266666Y-157554819D01*
X94266666Y-157554819D02*
X94409523Y-157602438D01*
X95361904Y-158554819D02*
X94790476Y-158554819D01*
X95076190Y-158554819D02*
X95076190Y-157554819D01*
X95076190Y-157554819D02*
X94980952Y-157697676D01*
X94980952Y-157697676D02*
X94885714Y-157792914D01*
X94885714Y-157792914D02*
X94790476Y-157840533D01*
X94157142Y-154497080D02*
X94109523Y-154544700D01*
X94109523Y-154544700D02*
X93966666Y-154592319D01*
X93966666Y-154592319D02*
X93871428Y-154592319D01*
X93871428Y-154592319D02*
X93728571Y-154544700D01*
X93728571Y-154544700D02*
X93633333Y-154449461D01*
X93633333Y-154449461D02*
X93585714Y-154354223D01*
X93585714Y-154354223D02*
X93538095Y-154163747D01*
X93538095Y-154163747D02*
X93538095Y-154020890D01*
X93538095Y-154020890D02*
X93585714Y-153830414D01*
X93585714Y-153830414D02*
X93633333Y-153735176D01*
X93633333Y-153735176D02*
X93728571Y-153639938D01*
X93728571Y-153639938D02*
X93871428Y-153592319D01*
X93871428Y-153592319D02*
X93966666Y-153592319D01*
X93966666Y-153592319D02*
X94109523Y-153639938D01*
X94109523Y-153639938D02*
X94157142Y-153687557D01*
X95109523Y-154592319D02*
X94538095Y-154592319D01*
X94823809Y-154592319D02*
X94823809Y-153592319D01*
X94823809Y-153592319D02*
X94728571Y-153735176D01*
X94728571Y-153735176D02*
X94633333Y-153830414D01*
X94633333Y-153830414D02*
X94538095Y-153878033D01*
X96061904Y-154592319D02*
X95490476Y-154592319D01*
X95776190Y-154592319D02*
X95776190Y-153592319D01*
X95776190Y-153592319D02*
X95680952Y-153735176D01*
X95680952Y-153735176D02*
X95585714Y-153830414D01*
X95585714Y-153830414D02*
X95490476Y-153878033D01*
X63654819Y-132533333D02*
X64369104Y-132533333D01*
X64369104Y-132533333D02*
X64511961Y-132580952D01*
X64511961Y-132580952D02*
X64607200Y-132676190D01*
X64607200Y-132676190D02*
X64654819Y-132819047D01*
X64654819Y-132819047D02*
X64654819Y-132914285D01*
X63750057Y-132104761D02*
X63702438Y-132057142D01*
X63702438Y-132057142D02*
X63654819Y-131961904D01*
X63654819Y-131961904D02*
X63654819Y-131723809D01*
X63654819Y-131723809D02*
X63702438Y-131628571D01*
X63702438Y-131628571D02*
X63750057Y-131580952D01*
X63750057Y-131580952D02*
X63845295Y-131533333D01*
X63845295Y-131533333D02*
X63940533Y-131533333D01*
X63940533Y-131533333D02*
X64083390Y-131580952D01*
X64083390Y-131580952D02*
X64654819Y-132152380D01*
X64654819Y-132152380D02*
X64654819Y-131533333D01*
X108354819Y-125261904D02*
X109164342Y-125261904D01*
X109164342Y-125261904D02*
X109259580Y-125214285D01*
X109259580Y-125214285D02*
X109307200Y-125166666D01*
X109307200Y-125166666D02*
X109354819Y-125071428D01*
X109354819Y-125071428D02*
X109354819Y-124880952D01*
X109354819Y-124880952D02*
X109307200Y-124785714D01*
X109307200Y-124785714D02*
X109259580Y-124738095D01*
X109259580Y-124738095D02*
X109164342Y-124690476D01*
X109164342Y-124690476D02*
X108354819Y-124690476D01*
X108354819Y-123738095D02*
X108354819Y-124214285D01*
X108354819Y-124214285D02*
X108831009Y-124261904D01*
X108831009Y-124261904D02*
X108783390Y-124214285D01*
X108783390Y-124214285D02*
X108735771Y-124119047D01*
X108735771Y-124119047D02*
X108735771Y-123880952D01*
X108735771Y-123880952D02*
X108783390Y-123785714D01*
X108783390Y-123785714D02*
X108831009Y-123738095D01*
X108831009Y-123738095D02*
X108926247Y-123690476D01*
X108926247Y-123690476D02*
X109164342Y-123690476D01*
X109164342Y-123690476D02*
X109259580Y-123738095D01*
X109259580Y-123738095D02*
X109307200Y-123785714D01*
X109307200Y-123785714D02*
X109354819Y-123880952D01*
X109354819Y-123880952D02*
X109354819Y-124119047D01*
X109354819Y-124119047D02*
X109307200Y-124214285D01*
X109307200Y-124214285D02*
X109259580Y-124261904D01*
X81457142Y-137597080D02*
X81409523Y-137644700D01*
X81409523Y-137644700D02*
X81266666Y-137692319D01*
X81266666Y-137692319D02*
X81171428Y-137692319D01*
X81171428Y-137692319D02*
X81028571Y-137644700D01*
X81028571Y-137644700D02*
X80933333Y-137549461D01*
X80933333Y-137549461D02*
X80885714Y-137454223D01*
X80885714Y-137454223D02*
X80838095Y-137263747D01*
X80838095Y-137263747D02*
X80838095Y-137120890D01*
X80838095Y-137120890D02*
X80885714Y-136930414D01*
X80885714Y-136930414D02*
X80933333Y-136835176D01*
X80933333Y-136835176D02*
X81028571Y-136739938D01*
X81028571Y-136739938D02*
X81171428Y-136692319D01*
X81171428Y-136692319D02*
X81266666Y-136692319D01*
X81266666Y-136692319D02*
X81409523Y-136739938D01*
X81409523Y-136739938D02*
X81457142Y-136787557D01*
X82409523Y-137692319D02*
X81838095Y-137692319D01*
X82123809Y-137692319D02*
X82123809Y-136692319D01*
X82123809Y-136692319D02*
X82028571Y-136835176D01*
X82028571Y-136835176D02*
X81933333Y-136930414D01*
X81933333Y-136930414D02*
X81838095Y-136978033D01*
X83314285Y-136692319D02*
X82838095Y-136692319D01*
X82838095Y-136692319D02*
X82790476Y-137168509D01*
X82790476Y-137168509D02*
X82838095Y-137120890D01*
X82838095Y-137120890D02*
X82933333Y-137073271D01*
X82933333Y-137073271D02*
X83171428Y-137073271D01*
X83171428Y-137073271D02*
X83266666Y-137120890D01*
X83266666Y-137120890D02*
X83314285Y-137168509D01*
X83314285Y-137168509D02*
X83361904Y-137263747D01*
X83361904Y-137263747D02*
X83361904Y-137501842D01*
X83361904Y-137501842D02*
X83314285Y-137597080D01*
X83314285Y-137597080D02*
X83266666Y-137644700D01*
X83266666Y-137644700D02*
X83171428Y-137692319D01*
X83171428Y-137692319D02*
X82933333Y-137692319D01*
X82933333Y-137692319D02*
X82838095Y-137644700D01*
X82838095Y-137644700D02*
X82790476Y-137597080D01*
X75038095Y-110707200D02*
X75180952Y-110754819D01*
X75180952Y-110754819D02*
X75419047Y-110754819D01*
X75419047Y-110754819D02*
X75514285Y-110707200D01*
X75514285Y-110707200D02*
X75561904Y-110659580D01*
X75561904Y-110659580D02*
X75609523Y-110564342D01*
X75609523Y-110564342D02*
X75609523Y-110469104D01*
X75609523Y-110469104D02*
X75561904Y-110373866D01*
X75561904Y-110373866D02*
X75514285Y-110326247D01*
X75514285Y-110326247D02*
X75419047Y-110278628D01*
X75419047Y-110278628D02*
X75228571Y-110231009D01*
X75228571Y-110231009D02*
X75133333Y-110183390D01*
X75133333Y-110183390D02*
X75085714Y-110135771D01*
X75085714Y-110135771D02*
X75038095Y-110040533D01*
X75038095Y-110040533D02*
X75038095Y-109945295D01*
X75038095Y-109945295D02*
X75085714Y-109850057D01*
X75085714Y-109850057D02*
X75133333Y-109802438D01*
X75133333Y-109802438D02*
X75228571Y-109754819D01*
X75228571Y-109754819D02*
X75466666Y-109754819D01*
X75466666Y-109754819D02*
X75609523Y-109802438D01*
X75990476Y-109850057D02*
X76038095Y-109802438D01*
X76038095Y-109802438D02*
X76133333Y-109754819D01*
X76133333Y-109754819D02*
X76371428Y-109754819D01*
X76371428Y-109754819D02*
X76466666Y-109802438D01*
X76466666Y-109802438D02*
X76514285Y-109850057D01*
X76514285Y-109850057D02*
X76561904Y-109945295D01*
X76561904Y-109945295D02*
X76561904Y-110040533D01*
X76561904Y-110040533D02*
X76514285Y-110183390D01*
X76514285Y-110183390D02*
X75942857Y-110754819D01*
X75942857Y-110754819D02*
X76561904Y-110754819D01*
X82733333Y-131059580D02*
X82685714Y-131107200D01*
X82685714Y-131107200D02*
X82542857Y-131154819D01*
X82542857Y-131154819D02*
X82447619Y-131154819D01*
X82447619Y-131154819D02*
X82304762Y-131107200D01*
X82304762Y-131107200D02*
X82209524Y-131011961D01*
X82209524Y-131011961D02*
X82161905Y-130916723D01*
X82161905Y-130916723D02*
X82114286Y-130726247D01*
X82114286Y-130726247D02*
X82114286Y-130583390D01*
X82114286Y-130583390D02*
X82161905Y-130392914D01*
X82161905Y-130392914D02*
X82209524Y-130297676D01*
X82209524Y-130297676D02*
X82304762Y-130202438D01*
X82304762Y-130202438D02*
X82447619Y-130154819D01*
X82447619Y-130154819D02*
X82542857Y-130154819D01*
X82542857Y-130154819D02*
X82685714Y-130202438D01*
X82685714Y-130202438D02*
X82733333Y-130250057D01*
X83638095Y-130154819D02*
X83161905Y-130154819D01*
X83161905Y-130154819D02*
X83114286Y-130631009D01*
X83114286Y-130631009D02*
X83161905Y-130583390D01*
X83161905Y-130583390D02*
X83257143Y-130535771D01*
X83257143Y-130535771D02*
X83495238Y-130535771D01*
X83495238Y-130535771D02*
X83590476Y-130583390D01*
X83590476Y-130583390D02*
X83638095Y-130631009D01*
X83638095Y-130631009D02*
X83685714Y-130726247D01*
X83685714Y-130726247D02*
X83685714Y-130964342D01*
X83685714Y-130964342D02*
X83638095Y-131059580D01*
X83638095Y-131059580D02*
X83590476Y-131107200D01*
X83590476Y-131107200D02*
X83495238Y-131154819D01*
X83495238Y-131154819D02*
X83257143Y-131154819D01*
X83257143Y-131154819D02*
X83161905Y-131107200D01*
X83161905Y-131107200D02*
X83114286Y-131059580D01*
X72157142Y-146059580D02*
X72109523Y-146107200D01*
X72109523Y-146107200D02*
X71966666Y-146154819D01*
X71966666Y-146154819D02*
X71871428Y-146154819D01*
X71871428Y-146154819D02*
X71728571Y-146107200D01*
X71728571Y-146107200D02*
X71633333Y-146011961D01*
X71633333Y-146011961D02*
X71585714Y-145916723D01*
X71585714Y-145916723D02*
X71538095Y-145726247D01*
X71538095Y-145726247D02*
X71538095Y-145583390D01*
X71538095Y-145583390D02*
X71585714Y-145392914D01*
X71585714Y-145392914D02*
X71633333Y-145297676D01*
X71633333Y-145297676D02*
X71728571Y-145202438D01*
X71728571Y-145202438D02*
X71871428Y-145154819D01*
X71871428Y-145154819D02*
X71966666Y-145154819D01*
X71966666Y-145154819D02*
X72109523Y-145202438D01*
X72109523Y-145202438D02*
X72157142Y-145250057D01*
X73109523Y-146154819D02*
X72538095Y-146154819D01*
X72823809Y-146154819D02*
X72823809Y-145154819D01*
X72823809Y-145154819D02*
X72728571Y-145297676D01*
X72728571Y-145297676D02*
X72633333Y-145392914D01*
X72633333Y-145392914D02*
X72538095Y-145440533D01*
X73442857Y-145154819D02*
X74109523Y-145154819D01*
X74109523Y-145154819D02*
X73680952Y-146154819D01*
X109017319Y-127616666D02*
X108541128Y-127949999D01*
X109017319Y-128188094D02*
X108017319Y-128188094D01*
X108017319Y-128188094D02*
X108017319Y-127807142D01*
X108017319Y-127807142D02*
X108064938Y-127711904D01*
X108064938Y-127711904D02*
X108112557Y-127664285D01*
X108112557Y-127664285D02*
X108207795Y-127616666D01*
X108207795Y-127616666D02*
X108350652Y-127616666D01*
X108350652Y-127616666D02*
X108445890Y-127664285D01*
X108445890Y-127664285D02*
X108493509Y-127711904D01*
X108493509Y-127711904D02*
X108541128Y-127807142D01*
X108541128Y-127807142D02*
X108541128Y-128188094D01*
X108017319Y-126759523D02*
X108017319Y-126949999D01*
X108017319Y-126949999D02*
X108064938Y-127045237D01*
X108064938Y-127045237D02*
X108112557Y-127092856D01*
X108112557Y-127092856D02*
X108255414Y-127188094D01*
X108255414Y-127188094D02*
X108445890Y-127235713D01*
X108445890Y-127235713D02*
X108826842Y-127235713D01*
X108826842Y-127235713D02*
X108922080Y-127188094D01*
X108922080Y-127188094D02*
X108969700Y-127140475D01*
X108969700Y-127140475D02*
X109017319Y-127045237D01*
X109017319Y-127045237D02*
X109017319Y-126854761D01*
X109017319Y-126854761D02*
X108969700Y-126759523D01*
X108969700Y-126759523D02*
X108922080Y-126711904D01*
X108922080Y-126711904D02*
X108826842Y-126664285D01*
X108826842Y-126664285D02*
X108588747Y-126664285D01*
X108588747Y-126664285D02*
X108493509Y-126711904D01*
X108493509Y-126711904D02*
X108445890Y-126759523D01*
X108445890Y-126759523D02*
X108398271Y-126854761D01*
X108398271Y-126854761D02*
X108398271Y-127045237D01*
X108398271Y-127045237D02*
X108445890Y-127140475D01*
X108445890Y-127140475D02*
X108493509Y-127188094D01*
X108493509Y-127188094D02*
X108588747Y-127235713D01*
X102754819Y-149861904D02*
X103564342Y-149861904D01*
X103564342Y-149861904D02*
X103659580Y-149814285D01*
X103659580Y-149814285D02*
X103707200Y-149766666D01*
X103707200Y-149766666D02*
X103754819Y-149671428D01*
X103754819Y-149671428D02*
X103754819Y-149480952D01*
X103754819Y-149480952D02*
X103707200Y-149385714D01*
X103707200Y-149385714D02*
X103659580Y-149338095D01*
X103659580Y-149338095D02*
X103564342Y-149290476D01*
X103564342Y-149290476D02*
X102754819Y-149290476D01*
X102754819Y-148909523D02*
X102754819Y-148290476D01*
X102754819Y-148290476D02*
X103135771Y-148623809D01*
X103135771Y-148623809D02*
X103135771Y-148480952D01*
X103135771Y-148480952D02*
X103183390Y-148385714D01*
X103183390Y-148385714D02*
X103231009Y-148338095D01*
X103231009Y-148338095D02*
X103326247Y-148290476D01*
X103326247Y-148290476D02*
X103564342Y-148290476D01*
X103564342Y-148290476D02*
X103659580Y-148338095D01*
X103659580Y-148338095D02*
X103707200Y-148385714D01*
X103707200Y-148385714D02*
X103754819Y-148480952D01*
X103754819Y-148480952D02*
X103754819Y-148766666D01*
X103754819Y-148766666D02*
X103707200Y-148861904D01*
X103707200Y-148861904D02*
X103659580Y-148909523D01*
X103561905Y-138454819D02*
X103561905Y-137454819D01*
X103561905Y-137454819D02*
X103800000Y-137454819D01*
X103800000Y-137454819D02*
X103942857Y-137502438D01*
X103942857Y-137502438D02*
X104038095Y-137597676D01*
X104038095Y-137597676D02*
X104085714Y-137692914D01*
X104085714Y-137692914D02*
X104133333Y-137883390D01*
X104133333Y-137883390D02*
X104133333Y-138026247D01*
X104133333Y-138026247D02*
X104085714Y-138216723D01*
X104085714Y-138216723D02*
X104038095Y-138311961D01*
X104038095Y-138311961D02*
X103942857Y-138407200D01*
X103942857Y-138407200D02*
X103800000Y-138454819D01*
X103800000Y-138454819D02*
X103561905Y-138454819D01*
X104466667Y-137454819D02*
X105085714Y-137454819D01*
X105085714Y-137454819D02*
X104752381Y-137835771D01*
X104752381Y-137835771D02*
X104895238Y-137835771D01*
X104895238Y-137835771D02*
X104990476Y-137883390D01*
X104990476Y-137883390D02*
X105038095Y-137931009D01*
X105038095Y-137931009D02*
X105085714Y-138026247D01*
X105085714Y-138026247D02*
X105085714Y-138264342D01*
X105085714Y-138264342D02*
X105038095Y-138359580D01*
X105038095Y-138359580D02*
X104990476Y-138407200D01*
X104990476Y-138407200D02*
X104895238Y-138454819D01*
X104895238Y-138454819D02*
X104609524Y-138454819D01*
X104609524Y-138454819D02*
X104514286Y-138407200D01*
X104514286Y-138407200D02*
X104466667Y-138359580D01*
X100528571Y-136762295D02*
X100071428Y-136762295D01*
X100300000Y-136762295D02*
X100300000Y-135962295D01*
X100300000Y-135962295D02*
X100223809Y-136076580D01*
X100223809Y-136076580D02*
X100147619Y-136152771D01*
X100147619Y-136152771D02*
X100071428Y-136190866D01*
X88288095Y-148754819D02*
X88288095Y-149564342D01*
X88288095Y-149564342D02*
X88335714Y-149659580D01*
X88335714Y-149659580D02*
X88383333Y-149707200D01*
X88383333Y-149707200D02*
X88478571Y-149754819D01*
X88478571Y-149754819D02*
X88669047Y-149754819D01*
X88669047Y-149754819D02*
X88764285Y-149707200D01*
X88764285Y-149707200D02*
X88811904Y-149659580D01*
X88811904Y-149659580D02*
X88859523Y-149564342D01*
X88859523Y-149564342D02*
X88859523Y-148754819D01*
X89288095Y-148850057D02*
X89335714Y-148802438D01*
X89335714Y-148802438D02*
X89430952Y-148754819D01*
X89430952Y-148754819D02*
X89669047Y-148754819D01*
X89669047Y-148754819D02*
X89764285Y-148802438D01*
X89764285Y-148802438D02*
X89811904Y-148850057D01*
X89811904Y-148850057D02*
X89859523Y-148945295D01*
X89859523Y-148945295D02*
X89859523Y-149040533D01*
X89859523Y-149040533D02*
X89811904Y-149183390D01*
X89811904Y-149183390D02*
X89240476Y-149754819D01*
X89240476Y-149754819D02*
X89859523Y-149754819D01*
X109117319Y-121666666D02*
X108641128Y-121999999D01*
X109117319Y-122238094D02*
X108117319Y-122238094D01*
X108117319Y-122238094D02*
X108117319Y-121857142D01*
X108117319Y-121857142D02*
X108164938Y-121761904D01*
X108164938Y-121761904D02*
X108212557Y-121714285D01*
X108212557Y-121714285D02*
X108307795Y-121666666D01*
X108307795Y-121666666D02*
X108450652Y-121666666D01*
X108450652Y-121666666D02*
X108545890Y-121714285D01*
X108545890Y-121714285D02*
X108593509Y-121761904D01*
X108593509Y-121761904D02*
X108641128Y-121857142D01*
X108641128Y-121857142D02*
X108641128Y-122238094D01*
X108117319Y-120761904D02*
X108117319Y-121238094D01*
X108117319Y-121238094D02*
X108593509Y-121285713D01*
X108593509Y-121285713D02*
X108545890Y-121238094D01*
X108545890Y-121238094D02*
X108498271Y-121142856D01*
X108498271Y-121142856D02*
X108498271Y-120904761D01*
X108498271Y-120904761D02*
X108545890Y-120809523D01*
X108545890Y-120809523D02*
X108593509Y-120761904D01*
X108593509Y-120761904D02*
X108688747Y-120714285D01*
X108688747Y-120714285D02*
X108926842Y-120714285D01*
X108926842Y-120714285D02*
X109022080Y-120761904D01*
X109022080Y-120761904D02*
X109069700Y-120809523D01*
X109069700Y-120809523D02*
X109117319Y-120904761D01*
X109117319Y-120904761D02*
X109117319Y-121142856D01*
X109117319Y-121142856D02*
X109069700Y-121238094D01*
X109069700Y-121238094D02*
X109022080Y-121285713D01*
X97357142Y-154497080D02*
X97309523Y-154544700D01*
X97309523Y-154544700D02*
X97166666Y-154592319D01*
X97166666Y-154592319D02*
X97071428Y-154592319D01*
X97071428Y-154592319D02*
X96928571Y-154544700D01*
X96928571Y-154544700D02*
X96833333Y-154449461D01*
X96833333Y-154449461D02*
X96785714Y-154354223D01*
X96785714Y-154354223D02*
X96738095Y-154163747D01*
X96738095Y-154163747D02*
X96738095Y-154020890D01*
X96738095Y-154020890D02*
X96785714Y-153830414D01*
X96785714Y-153830414D02*
X96833333Y-153735176D01*
X96833333Y-153735176D02*
X96928571Y-153639938D01*
X96928571Y-153639938D02*
X97071428Y-153592319D01*
X97071428Y-153592319D02*
X97166666Y-153592319D01*
X97166666Y-153592319D02*
X97309523Y-153639938D01*
X97309523Y-153639938D02*
X97357142Y-153687557D01*
X98309523Y-154592319D02*
X97738095Y-154592319D01*
X98023809Y-154592319D02*
X98023809Y-153592319D01*
X98023809Y-153592319D02*
X97928571Y-153735176D01*
X97928571Y-153735176D02*
X97833333Y-153830414D01*
X97833333Y-153830414D02*
X97738095Y-153878033D01*
X98928571Y-153592319D02*
X99023809Y-153592319D01*
X99023809Y-153592319D02*
X99119047Y-153639938D01*
X99119047Y-153639938D02*
X99166666Y-153687557D01*
X99166666Y-153687557D02*
X99214285Y-153782795D01*
X99214285Y-153782795D02*
X99261904Y-153973271D01*
X99261904Y-153973271D02*
X99261904Y-154211366D01*
X99261904Y-154211366D02*
X99214285Y-154401842D01*
X99214285Y-154401842D02*
X99166666Y-154497080D01*
X99166666Y-154497080D02*
X99119047Y-154544700D01*
X99119047Y-154544700D02*
X99023809Y-154592319D01*
X99023809Y-154592319D02*
X98928571Y-154592319D01*
X98928571Y-154592319D02*
X98833333Y-154544700D01*
X98833333Y-154544700D02*
X98785714Y-154497080D01*
X98785714Y-154497080D02*
X98738095Y-154401842D01*
X98738095Y-154401842D02*
X98690476Y-154211366D01*
X98690476Y-154211366D02*
X98690476Y-153973271D01*
X98690476Y-153973271D02*
X98738095Y-153782795D01*
X98738095Y-153782795D02*
X98785714Y-153687557D01*
X98785714Y-153687557D02*
X98833333Y-153639938D01*
X98833333Y-153639938D02*
X98928571Y-153592319D01*
X116931009Y-133033333D02*
X116931009Y-133366666D01*
X117454819Y-133366666D02*
X116454819Y-133366666D01*
X116454819Y-133366666D02*
X116454819Y-132890476D01*
X117454819Y-131985714D02*
X117454819Y-132557142D01*
X117454819Y-132271428D02*
X116454819Y-132271428D01*
X116454819Y-132271428D02*
X116597676Y-132366666D01*
X116597676Y-132366666D02*
X116692914Y-132461904D01*
X116692914Y-132461904D02*
X116740533Y-132557142D01*
X63454819Y-152433333D02*
X64169104Y-152433333D01*
X64169104Y-152433333D02*
X64311961Y-152480952D01*
X64311961Y-152480952D02*
X64407200Y-152576190D01*
X64407200Y-152576190D02*
X64454819Y-152719047D01*
X64454819Y-152719047D02*
X64454819Y-152814285D01*
X63454819Y-152052380D02*
X63454819Y-151433333D01*
X63454819Y-151433333D02*
X63835771Y-151766666D01*
X63835771Y-151766666D02*
X63835771Y-151623809D01*
X63835771Y-151623809D02*
X63883390Y-151528571D01*
X63883390Y-151528571D02*
X63931009Y-151480952D01*
X63931009Y-151480952D02*
X64026247Y-151433333D01*
X64026247Y-151433333D02*
X64264342Y-151433333D01*
X64264342Y-151433333D02*
X64359580Y-151480952D01*
X64359580Y-151480952D02*
X64407200Y-151528571D01*
X64407200Y-151528571D02*
X64454819Y-151623809D01*
X64454819Y-151623809D02*
X64454819Y-151909523D01*
X64454819Y-151909523D02*
X64407200Y-152004761D01*
X64407200Y-152004761D02*
X64359580Y-152052380D01*
X81433333Y-119959580D02*
X81385714Y-120007200D01*
X81385714Y-120007200D02*
X81242857Y-120054819D01*
X81242857Y-120054819D02*
X81147619Y-120054819D01*
X81147619Y-120054819D02*
X81004762Y-120007200D01*
X81004762Y-120007200D02*
X80909524Y-119911961D01*
X80909524Y-119911961D02*
X80861905Y-119816723D01*
X80861905Y-119816723D02*
X80814286Y-119626247D01*
X80814286Y-119626247D02*
X80814286Y-119483390D01*
X80814286Y-119483390D02*
X80861905Y-119292914D01*
X80861905Y-119292914D02*
X80909524Y-119197676D01*
X80909524Y-119197676D02*
X81004762Y-119102438D01*
X81004762Y-119102438D02*
X81147619Y-119054819D01*
X81147619Y-119054819D02*
X81242857Y-119054819D01*
X81242857Y-119054819D02*
X81385714Y-119102438D01*
X81385714Y-119102438D02*
X81433333Y-119150057D01*
X82385714Y-120054819D02*
X81814286Y-120054819D01*
X82100000Y-120054819D02*
X82100000Y-119054819D01*
X82100000Y-119054819D02*
X82004762Y-119197676D01*
X82004762Y-119197676D02*
X81909524Y-119292914D01*
X81909524Y-119292914D02*
X81814286Y-119340533D01*
X74957142Y-127697080D02*
X74909523Y-127744700D01*
X74909523Y-127744700D02*
X74766666Y-127792319D01*
X74766666Y-127792319D02*
X74671428Y-127792319D01*
X74671428Y-127792319D02*
X74528571Y-127744700D01*
X74528571Y-127744700D02*
X74433333Y-127649461D01*
X74433333Y-127649461D02*
X74385714Y-127554223D01*
X74385714Y-127554223D02*
X74338095Y-127363747D01*
X74338095Y-127363747D02*
X74338095Y-127220890D01*
X74338095Y-127220890D02*
X74385714Y-127030414D01*
X74385714Y-127030414D02*
X74433333Y-126935176D01*
X74433333Y-126935176D02*
X74528571Y-126839938D01*
X74528571Y-126839938D02*
X74671428Y-126792319D01*
X74671428Y-126792319D02*
X74766666Y-126792319D01*
X74766666Y-126792319D02*
X74909523Y-126839938D01*
X74909523Y-126839938D02*
X74957142Y-126887557D01*
X75338095Y-126887557D02*
X75385714Y-126839938D01*
X75385714Y-126839938D02*
X75480952Y-126792319D01*
X75480952Y-126792319D02*
X75719047Y-126792319D01*
X75719047Y-126792319D02*
X75814285Y-126839938D01*
X75814285Y-126839938D02*
X75861904Y-126887557D01*
X75861904Y-126887557D02*
X75909523Y-126982795D01*
X75909523Y-126982795D02*
X75909523Y-127078033D01*
X75909523Y-127078033D02*
X75861904Y-127220890D01*
X75861904Y-127220890D02*
X75290476Y-127792319D01*
X75290476Y-127792319D02*
X75909523Y-127792319D01*
X76290476Y-126887557D02*
X76338095Y-126839938D01*
X76338095Y-126839938D02*
X76433333Y-126792319D01*
X76433333Y-126792319D02*
X76671428Y-126792319D01*
X76671428Y-126792319D02*
X76766666Y-126839938D01*
X76766666Y-126839938D02*
X76814285Y-126887557D01*
X76814285Y-126887557D02*
X76861904Y-126982795D01*
X76861904Y-126982795D02*
X76861904Y-127078033D01*
X76861904Y-127078033D02*
X76814285Y-127220890D01*
X76814285Y-127220890D02*
X76242857Y-127792319D01*
X76242857Y-127792319D02*
X76861904Y-127792319D01*
X105709580Y-143092857D02*
X105757200Y-143140476D01*
X105757200Y-143140476D02*
X105804819Y-143283333D01*
X105804819Y-143283333D02*
X105804819Y-143378571D01*
X105804819Y-143378571D02*
X105757200Y-143521428D01*
X105757200Y-143521428D02*
X105661961Y-143616666D01*
X105661961Y-143616666D02*
X105566723Y-143664285D01*
X105566723Y-143664285D02*
X105376247Y-143711904D01*
X105376247Y-143711904D02*
X105233390Y-143711904D01*
X105233390Y-143711904D02*
X105042914Y-143664285D01*
X105042914Y-143664285D02*
X104947676Y-143616666D01*
X104947676Y-143616666D02*
X104852438Y-143521428D01*
X104852438Y-143521428D02*
X104804819Y-143378571D01*
X104804819Y-143378571D02*
X104804819Y-143283333D01*
X104804819Y-143283333D02*
X104852438Y-143140476D01*
X104852438Y-143140476D02*
X104900057Y-143092857D01*
X105804819Y-142140476D02*
X105804819Y-142711904D01*
X105804819Y-142426190D02*
X104804819Y-142426190D01*
X104804819Y-142426190D02*
X104947676Y-142521428D01*
X104947676Y-142521428D02*
X105042914Y-142616666D01*
X105042914Y-142616666D02*
X105090533Y-142711904D01*
X105138152Y-141283333D02*
X105804819Y-141283333D01*
X104757200Y-141521428D02*
X105471485Y-141759523D01*
X105471485Y-141759523D02*
X105471485Y-141140476D01*
X104854819Y-131666666D02*
X104378628Y-131999999D01*
X104854819Y-132238094D02*
X103854819Y-132238094D01*
X103854819Y-132238094D02*
X103854819Y-131857142D01*
X103854819Y-131857142D02*
X103902438Y-131761904D01*
X103902438Y-131761904D02*
X103950057Y-131714285D01*
X103950057Y-131714285D02*
X104045295Y-131666666D01*
X104045295Y-131666666D02*
X104188152Y-131666666D01*
X104188152Y-131666666D02*
X104283390Y-131714285D01*
X104283390Y-131714285D02*
X104331009Y-131761904D01*
X104331009Y-131761904D02*
X104378628Y-131857142D01*
X104378628Y-131857142D02*
X104378628Y-132238094D01*
X103854819Y-131333332D02*
X103854819Y-130666666D01*
X103854819Y-130666666D02*
X104854819Y-131095237D01*
X100458333Y-122254819D02*
X100125000Y-121778628D01*
X99886905Y-122254819D02*
X99886905Y-121254819D01*
X99886905Y-121254819D02*
X100267857Y-121254819D01*
X100267857Y-121254819D02*
X100363095Y-121302438D01*
X100363095Y-121302438D02*
X100410714Y-121350057D01*
X100410714Y-121350057D02*
X100458333Y-121445295D01*
X100458333Y-121445295D02*
X100458333Y-121588152D01*
X100458333Y-121588152D02*
X100410714Y-121683390D01*
X100410714Y-121683390D02*
X100363095Y-121731009D01*
X100363095Y-121731009D02*
X100267857Y-121778628D01*
X100267857Y-121778628D02*
X99886905Y-121778628D01*
X100934524Y-122254819D02*
X101125000Y-122254819D01*
X101125000Y-122254819D02*
X101220238Y-122207200D01*
X101220238Y-122207200D02*
X101267857Y-122159580D01*
X101267857Y-122159580D02*
X101363095Y-122016723D01*
X101363095Y-122016723D02*
X101410714Y-121826247D01*
X101410714Y-121826247D02*
X101410714Y-121445295D01*
X101410714Y-121445295D02*
X101363095Y-121350057D01*
X101363095Y-121350057D02*
X101315476Y-121302438D01*
X101315476Y-121302438D02*
X101220238Y-121254819D01*
X101220238Y-121254819D02*
X101029762Y-121254819D01*
X101029762Y-121254819D02*
X100934524Y-121302438D01*
X100934524Y-121302438D02*
X100886905Y-121350057D01*
X100886905Y-121350057D02*
X100839286Y-121445295D01*
X100839286Y-121445295D02*
X100839286Y-121683390D01*
X100839286Y-121683390D02*
X100886905Y-121778628D01*
X100886905Y-121778628D02*
X100934524Y-121826247D01*
X100934524Y-121826247D02*
X101029762Y-121873866D01*
X101029762Y-121873866D02*
X101220238Y-121873866D01*
X101220238Y-121873866D02*
X101315476Y-121826247D01*
X101315476Y-121826247D02*
X101363095Y-121778628D01*
X101363095Y-121778628D02*
X101410714Y-121683390D01*
X80795833Y-145149580D02*
X80748214Y-145197200D01*
X80748214Y-145197200D02*
X80605357Y-145244819D01*
X80605357Y-145244819D02*
X80510119Y-145244819D01*
X80510119Y-145244819D02*
X80367262Y-145197200D01*
X80367262Y-145197200D02*
X80272024Y-145101961D01*
X80272024Y-145101961D02*
X80224405Y-145006723D01*
X80224405Y-145006723D02*
X80176786Y-144816247D01*
X80176786Y-144816247D02*
X80176786Y-144673390D01*
X80176786Y-144673390D02*
X80224405Y-144482914D01*
X80224405Y-144482914D02*
X80272024Y-144387676D01*
X80272024Y-144387676D02*
X80367262Y-144292438D01*
X80367262Y-144292438D02*
X80510119Y-144244819D01*
X80510119Y-144244819D02*
X80605357Y-144244819D01*
X80605357Y-144244819D02*
X80748214Y-144292438D01*
X80748214Y-144292438D02*
X80795833Y-144340057D01*
X81367262Y-144673390D02*
X81272024Y-144625771D01*
X81272024Y-144625771D02*
X81224405Y-144578152D01*
X81224405Y-144578152D02*
X81176786Y-144482914D01*
X81176786Y-144482914D02*
X81176786Y-144435295D01*
X81176786Y-144435295D02*
X81224405Y-144340057D01*
X81224405Y-144340057D02*
X81272024Y-144292438D01*
X81272024Y-144292438D02*
X81367262Y-144244819D01*
X81367262Y-144244819D02*
X81557738Y-144244819D01*
X81557738Y-144244819D02*
X81652976Y-144292438D01*
X81652976Y-144292438D02*
X81700595Y-144340057D01*
X81700595Y-144340057D02*
X81748214Y-144435295D01*
X81748214Y-144435295D02*
X81748214Y-144482914D01*
X81748214Y-144482914D02*
X81700595Y-144578152D01*
X81700595Y-144578152D02*
X81652976Y-144625771D01*
X81652976Y-144625771D02*
X81557738Y-144673390D01*
X81557738Y-144673390D02*
X81367262Y-144673390D01*
X81367262Y-144673390D02*
X81272024Y-144721009D01*
X81272024Y-144721009D02*
X81224405Y-144768628D01*
X81224405Y-144768628D02*
X81176786Y-144863866D01*
X81176786Y-144863866D02*
X81176786Y-145054342D01*
X81176786Y-145054342D02*
X81224405Y-145149580D01*
X81224405Y-145149580D02*
X81272024Y-145197200D01*
X81272024Y-145197200D02*
X81367262Y-145244819D01*
X81367262Y-145244819D02*
X81557738Y-145244819D01*
X81557738Y-145244819D02*
X81652976Y-145197200D01*
X81652976Y-145197200D02*
X81700595Y-145149580D01*
X81700595Y-145149580D02*
X81748214Y-145054342D01*
X81748214Y-145054342D02*
X81748214Y-144863866D01*
X81748214Y-144863866D02*
X81700595Y-144768628D01*
X81700595Y-144768628D02*
X81652976Y-144721009D01*
X81652976Y-144721009D02*
X81557738Y-144673390D01*
X97034819Y-107033333D02*
X97749104Y-107033333D01*
X97749104Y-107033333D02*
X97891961Y-107080952D01*
X97891961Y-107080952D02*
X97987200Y-107176190D01*
X97987200Y-107176190D02*
X98034819Y-107319047D01*
X98034819Y-107319047D02*
X98034819Y-107414285D01*
X97034819Y-106652380D02*
X97034819Y-105985714D01*
X97034819Y-105985714D02*
X98034819Y-106414285D01*
X86857142Y-113254819D02*
X86523809Y-112778628D01*
X86285714Y-113254819D02*
X86285714Y-112254819D01*
X86285714Y-112254819D02*
X86666666Y-112254819D01*
X86666666Y-112254819D02*
X86761904Y-112302438D01*
X86761904Y-112302438D02*
X86809523Y-112350057D01*
X86809523Y-112350057D02*
X86857142Y-112445295D01*
X86857142Y-112445295D02*
X86857142Y-112588152D01*
X86857142Y-112588152D02*
X86809523Y-112683390D01*
X86809523Y-112683390D02*
X86761904Y-112731009D01*
X86761904Y-112731009D02*
X86666666Y-112778628D01*
X86666666Y-112778628D02*
X86285714Y-112778628D01*
X87809523Y-113254819D02*
X87238095Y-113254819D01*
X87523809Y-113254819D02*
X87523809Y-112254819D01*
X87523809Y-112254819D02*
X87428571Y-112397676D01*
X87428571Y-112397676D02*
X87333333Y-112492914D01*
X87333333Y-112492914D02*
X87238095Y-112540533D01*
X88428571Y-112254819D02*
X88523809Y-112254819D01*
X88523809Y-112254819D02*
X88619047Y-112302438D01*
X88619047Y-112302438D02*
X88666666Y-112350057D01*
X88666666Y-112350057D02*
X88714285Y-112445295D01*
X88714285Y-112445295D02*
X88761904Y-112635771D01*
X88761904Y-112635771D02*
X88761904Y-112873866D01*
X88761904Y-112873866D02*
X88714285Y-113064342D01*
X88714285Y-113064342D02*
X88666666Y-113159580D01*
X88666666Y-113159580D02*
X88619047Y-113207200D01*
X88619047Y-113207200D02*
X88523809Y-113254819D01*
X88523809Y-113254819D02*
X88428571Y-113254819D01*
X88428571Y-113254819D02*
X88333333Y-113207200D01*
X88333333Y-113207200D02*
X88285714Y-113159580D01*
X88285714Y-113159580D02*
X88238095Y-113064342D01*
X88238095Y-113064342D02*
X88190476Y-112873866D01*
X88190476Y-112873866D02*
X88190476Y-112635771D01*
X88190476Y-112635771D02*
X88238095Y-112445295D01*
X88238095Y-112445295D02*
X88285714Y-112350057D01*
X88285714Y-112350057D02*
X88333333Y-112302438D01*
X88333333Y-112302438D02*
X88428571Y-112254819D01*
D11*
X71913842Y-127893333D02*
X71974318Y-127711904D01*
X71974318Y-127711904D02*
X71974318Y-127409523D01*
X71974318Y-127409523D02*
X71913842Y-127288571D01*
X71913842Y-127288571D02*
X71853365Y-127228095D01*
X71853365Y-127228095D02*
X71732413Y-127167618D01*
X71732413Y-127167618D02*
X71611461Y-127167618D01*
X71611461Y-127167618D02*
X71490508Y-127228095D01*
X71490508Y-127228095D02*
X71430032Y-127288571D01*
X71430032Y-127288571D02*
X71369556Y-127409523D01*
X71369556Y-127409523D02*
X71309080Y-127651428D01*
X71309080Y-127651428D02*
X71248603Y-127772380D01*
X71248603Y-127772380D02*
X71188127Y-127832857D01*
X71188127Y-127832857D02*
X71067175Y-127893333D01*
X71067175Y-127893333D02*
X70946222Y-127893333D01*
X70946222Y-127893333D02*
X70825270Y-127832857D01*
X70825270Y-127832857D02*
X70764794Y-127772380D01*
X70764794Y-127772380D02*
X70704318Y-127651428D01*
X70704318Y-127651428D02*
X70704318Y-127349047D01*
X70704318Y-127349047D02*
X70764794Y-127167618D01*
X70704318Y-126744285D02*
X71974318Y-126441904D01*
X71974318Y-126441904D02*
X71067175Y-126199999D01*
X71067175Y-126199999D02*
X71974318Y-125958094D01*
X71974318Y-125958094D02*
X70704318Y-125655714D01*
X71974318Y-124506665D02*
X71974318Y-125232380D01*
X71974318Y-124869523D02*
X70704318Y-124869523D01*
X70704318Y-124869523D02*
X70885746Y-124990475D01*
X70885746Y-124990475D02*
X71006699Y-125111427D01*
X71006699Y-125111427D02*
X71067175Y-125232380D01*
D10*
X75648809Y-125241128D02*
X75648809Y-125717319D01*
X75315476Y-124717319D02*
X75648809Y-125241128D01*
X75648809Y-125241128D02*
X75982142Y-124717319D01*
X76839285Y-125717319D02*
X76267857Y-125717319D01*
X76553571Y-125717319D02*
X76553571Y-124717319D01*
X76553571Y-124717319D02*
X76458333Y-124860176D01*
X76458333Y-124860176D02*
X76363095Y-124955414D01*
X76363095Y-124955414D02*
X76267857Y-125003033D01*
X105761905Y-157154819D02*
X105761905Y-156154819D01*
X105761905Y-156154819D02*
X106000000Y-156154819D01*
X106000000Y-156154819D02*
X106142857Y-156202438D01*
X106142857Y-156202438D02*
X106238095Y-156297676D01*
X106238095Y-156297676D02*
X106285714Y-156392914D01*
X106285714Y-156392914D02*
X106333333Y-156583390D01*
X106333333Y-156583390D02*
X106333333Y-156726247D01*
X106333333Y-156726247D02*
X106285714Y-156916723D01*
X106285714Y-156916723D02*
X106238095Y-157011961D01*
X106238095Y-157011961D02*
X106142857Y-157107200D01*
X106142857Y-157107200D02*
X106000000Y-157154819D01*
X106000000Y-157154819D02*
X105761905Y-157154819D01*
X106714286Y-156250057D02*
X106761905Y-156202438D01*
X106761905Y-156202438D02*
X106857143Y-156154819D01*
X106857143Y-156154819D02*
X107095238Y-156154819D01*
X107095238Y-156154819D02*
X107190476Y-156202438D01*
X107190476Y-156202438D02*
X107238095Y-156250057D01*
X107238095Y-156250057D02*
X107285714Y-156345295D01*
X107285714Y-156345295D02*
X107285714Y-156440533D01*
X107285714Y-156440533D02*
X107238095Y-156583390D01*
X107238095Y-156583390D02*
X106666667Y-157154819D01*
X106666667Y-157154819D02*
X107285714Y-157154819D01*
X115641666Y-134854819D02*
X115641666Y-135569104D01*
X115641666Y-135569104D02*
X115594047Y-135711961D01*
X115594047Y-135711961D02*
X115498809Y-135807200D01*
X115498809Y-135807200D02*
X115355952Y-135854819D01*
X115355952Y-135854819D02*
X115260714Y-135854819D01*
X116260714Y-135283390D02*
X116165476Y-135235771D01*
X116165476Y-135235771D02*
X116117857Y-135188152D01*
X116117857Y-135188152D02*
X116070238Y-135092914D01*
X116070238Y-135092914D02*
X116070238Y-135045295D01*
X116070238Y-135045295D02*
X116117857Y-134950057D01*
X116117857Y-134950057D02*
X116165476Y-134902438D01*
X116165476Y-134902438D02*
X116260714Y-134854819D01*
X116260714Y-134854819D02*
X116451190Y-134854819D01*
X116451190Y-134854819D02*
X116546428Y-134902438D01*
X116546428Y-134902438D02*
X116594047Y-134950057D01*
X116594047Y-134950057D02*
X116641666Y-135045295D01*
X116641666Y-135045295D02*
X116641666Y-135092914D01*
X116641666Y-135092914D02*
X116594047Y-135188152D01*
X116594047Y-135188152D02*
X116546428Y-135235771D01*
X116546428Y-135235771D02*
X116451190Y-135283390D01*
X116451190Y-135283390D02*
X116260714Y-135283390D01*
X116260714Y-135283390D02*
X116165476Y-135331009D01*
X116165476Y-135331009D02*
X116117857Y-135378628D01*
X116117857Y-135378628D02*
X116070238Y-135473866D01*
X116070238Y-135473866D02*
X116070238Y-135664342D01*
X116070238Y-135664342D02*
X116117857Y-135759580D01*
X116117857Y-135759580D02*
X116165476Y-135807200D01*
X116165476Y-135807200D02*
X116260714Y-135854819D01*
X116260714Y-135854819D02*
X116451190Y-135854819D01*
X116451190Y-135854819D02*
X116546428Y-135807200D01*
X116546428Y-135807200D02*
X116594047Y-135759580D01*
X116594047Y-135759580D02*
X116641666Y-135664342D01*
X116641666Y-135664342D02*
X116641666Y-135473866D01*
X116641666Y-135473866D02*
X116594047Y-135378628D01*
X116594047Y-135378628D02*
X116546428Y-135331009D01*
X116546428Y-135331009D02*
X116451190Y-135283390D01*
X114779819Y-125013333D02*
X115494104Y-125013333D01*
X115494104Y-125013333D02*
X115636961Y-125060952D01*
X115636961Y-125060952D02*
X115732200Y-125156190D01*
X115732200Y-125156190D02*
X115779819Y-125299047D01*
X115779819Y-125299047D02*
X115779819Y-125394285D01*
X115779819Y-124489523D02*
X115779819Y-124299047D01*
X115779819Y-124299047D02*
X115732200Y-124203809D01*
X115732200Y-124203809D02*
X115684580Y-124156190D01*
X115684580Y-124156190D02*
X115541723Y-124060952D01*
X115541723Y-124060952D02*
X115351247Y-124013333D01*
X115351247Y-124013333D02*
X114970295Y-124013333D01*
X114970295Y-124013333D02*
X114875057Y-124060952D01*
X114875057Y-124060952D02*
X114827438Y-124108571D01*
X114827438Y-124108571D02*
X114779819Y-124203809D01*
X114779819Y-124203809D02*
X114779819Y-124394285D01*
X114779819Y-124394285D02*
X114827438Y-124489523D01*
X114827438Y-124489523D02*
X114875057Y-124537142D01*
X114875057Y-124537142D02*
X114970295Y-124584761D01*
X114970295Y-124584761D02*
X115208390Y-124584761D01*
X115208390Y-124584761D02*
X115303628Y-124537142D01*
X115303628Y-124537142D02*
X115351247Y-124489523D01*
X115351247Y-124489523D02*
X115398866Y-124394285D01*
X115398866Y-124394285D02*
X115398866Y-124203809D01*
X115398866Y-124203809D02*
X115351247Y-124108571D01*
X115351247Y-124108571D02*
X115303628Y-124060952D01*
X115303628Y-124060952D02*
X115208390Y-124013333D01*
X89733333Y-138754819D02*
X89400000Y-138278628D01*
X89161905Y-138754819D02*
X89161905Y-137754819D01*
X89161905Y-137754819D02*
X89542857Y-137754819D01*
X89542857Y-137754819D02*
X89638095Y-137802438D01*
X89638095Y-137802438D02*
X89685714Y-137850057D01*
X89685714Y-137850057D02*
X89733333Y-137945295D01*
X89733333Y-137945295D02*
X89733333Y-138088152D01*
X89733333Y-138088152D02*
X89685714Y-138183390D01*
X89685714Y-138183390D02*
X89638095Y-138231009D01*
X89638095Y-138231009D02*
X89542857Y-138278628D01*
X89542857Y-138278628D02*
X89161905Y-138278628D01*
X90685714Y-138754819D02*
X90114286Y-138754819D01*
X90400000Y-138754819D02*
X90400000Y-137754819D01*
X90400000Y-137754819D02*
X90304762Y-137897676D01*
X90304762Y-137897676D02*
X90209524Y-137992914D01*
X90209524Y-137992914D02*
X90114286Y-138040533D01*
X99833333Y-133259580D02*
X99785714Y-133307200D01*
X99785714Y-133307200D02*
X99642857Y-133354819D01*
X99642857Y-133354819D02*
X99547619Y-133354819D01*
X99547619Y-133354819D02*
X99404762Y-133307200D01*
X99404762Y-133307200D02*
X99309524Y-133211961D01*
X99309524Y-133211961D02*
X99261905Y-133116723D01*
X99261905Y-133116723D02*
X99214286Y-132926247D01*
X99214286Y-132926247D02*
X99214286Y-132783390D01*
X99214286Y-132783390D02*
X99261905Y-132592914D01*
X99261905Y-132592914D02*
X99309524Y-132497676D01*
X99309524Y-132497676D02*
X99404762Y-132402438D01*
X99404762Y-132402438D02*
X99547619Y-132354819D01*
X99547619Y-132354819D02*
X99642857Y-132354819D01*
X99642857Y-132354819D02*
X99785714Y-132402438D01*
X99785714Y-132402438D02*
X99833333Y-132450057D01*
X100166667Y-132354819D02*
X100785714Y-132354819D01*
X100785714Y-132354819D02*
X100452381Y-132735771D01*
X100452381Y-132735771D02*
X100595238Y-132735771D01*
X100595238Y-132735771D02*
X100690476Y-132783390D01*
X100690476Y-132783390D02*
X100738095Y-132831009D01*
X100738095Y-132831009D02*
X100785714Y-132926247D01*
X100785714Y-132926247D02*
X100785714Y-133164342D01*
X100785714Y-133164342D02*
X100738095Y-133259580D01*
X100738095Y-133259580D02*
X100690476Y-133307200D01*
X100690476Y-133307200D02*
X100595238Y-133354819D01*
X100595238Y-133354819D02*
X100309524Y-133354819D01*
X100309524Y-133354819D02*
X100214286Y-133307200D01*
X100214286Y-133307200D02*
X100166667Y-133259580D01*
X90063095Y-125804819D02*
X90063095Y-126614342D01*
X90063095Y-126614342D02*
X90110714Y-126709580D01*
X90110714Y-126709580D02*
X90158333Y-126757200D01*
X90158333Y-126757200D02*
X90253571Y-126804819D01*
X90253571Y-126804819D02*
X90444047Y-126804819D01*
X90444047Y-126804819D02*
X90539285Y-126757200D01*
X90539285Y-126757200D02*
X90586904Y-126709580D01*
X90586904Y-126709580D02*
X90634523Y-126614342D01*
X90634523Y-126614342D02*
X90634523Y-125804819D01*
X91634523Y-126804819D02*
X91063095Y-126804819D01*
X91348809Y-126804819D02*
X91348809Y-125804819D01*
X91348809Y-125804819D02*
X91253571Y-125947676D01*
X91253571Y-125947676D02*
X91158333Y-126042914D01*
X91158333Y-126042914D02*
X91063095Y-126090533D01*
X97857142Y-144759580D02*
X97809523Y-144807200D01*
X97809523Y-144807200D02*
X97666666Y-144854819D01*
X97666666Y-144854819D02*
X97571428Y-144854819D01*
X97571428Y-144854819D02*
X97428571Y-144807200D01*
X97428571Y-144807200D02*
X97333333Y-144711961D01*
X97333333Y-144711961D02*
X97285714Y-144616723D01*
X97285714Y-144616723D02*
X97238095Y-144426247D01*
X97238095Y-144426247D02*
X97238095Y-144283390D01*
X97238095Y-144283390D02*
X97285714Y-144092914D01*
X97285714Y-144092914D02*
X97333333Y-143997676D01*
X97333333Y-143997676D02*
X97428571Y-143902438D01*
X97428571Y-143902438D02*
X97571428Y-143854819D01*
X97571428Y-143854819D02*
X97666666Y-143854819D01*
X97666666Y-143854819D02*
X97809523Y-143902438D01*
X97809523Y-143902438D02*
X97857142Y-143950057D01*
X98809523Y-144854819D02*
X98238095Y-144854819D01*
X98523809Y-144854819D02*
X98523809Y-143854819D01*
X98523809Y-143854819D02*
X98428571Y-143997676D01*
X98428571Y-143997676D02*
X98333333Y-144092914D01*
X98333333Y-144092914D02*
X98238095Y-144140533D01*
X99190476Y-143950057D02*
X99238095Y-143902438D01*
X99238095Y-143902438D02*
X99333333Y-143854819D01*
X99333333Y-143854819D02*
X99571428Y-143854819D01*
X99571428Y-143854819D02*
X99666666Y-143902438D01*
X99666666Y-143902438D02*
X99714285Y-143950057D01*
X99714285Y-143950057D02*
X99761904Y-144045295D01*
X99761904Y-144045295D02*
X99761904Y-144140533D01*
X99761904Y-144140533D02*
X99714285Y-144283390D01*
X99714285Y-144283390D02*
X99142857Y-144854819D01*
X99142857Y-144854819D02*
X99761904Y-144854819D01*
X75238095Y-139554819D02*
X75238095Y-140364342D01*
X75238095Y-140364342D02*
X75285714Y-140459580D01*
X75285714Y-140459580D02*
X75333333Y-140507200D01*
X75333333Y-140507200D02*
X75428571Y-140554819D01*
X75428571Y-140554819D02*
X75619047Y-140554819D01*
X75619047Y-140554819D02*
X75714285Y-140507200D01*
X75714285Y-140507200D02*
X75761904Y-140459580D01*
X75761904Y-140459580D02*
X75809523Y-140364342D01*
X75809523Y-140364342D02*
X75809523Y-139554819D01*
X76714285Y-139888152D02*
X76714285Y-140554819D01*
X76476190Y-139507200D02*
X76238095Y-140221485D01*
X76238095Y-140221485D02*
X76857142Y-140221485D01*
X115733333Y-118354819D02*
X115400000Y-117878628D01*
X115161905Y-118354819D02*
X115161905Y-117354819D01*
X115161905Y-117354819D02*
X115542857Y-117354819D01*
X115542857Y-117354819D02*
X115638095Y-117402438D01*
X115638095Y-117402438D02*
X115685714Y-117450057D01*
X115685714Y-117450057D02*
X115733333Y-117545295D01*
X115733333Y-117545295D02*
X115733333Y-117688152D01*
X115733333Y-117688152D02*
X115685714Y-117783390D01*
X115685714Y-117783390D02*
X115638095Y-117831009D01*
X115638095Y-117831009D02*
X115542857Y-117878628D01*
X115542857Y-117878628D02*
X115161905Y-117878628D01*
X116066667Y-117354819D02*
X116685714Y-117354819D01*
X116685714Y-117354819D02*
X116352381Y-117735771D01*
X116352381Y-117735771D02*
X116495238Y-117735771D01*
X116495238Y-117735771D02*
X116590476Y-117783390D01*
X116590476Y-117783390D02*
X116638095Y-117831009D01*
X116638095Y-117831009D02*
X116685714Y-117926247D01*
X116685714Y-117926247D02*
X116685714Y-118164342D01*
X116685714Y-118164342D02*
X116638095Y-118259580D01*
X116638095Y-118259580D02*
X116590476Y-118307200D01*
X116590476Y-118307200D02*
X116495238Y-118354819D01*
X116495238Y-118354819D02*
X116209524Y-118354819D01*
X116209524Y-118354819D02*
X116114286Y-118307200D01*
X116114286Y-118307200D02*
X116066667Y-118259580D01*
X75259580Y-149742857D02*
X75307200Y-149790476D01*
X75307200Y-149790476D02*
X75354819Y-149933333D01*
X75354819Y-149933333D02*
X75354819Y-150028571D01*
X75354819Y-150028571D02*
X75307200Y-150171428D01*
X75307200Y-150171428D02*
X75211961Y-150266666D01*
X75211961Y-150266666D02*
X75116723Y-150314285D01*
X75116723Y-150314285D02*
X74926247Y-150361904D01*
X74926247Y-150361904D02*
X74783390Y-150361904D01*
X74783390Y-150361904D02*
X74592914Y-150314285D01*
X74592914Y-150314285D02*
X74497676Y-150266666D01*
X74497676Y-150266666D02*
X74402438Y-150171428D01*
X74402438Y-150171428D02*
X74354819Y-150028571D01*
X74354819Y-150028571D02*
X74354819Y-149933333D01*
X74354819Y-149933333D02*
X74402438Y-149790476D01*
X74402438Y-149790476D02*
X74450057Y-149742857D01*
X75354819Y-148790476D02*
X75354819Y-149361904D01*
X75354819Y-149076190D02*
X74354819Y-149076190D01*
X74354819Y-149076190D02*
X74497676Y-149171428D01*
X74497676Y-149171428D02*
X74592914Y-149266666D01*
X74592914Y-149266666D02*
X74640533Y-149361904D01*
X74354819Y-147933333D02*
X74354819Y-148123809D01*
X74354819Y-148123809D02*
X74402438Y-148219047D01*
X74402438Y-148219047D02*
X74450057Y-148266666D01*
X74450057Y-148266666D02*
X74592914Y-148361904D01*
X74592914Y-148361904D02*
X74783390Y-148409523D01*
X74783390Y-148409523D02*
X75164342Y-148409523D01*
X75164342Y-148409523D02*
X75259580Y-148361904D01*
X75259580Y-148361904D02*
X75307200Y-148314285D01*
X75307200Y-148314285D02*
X75354819Y-148219047D01*
X75354819Y-148219047D02*
X75354819Y-148028571D01*
X75354819Y-148028571D02*
X75307200Y-147933333D01*
X75307200Y-147933333D02*
X75259580Y-147885714D01*
X75259580Y-147885714D02*
X75164342Y-147838095D01*
X75164342Y-147838095D02*
X74926247Y-147838095D01*
X74926247Y-147838095D02*
X74831009Y-147885714D01*
X74831009Y-147885714D02*
X74783390Y-147933333D01*
X74783390Y-147933333D02*
X74735771Y-148028571D01*
X74735771Y-148028571D02*
X74735771Y-148219047D01*
X74735771Y-148219047D02*
X74783390Y-148314285D01*
X74783390Y-148314285D02*
X74831009Y-148361904D01*
X74831009Y-148361904D02*
X74926247Y-148409523D01*
X97433333Y-142604819D02*
X97100000Y-142128628D01*
X96861905Y-142604819D02*
X96861905Y-141604819D01*
X96861905Y-141604819D02*
X97242857Y-141604819D01*
X97242857Y-141604819D02*
X97338095Y-141652438D01*
X97338095Y-141652438D02*
X97385714Y-141700057D01*
X97385714Y-141700057D02*
X97433333Y-141795295D01*
X97433333Y-141795295D02*
X97433333Y-141938152D01*
X97433333Y-141938152D02*
X97385714Y-142033390D01*
X97385714Y-142033390D02*
X97338095Y-142081009D01*
X97338095Y-142081009D02*
X97242857Y-142128628D01*
X97242857Y-142128628D02*
X96861905Y-142128628D01*
X98290476Y-141938152D02*
X98290476Y-142604819D01*
X98052381Y-141557200D02*
X97814286Y-142271485D01*
X97814286Y-142271485D02*
X98433333Y-142271485D01*
X94157142Y-144697080D02*
X94109523Y-144744700D01*
X94109523Y-144744700D02*
X93966666Y-144792319D01*
X93966666Y-144792319D02*
X93871428Y-144792319D01*
X93871428Y-144792319D02*
X93728571Y-144744700D01*
X93728571Y-144744700D02*
X93633333Y-144649461D01*
X93633333Y-144649461D02*
X93585714Y-144554223D01*
X93585714Y-144554223D02*
X93538095Y-144363747D01*
X93538095Y-144363747D02*
X93538095Y-144220890D01*
X93538095Y-144220890D02*
X93585714Y-144030414D01*
X93585714Y-144030414D02*
X93633333Y-143935176D01*
X93633333Y-143935176D02*
X93728571Y-143839938D01*
X93728571Y-143839938D02*
X93871428Y-143792319D01*
X93871428Y-143792319D02*
X93966666Y-143792319D01*
X93966666Y-143792319D02*
X94109523Y-143839938D01*
X94109523Y-143839938D02*
X94157142Y-143887557D01*
X95109523Y-144792319D02*
X94538095Y-144792319D01*
X94823809Y-144792319D02*
X94823809Y-143792319D01*
X94823809Y-143792319D02*
X94728571Y-143935176D01*
X94728571Y-143935176D02*
X94633333Y-144030414D01*
X94633333Y-144030414D02*
X94538095Y-144078033D01*
X95442857Y-143792319D02*
X96061904Y-143792319D01*
X96061904Y-143792319D02*
X95728571Y-144173271D01*
X95728571Y-144173271D02*
X95871428Y-144173271D01*
X95871428Y-144173271D02*
X95966666Y-144220890D01*
X95966666Y-144220890D02*
X96014285Y-144268509D01*
X96014285Y-144268509D02*
X96061904Y-144363747D01*
X96061904Y-144363747D02*
X96061904Y-144601842D01*
X96061904Y-144601842D02*
X96014285Y-144697080D01*
X96014285Y-144697080D02*
X95966666Y-144744700D01*
X95966666Y-144744700D02*
X95871428Y-144792319D01*
X95871428Y-144792319D02*
X95585714Y-144792319D01*
X95585714Y-144792319D02*
X95490476Y-144744700D01*
X95490476Y-144744700D02*
X95442857Y-144697080D01*
X89866666Y-111554819D02*
X89866666Y-112269104D01*
X89866666Y-112269104D02*
X89819047Y-112411961D01*
X89819047Y-112411961D02*
X89723809Y-112507200D01*
X89723809Y-112507200D02*
X89580952Y-112554819D01*
X89580952Y-112554819D02*
X89485714Y-112554819D01*
X90771428Y-111554819D02*
X90580952Y-111554819D01*
X90580952Y-111554819D02*
X90485714Y-111602438D01*
X90485714Y-111602438D02*
X90438095Y-111650057D01*
X90438095Y-111650057D02*
X90342857Y-111792914D01*
X90342857Y-111792914D02*
X90295238Y-111983390D01*
X90295238Y-111983390D02*
X90295238Y-112364342D01*
X90295238Y-112364342D02*
X90342857Y-112459580D01*
X90342857Y-112459580D02*
X90390476Y-112507200D01*
X90390476Y-112507200D02*
X90485714Y-112554819D01*
X90485714Y-112554819D02*
X90676190Y-112554819D01*
X90676190Y-112554819D02*
X90771428Y-112507200D01*
X90771428Y-112507200D02*
X90819047Y-112459580D01*
X90819047Y-112459580D02*
X90866666Y-112364342D01*
X90866666Y-112364342D02*
X90866666Y-112126247D01*
X90866666Y-112126247D02*
X90819047Y-112031009D01*
X90819047Y-112031009D02*
X90771428Y-111983390D01*
X90771428Y-111983390D02*
X90676190Y-111935771D01*
X90676190Y-111935771D02*
X90485714Y-111935771D01*
X90485714Y-111935771D02*
X90390476Y-111983390D01*
X90390476Y-111983390D02*
X90342857Y-112031009D01*
X90342857Y-112031009D02*
X90295238Y-112126247D01*
X83733333Y-145259580D02*
X83685714Y-145307200D01*
X83685714Y-145307200D02*
X83542857Y-145354819D01*
X83542857Y-145354819D02*
X83447619Y-145354819D01*
X83447619Y-145354819D02*
X83304762Y-145307200D01*
X83304762Y-145307200D02*
X83209524Y-145211961D01*
X83209524Y-145211961D02*
X83161905Y-145116723D01*
X83161905Y-145116723D02*
X83114286Y-144926247D01*
X83114286Y-144926247D02*
X83114286Y-144783390D01*
X83114286Y-144783390D02*
X83161905Y-144592914D01*
X83161905Y-144592914D02*
X83209524Y-144497676D01*
X83209524Y-144497676D02*
X83304762Y-144402438D01*
X83304762Y-144402438D02*
X83447619Y-144354819D01*
X83447619Y-144354819D02*
X83542857Y-144354819D01*
X83542857Y-144354819D02*
X83685714Y-144402438D01*
X83685714Y-144402438D02*
X83733333Y-144450057D01*
X84209524Y-145354819D02*
X84400000Y-145354819D01*
X84400000Y-145354819D02*
X84495238Y-145307200D01*
X84495238Y-145307200D02*
X84542857Y-145259580D01*
X84542857Y-145259580D02*
X84638095Y-145116723D01*
X84638095Y-145116723D02*
X84685714Y-144926247D01*
X84685714Y-144926247D02*
X84685714Y-144545295D01*
X84685714Y-144545295D02*
X84638095Y-144450057D01*
X84638095Y-144450057D02*
X84590476Y-144402438D01*
X84590476Y-144402438D02*
X84495238Y-144354819D01*
X84495238Y-144354819D02*
X84304762Y-144354819D01*
X84304762Y-144354819D02*
X84209524Y-144402438D01*
X84209524Y-144402438D02*
X84161905Y-144450057D01*
X84161905Y-144450057D02*
X84114286Y-144545295D01*
X84114286Y-144545295D02*
X84114286Y-144783390D01*
X84114286Y-144783390D02*
X84161905Y-144878628D01*
X84161905Y-144878628D02*
X84209524Y-144926247D01*
X84209524Y-144926247D02*
X84304762Y-144973866D01*
X84304762Y-144973866D02*
X84495238Y-144973866D01*
X84495238Y-144973866D02*
X84590476Y-144926247D01*
X84590476Y-144926247D02*
X84638095Y-144878628D01*
X84638095Y-144878628D02*
X84685714Y-144783390D01*
X78619642Y-130212080D02*
X78572023Y-130259700D01*
X78572023Y-130259700D02*
X78429166Y-130307319D01*
X78429166Y-130307319D02*
X78333928Y-130307319D01*
X78333928Y-130307319D02*
X78191071Y-130259700D01*
X78191071Y-130259700D02*
X78095833Y-130164461D01*
X78095833Y-130164461D02*
X78048214Y-130069223D01*
X78048214Y-130069223D02*
X78000595Y-129878747D01*
X78000595Y-129878747D02*
X78000595Y-129735890D01*
X78000595Y-129735890D02*
X78048214Y-129545414D01*
X78048214Y-129545414D02*
X78095833Y-129450176D01*
X78095833Y-129450176D02*
X78191071Y-129354938D01*
X78191071Y-129354938D02*
X78333928Y-129307319D01*
X78333928Y-129307319D02*
X78429166Y-129307319D01*
X78429166Y-129307319D02*
X78572023Y-129354938D01*
X78572023Y-129354938D02*
X78619642Y-129402557D01*
X79000595Y-129402557D02*
X79048214Y-129354938D01*
X79048214Y-129354938D02*
X79143452Y-129307319D01*
X79143452Y-129307319D02*
X79381547Y-129307319D01*
X79381547Y-129307319D02*
X79476785Y-129354938D01*
X79476785Y-129354938D02*
X79524404Y-129402557D01*
X79524404Y-129402557D02*
X79572023Y-129497795D01*
X79572023Y-129497795D02*
X79572023Y-129593033D01*
X79572023Y-129593033D02*
X79524404Y-129735890D01*
X79524404Y-129735890D02*
X78952976Y-130307319D01*
X78952976Y-130307319D02*
X79572023Y-130307319D01*
X80524404Y-130307319D02*
X79952976Y-130307319D01*
X80238690Y-130307319D02*
X80238690Y-129307319D01*
X80238690Y-129307319D02*
X80143452Y-129450176D01*
X80143452Y-129450176D02*
X80048214Y-129545414D01*
X80048214Y-129545414D02*
X79952976Y-129593033D01*
X68566666Y-105754819D02*
X68566666Y-106469104D01*
X68566666Y-106469104D02*
X68519047Y-106611961D01*
X68519047Y-106611961D02*
X68423809Y-106707200D01*
X68423809Y-106707200D02*
X68280952Y-106754819D01*
X68280952Y-106754819D02*
X68185714Y-106754819D01*
X69471428Y-106088152D02*
X69471428Y-106754819D01*
X69233333Y-105707200D02*
X68995238Y-106421485D01*
X68995238Y-106421485D02*
X69614285Y-106421485D01*
X81333333Y-117859580D02*
X81285714Y-117907200D01*
X81285714Y-117907200D02*
X81142857Y-117954819D01*
X81142857Y-117954819D02*
X81047619Y-117954819D01*
X81047619Y-117954819D02*
X80904762Y-117907200D01*
X80904762Y-117907200D02*
X80809524Y-117811961D01*
X80809524Y-117811961D02*
X80761905Y-117716723D01*
X80761905Y-117716723D02*
X80714286Y-117526247D01*
X80714286Y-117526247D02*
X80714286Y-117383390D01*
X80714286Y-117383390D02*
X80761905Y-117192914D01*
X80761905Y-117192914D02*
X80809524Y-117097676D01*
X80809524Y-117097676D02*
X80904762Y-117002438D01*
X80904762Y-117002438D02*
X81047619Y-116954819D01*
X81047619Y-116954819D02*
X81142857Y-116954819D01*
X81142857Y-116954819D02*
X81285714Y-117002438D01*
X81285714Y-117002438D02*
X81333333Y-117050057D01*
X81714286Y-117050057D02*
X81761905Y-117002438D01*
X81761905Y-117002438D02*
X81857143Y-116954819D01*
X81857143Y-116954819D02*
X82095238Y-116954819D01*
X82095238Y-116954819D02*
X82190476Y-117002438D01*
X82190476Y-117002438D02*
X82238095Y-117050057D01*
X82238095Y-117050057D02*
X82285714Y-117145295D01*
X82285714Y-117145295D02*
X82285714Y-117240533D01*
X82285714Y-117240533D02*
X82238095Y-117383390D01*
X82238095Y-117383390D02*
X81666667Y-117954819D01*
X81666667Y-117954819D02*
X82285714Y-117954819D01*
X91661905Y-138754819D02*
X91661905Y-137754819D01*
X91661905Y-137754819D02*
X91900000Y-137754819D01*
X91900000Y-137754819D02*
X92042857Y-137802438D01*
X92042857Y-137802438D02*
X92138095Y-137897676D01*
X92138095Y-137897676D02*
X92185714Y-137992914D01*
X92185714Y-137992914D02*
X92233333Y-138183390D01*
X92233333Y-138183390D02*
X92233333Y-138326247D01*
X92233333Y-138326247D02*
X92185714Y-138516723D01*
X92185714Y-138516723D02*
X92138095Y-138611961D01*
X92138095Y-138611961D02*
X92042857Y-138707200D01*
X92042857Y-138707200D02*
X91900000Y-138754819D01*
X91900000Y-138754819D02*
X91661905Y-138754819D01*
X93090476Y-138088152D02*
X93090476Y-138754819D01*
X92852381Y-137707200D02*
X92614286Y-138421485D01*
X92614286Y-138421485D02*
X93233333Y-138421485D01*
X106333333Y-154854819D02*
X106000000Y-154378628D01*
X105761905Y-154854819D02*
X105761905Y-153854819D01*
X105761905Y-153854819D02*
X106142857Y-153854819D01*
X106142857Y-153854819D02*
X106238095Y-153902438D01*
X106238095Y-153902438D02*
X106285714Y-153950057D01*
X106285714Y-153950057D02*
X106333333Y-154045295D01*
X106333333Y-154045295D02*
X106333333Y-154188152D01*
X106333333Y-154188152D02*
X106285714Y-154283390D01*
X106285714Y-154283390D02*
X106238095Y-154331009D01*
X106238095Y-154331009D02*
X106142857Y-154378628D01*
X106142857Y-154378628D02*
X105761905Y-154378628D01*
X106714286Y-153950057D02*
X106761905Y-153902438D01*
X106761905Y-153902438D02*
X106857143Y-153854819D01*
X106857143Y-153854819D02*
X107095238Y-153854819D01*
X107095238Y-153854819D02*
X107190476Y-153902438D01*
X107190476Y-153902438D02*
X107238095Y-153950057D01*
X107238095Y-153950057D02*
X107285714Y-154045295D01*
X107285714Y-154045295D02*
X107285714Y-154140533D01*
X107285714Y-154140533D02*
X107238095Y-154283390D01*
X107238095Y-154283390D02*
X106666667Y-154854819D01*
X106666667Y-154854819D02*
X107285714Y-154854819D01*
X83233333Y-154859580D02*
X83185714Y-154907200D01*
X83185714Y-154907200D02*
X83042857Y-154954819D01*
X83042857Y-154954819D02*
X82947619Y-154954819D01*
X82947619Y-154954819D02*
X82804762Y-154907200D01*
X82804762Y-154907200D02*
X82709524Y-154811961D01*
X82709524Y-154811961D02*
X82661905Y-154716723D01*
X82661905Y-154716723D02*
X82614286Y-154526247D01*
X82614286Y-154526247D02*
X82614286Y-154383390D01*
X82614286Y-154383390D02*
X82661905Y-154192914D01*
X82661905Y-154192914D02*
X82709524Y-154097676D01*
X82709524Y-154097676D02*
X82804762Y-154002438D01*
X82804762Y-154002438D02*
X82947619Y-153954819D01*
X82947619Y-153954819D02*
X83042857Y-153954819D01*
X83042857Y-153954819D02*
X83185714Y-154002438D01*
X83185714Y-154002438D02*
X83233333Y-154050057D01*
X84090476Y-153954819D02*
X83900000Y-153954819D01*
X83900000Y-153954819D02*
X83804762Y-154002438D01*
X83804762Y-154002438D02*
X83757143Y-154050057D01*
X83757143Y-154050057D02*
X83661905Y-154192914D01*
X83661905Y-154192914D02*
X83614286Y-154383390D01*
X83614286Y-154383390D02*
X83614286Y-154764342D01*
X83614286Y-154764342D02*
X83661905Y-154859580D01*
X83661905Y-154859580D02*
X83709524Y-154907200D01*
X83709524Y-154907200D02*
X83804762Y-154954819D01*
X83804762Y-154954819D02*
X83995238Y-154954819D01*
X83995238Y-154954819D02*
X84090476Y-154907200D01*
X84090476Y-154907200D02*
X84138095Y-154859580D01*
X84138095Y-154859580D02*
X84185714Y-154764342D01*
X84185714Y-154764342D02*
X84185714Y-154526247D01*
X84185714Y-154526247D02*
X84138095Y-154431009D01*
X84138095Y-154431009D02*
X84090476Y-154383390D01*
X84090476Y-154383390D02*
X83995238Y-154335771D01*
X83995238Y-154335771D02*
X83804762Y-154335771D01*
X83804762Y-154335771D02*
X83709524Y-154383390D01*
X83709524Y-154383390D02*
X83661905Y-154431009D01*
X83661905Y-154431009D02*
X83614286Y-154526247D01*
X116666666Y-104554819D02*
X116666666Y-105269104D01*
X116666666Y-105269104D02*
X116619047Y-105411961D01*
X116619047Y-105411961D02*
X116523809Y-105507200D01*
X116523809Y-105507200D02*
X116380952Y-105554819D01*
X116380952Y-105554819D02*
X116285714Y-105554819D01*
X117619047Y-104554819D02*
X117142857Y-104554819D01*
X117142857Y-104554819D02*
X117095238Y-105031009D01*
X117095238Y-105031009D02*
X117142857Y-104983390D01*
X117142857Y-104983390D02*
X117238095Y-104935771D01*
X117238095Y-104935771D02*
X117476190Y-104935771D01*
X117476190Y-104935771D02*
X117571428Y-104983390D01*
X117571428Y-104983390D02*
X117619047Y-105031009D01*
X117619047Y-105031009D02*
X117666666Y-105126247D01*
X117666666Y-105126247D02*
X117666666Y-105364342D01*
X117666666Y-105364342D02*
X117619047Y-105459580D01*
X117619047Y-105459580D02*
X117571428Y-105507200D01*
X117571428Y-105507200D02*
X117476190Y-105554819D01*
X117476190Y-105554819D02*
X117238095Y-105554819D01*
X117238095Y-105554819D02*
X117142857Y-105507200D01*
X117142857Y-105507200D02*
X117095238Y-105459580D01*
X96836905Y-136654819D02*
X96836905Y-135654819D01*
X96836905Y-135654819D02*
X97075000Y-135654819D01*
X97075000Y-135654819D02*
X97217857Y-135702438D01*
X97217857Y-135702438D02*
X97313095Y-135797676D01*
X97313095Y-135797676D02*
X97360714Y-135892914D01*
X97360714Y-135892914D02*
X97408333Y-136083390D01*
X97408333Y-136083390D02*
X97408333Y-136226247D01*
X97408333Y-136226247D02*
X97360714Y-136416723D01*
X97360714Y-136416723D02*
X97313095Y-136511961D01*
X97313095Y-136511961D02*
X97217857Y-136607200D01*
X97217857Y-136607200D02*
X97075000Y-136654819D01*
X97075000Y-136654819D02*
X96836905Y-136654819D01*
X98360714Y-136654819D02*
X97789286Y-136654819D01*
X98075000Y-136654819D02*
X98075000Y-135654819D01*
X98075000Y-135654819D02*
X97979762Y-135797676D01*
X97979762Y-135797676D02*
X97884524Y-135892914D01*
X97884524Y-135892914D02*
X97789286Y-135940533D01*
X97233333Y-117859580D02*
X97185714Y-117907200D01*
X97185714Y-117907200D02*
X97042857Y-117954819D01*
X97042857Y-117954819D02*
X96947619Y-117954819D01*
X96947619Y-117954819D02*
X96804762Y-117907200D01*
X96804762Y-117907200D02*
X96709524Y-117811961D01*
X96709524Y-117811961D02*
X96661905Y-117716723D01*
X96661905Y-117716723D02*
X96614286Y-117526247D01*
X96614286Y-117526247D02*
X96614286Y-117383390D01*
X96614286Y-117383390D02*
X96661905Y-117192914D01*
X96661905Y-117192914D02*
X96709524Y-117097676D01*
X96709524Y-117097676D02*
X96804762Y-117002438D01*
X96804762Y-117002438D02*
X96947619Y-116954819D01*
X96947619Y-116954819D02*
X97042857Y-116954819D01*
X97042857Y-116954819D02*
X97185714Y-117002438D01*
X97185714Y-117002438D02*
X97233333Y-117050057D01*
X98090476Y-117288152D02*
X98090476Y-117954819D01*
X97852381Y-116907200D02*
X97614286Y-117621485D01*
X97614286Y-117621485D02*
X98233333Y-117621485D01*
%TO.C,R8*%
D12*
X100852064Y-124665000D02*
X100397936Y-124665000D01*
X100852064Y-126135000D02*
X100397936Y-126135000D01*
%TO.C,D5*%
X106000000Y-134560000D02*
X108860000Y-134560000D01*
X108860000Y-132640000D02*
X106000000Y-132640000D01*
X108860000Y-134560000D02*
X108860000Y-132640000D01*
%TO.C,C19*%
X86723752Y-133565000D02*
X86201248Y-133565000D01*
X86723752Y-135035000D02*
X86201248Y-135035000D01*
%TO.C,C7*%
X80365000Y-152023752D02*
X80365000Y-151501248D01*
X81835000Y-152023752D02*
X81835000Y-151501248D01*
%TO.C,J1*%
X70550000Y-155700000D02*
X71300000Y-155700000D01*
X71300000Y-152750000D02*
X74350000Y-152750000D01*
X71300000Y-155700000D02*
X71300000Y-152750000D01*
X77200000Y-158250000D02*
X78450000Y-158250000D01*
X77400000Y-152750000D02*
X74350000Y-152750000D01*
X77400000Y-155700000D02*
X77400000Y-152750000D01*
X78150000Y-155700000D02*
X77400000Y-155700000D01*
X78450000Y-158250000D02*
X78450000Y-157000000D01*
X70550000Y-157200000D02*
X72350000Y-157200000D01*
X72350000Y-157950000D01*
X70550000Y-157950000D01*
X70550000Y-157200000D01*
X73850000Y-157200000D02*
X74850000Y-157200000D01*
X74850000Y-157950000D01*
X73850000Y-157950000D01*
X73850000Y-157200000D01*
X76350000Y-157200000D02*
X78150000Y-157200000D01*
X78150000Y-157950000D01*
X76350000Y-157950000D01*
X76350000Y-157200000D01*
X70540000Y-151990000D02*
X78160000Y-151990000D01*
X78160000Y-157960000D01*
X70540000Y-157960000D01*
X70540000Y-151990000D01*
%TO.C,C18*%
X93861252Y-134365000D02*
X93338748Y-134365000D01*
X93861252Y-135835000D02*
X93338748Y-135835000D01*
%TO.C,C20*%
X79486252Y-121627500D02*
X78963748Y-121627500D01*
X79486252Y-123097500D02*
X78963748Y-123097500D01*
%TO.C,S1*%
D13*
X85775000Y-156300000D02*
X85775000Y-156800000D01*
X86100000Y-157925000D02*
X92100000Y-157925000D01*
X87850000Y-155175000D02*
X88900000Y-155175000D01*
X92425000Y-156300000D02*
X92425000Y-156800000D01*
D14*
X86900000Y-153150000D02*
G75*
G02*
X86700000Y-153150000I-100000J0D01*
G01*
X86700000Y-153150000D02*
G75*
G02*
X86900000Y-153150000I100000J0D01*
G01*
%TO.C,C11*%
D12*
X94465000Y-151698752D02*
X94465000Y-151176248D01*
X95935000Y-151698752D02*
X95935000Y-151176248D01*
%TO.C,J2*%
X63550000Y-140400000D02*
X63550000Y-141650000D01*
X63550000Y-141650000D02*
X64800000Y-141650000D01*
X66100000Y-133750000D02*
X66100000Y-134500000D01*
X66100000Y-134500000D02*
X69050000Y-134500000D01*
X66100000Y-140600000D02*
X69050000Y-140600000D01*
X66100000Y-141350000D02*
X66100000Y-140600000D01*
X69050000Y-134500000D02*
X69050000Y-137550000D01*
X69050000Y-140600000D02*
X69050000Y-137550000D01*
X63840000Y-133740000D02*
X69810000Y-133740000D01*
X69810000Y-141360000D01*
X63840000Y-141360000D01*
X63840000Y-133740000D01*
X63850000Y-133750000D02*
X64600000Y-133750000D01*
X64600000Y-135550000D01*
X63850000Y-135550000D01*
X63850000Y-133750000D01*
X63850000Y-137050000D02*
X64600000Y-137050000D01*
X64600000Y-138050000D01*
X63850000Y-138050000D01*
X63850000Y-137050000D01*
X63850000Y-139550000D02*
X64600000Y-139550000D01*
X64600000Y-141350000D01*
X63850000Y-141350000D01*
X63850000Y-139550000D01*
%TO.C,U5*%
X105052500Y-122890000D02*
X106872500Y-122890000D01*
X105052500Y-122940000D02*
X105052500Y-122890000D01*
X105052500Y-126010000D02*
X105052500Y-125960000D01*
X106872500Y-122890000D02*
X106872500Y-122940000D01*
X106872500Y-125960000D02*
X106872500Y-126010000D01*
X106872500Y-126010000D02*
X105052500Y-126010000D01*
X107652500Y-126290000D02*
X107172500Y-126290000D01*
X107412500Y-125960000D01*
X107652500Y-126290000D01*
G36*
X107652500Y-126290000D02*
G01*
X107172500Y-126290000D01*
X107412500Y-125960000D01*
X107652500Y-126290000D01*
G37*
%TO.C,C15*%
X81165000Y-139576248D02*
X81165000Y-140098752D01*
X82635000Y-139576248D02*
X82635000Y-140098752D01*
%TO.C,S2*%
D13*
X72575000Y-106650000D02*
X72575000Y-106150000D01*
X77150000Y-107775000D02*
X76100000Y-107775000D01*
X78900000Y-105025000D02*
X72900000Y-105025000D01*
X79225000Y-106650000D02*
X79225000Y-106150000D01*
D14*
X78300000Y-109800000D02*
G75*
G02*
X78100000Y-109800000I-100000J0D01*
G01*
X78100000Y-109800000D02*
G75*
G02*
X78300000Y-109800000I100000J0D01*
G01*
%TO.C,C5*%
D12*
X82165000Y-128261252D02*
X82165000Y-127738748D01*
X83635000Y-128261252D02*
X83635000Y-127738748D01*
%TO.C,C17*%
X76461252Y-144965000D02*
X75938748Y-144965000D01*
X76461252Y-146435000D02*
X75938748Y-146435000D01*
%TO.C,R6*%
X105635436Y-126815000D02*
X106089564Y-126815000D01*
X105635436Y-128285000D02*
X106089564Y-128285000D01*
%TO.C,U3*%
X101450000Y-145690000D02*
X105210000Y-145690000D01*
X101450000Y-152510000D02*
X105210000Y-152510000D01*
X105210000Y-145690000D02*
X105210000Y-146950000D01*
X105210000Y-152510000D02*
X105210000Y-151250000D01*
X100170000Y-145790000D02*
X99930000Y-145460000D01*
X100410000Y-145460000D01*
X100170000Y-145790000D01*
G36*
X100170000Y-145790000D02*
G01*
X99930000Y-145460000D01*
X100410000Y-145460000D01*
X100170000Y-145790000D01*
G37*
%TO.C,D3*%
X100800000Y-135250000D02*
X100800000Y-140750000D01*
X100800000Y-135250000D02*
X107800000Y-135250000D01*
X100800000Y-140750000D02*
X107350000Y-140750000D01*
X101600000Y-138900000D02*
X101600000Y-137100000D01*
X107000000Y-138900000D02*
X107000000Y-137100000D01*
X107350000Y-140750000D02*
X107800000Y-140300000D01*
X107800000Y-140300000D02*
X107800000Y-135250000D01*
%TO.C,U2*%
X87200000Y-145890000D02*
X90960000Y-145890000D01*
X87200000Y-152710000D02*
X90960000Y-152710000D01*
X90960000Y-145890000D02*
X90960000Y-147150000D01*
X90960000Y-152710000D02*
X90960000Y-151450000D01*
X85920000Y-145990000D02*
X85680000Y-145660000D01*
X86160000Y-145660000D01*
X85920000Y-145990000D01*
G36*
X85920000Y-145990000D02*
G01*
X85680000Y-145660000D01*
X86160000Y-145660000D01*
X85920000Y-145990000D01*
G37*
%TO.C,R5*%
X105735436Y-120815000D02*
X106189564Y-120815000D01*
X105735436Y-122285000D02*
X106189564Y-122285000D01*
%TO.C,C10*%
X96765000Y-151698752D02*
X96765000Y-151176248D01*
X98235000Y-151698752D02*
X98235000Y-151176248D01*
%TO.C,F1*%
X114586252Y-130990000D02*
X111813748Y-130990000D01*
X114586252Y-134410000D02*
X111813748Y-134410000D01*
%TO.C,J3*%
X63550000Y-149600000D02*
X63550000Y-150850000D01*
X63550000Y-150850000D02*
X64800000Y-150850000D01*
X66100000Y-142950000D02*
X66100000Y-143700000D01*
X66100000Y-143700000D02*
X69050000Y-143700000D01*
X66100000Y-149800000D02*
X69050000Y-149800000D01*
X66100000Y-150550000D02*
X66100000Y-149800000D01*
X69050000Y-143700000D02*
X69050000Y-146750000D01*
X69050000Y-149800000D02*
X69050000Y-146750000D01*
X63840000Y-142940000D02*
X69810000Y-142940000D01*
X69810000Y-150560000D01*
X63840000Y-150560000D01*
X63840000Y-142940000D01*
X63850000Y-142950000D02*
X64600000Y-142950000D01*
X64600000Y-144750000D01*
X63850000Y-144750000D01*
X63850000Y-142950000D01*
X63850000Y-146250000D02*
X64600000Y-146250000D01*
X64600000Y-147250000D01*
X63850000Y-147250000D01*
X63850000Y-146250000D01*
X63850000Y-148750000D02*
X64600000Y-148750000D01*
X64600000Y-150550000D01*
X63850000Y-150550000D01*
X63850000Y-148750000D01*
%TO.C,C1*%
X84761252Y-118965000D02*
X84238748Y-118965000D01*
X84761252Y-120435000D02*
X84238748Y-120435000D01*
%TO.C,C22*%
X74965000Y-130261252D02*
X74965000Y-129738748D01*
X76435000Y-130261252D02*
X76435000Y-129738748D01*
%TO.C,C14*%
X102973752Y-141415000D02*
X102451248Y-141415000D01*
X102973752Y-142885000D02*
X102451248Y-142885000D01*
%TO.C,R7*%
X106772936Y-130765000D02*
X107227064Y-130765000D01*
X106772936Y-132235000D02*
X107227064Y-132235000D01*
%TO.C,R9*%
X100852064Y-122665000D02*
X100397936Y-122665000D01*
X100852064Y-124135000D02*
X100397936Y-124135000D01*
%TO.C,C8*%
X80365000Y-147761252D02*
X80365000Y-147238748D01*
X81835000Y-147761252D02*
X81835000Y-147238748D01*
%TO.C,J7*%
X98580000Y-108080000D02*
X98580000Y-106700000D01*
X99960000Y-108080000D02*
X98580000Y-108080000D01*
X101230000Y-105320000D02*
X108960000Y-105320000D01*
X101230000Y-108080000D02*
X101230000Y-105320000D01*
X101230000Y-108080000D02*
X108960000Y-108080000D01*
X108960000Y-108080000D02*
X108960000Y-105320000D01*
%TO.C,R10*%
X84427064Y-112065000D02*
X83972936Y-112065000D01*
X84427064Y-113535000D02*
X83972936Y-113535000D01*
%TO.C,SW1*%
D15*
X69650000Y-123450000D02*
X69650000Y-129450000D01*
X69650000Y-129450000D02*
X70400000Y-129450000D01*
X70400000Y-123450000D02*
X69650000Y-123450000D01*
D14*
D16*
X71300000Y-121550000D02*
X71299999Y-121550000D01*
X71299999Y-121550000D01*
X71299999Y-121550000D01*
X71299999Y-121550000D01*
X71299999Y-121550000D01*
X71299999Y-121550000D01*
X71299999Y-121550000D01*
X71299999Y-121549999D01*
X71299999Y-121549999D01*
X71299999Y-121549999D01*
X71299999Y-121549999D01*
X71299999Y-121549999D01*
X71300000Y-121549999D01*
X71300000Y-121549999D01*
X71300000Y-121549999D01*
X71300000Y-121549999D01*
X71300000Y-121549999D01*
X71300000Y-121549999D01*
X71300000Y-121549999D01*
X71300000Y-121549999D01*
X71300000Y-121549999D01*
X71300000Y-121549999D01*
X71300000Y-121549999D01*
X71300000Y-121549999D01*
X71300001Y-121549999D01*
X71300001Y-121549999D01*
X71300001Y-121549999D01*
X71300001Y-121549999D01*
X71300001Y-121549999D01*
X71300001Y-121549999D01*
X71300001Y-121550000D01*
X71300001Y-121550000D01*
X71300001Y-121550000D01*
X71300001Y-121550000D01*
X71300001Y-121550000D01*
X71300001Y-121550000D01*
X71300001Y-121550000D01*
X71300000Y-121550000D01*
X71300000Y-121550000D02*
X71300001Y-121550000D01*
X71300001Y-121550000D01*
X71300001Y-121550000D01*
X71300001Y-121550000D01*
X71300001Y-121550000D01*
X71300001Y-121550000D01*
X71300001Y-121550001D01*
X71300001Y-121550001D01*
X71300001Y-121550001D01*
X71300001Y-121550001D01*
X71300001Y-121550001D01*
X71300001Y-121550001D01*
X71300001Y-121550001D01*
X71300000Y-121550001D01*
X71300000Y-121550001D01*
X71300000Y-121550001D01*
X71300000Y-121550001D01*
X71300000Y-121550001D01*
X71300000Y-121550001D01*
X71300000Y-121550001D01*
X71300000Y-121550001D01*
X71300000Y-121550001D01*
X71300000Y-121550001D01*
X71300000Y-121550001D01*
X71300000Y-121550001D01*
X71299999Y-121550001D01*
X71299999Y-121550001D01*
X71299999Y-121550001D01*
X71299999Y-121550001D01*
X71299999Y-121550001D01*
X71299999Y-121550001D01*
X71299999Y-121550000D01*
X71299999Y-121550000D01*
X71299999Y-121550000D01*
X71299999Y-121550000D01*
X71299999Y-121550000D01*
X71299999Y-121550000D01*
X71300000Y-121550000D01*
D14*
D16*
X71500000Y-121550000D02*
X71499999Y-121550000D01*
X71499999Y-121550000D01*
X71499999Y-121550000D01*
X71499999Y-121550000D01*
X71499999Y-121550000D01*
X71499999Y-121550000D01*
X71499999Y-121550000D01*
X71499999Y-121549999D01*
X71499999Y-121549999D01*
X71499999Y-121549999D01*
X71499999Y-121549999D01*
X71499999Y-121549999D01*
X71500000Y-121549999D01*
X71500000Y-121549999D01*
X71500000Y-121549999D01*
X71500000Y-121549999D01*
X71500000Y-121549999D01*
X71500000Y-121549999D01*
X71500000Y-121549999D01*
X71500000Y-121549999D01*
X71500000Y-121549999D01*
X71500000Y-121549999D01*
X71500000Y-121549999D01*
X71500000Y-121549999D01*
X71500001Y-121549999D01*
X71500001Y-121549999D01*
X71500001Y-121549999D01*
X71500001Y-121549999D01*
X71500001Y-121549999D01*
X71500001Y-121549999D01*
X71500001Y-121550000D01*
X71500001Y-121550000D01*
X71500001Y-121550000D01*
X71500001Y-121550000D01*
X71500001Y-121550000D01*
X71500001Y-121550000D01*
X71500001Y-121550000D01*
X71500000Y-121550000D01*
X71500000Y-121550000D02*
X71500001Y-121550000D01*
X71500001Y-121550000D01*
X71500001Y-121550000D01*
X71500001Y-121550000D01*
X71500001Y-121550000D01*
X71500001Y-121550000D01*
X71500001Y-121550001D01*
X71500001Y-121550001D01*
X71500001Y-121550001D01*
X71500001Y-121550001D01*
X71500001Y-121550001D01*
X71500001Y-121550001D01*
X71500001Y-121550001D01*
X71500000Y-121550001D01*
X71500000Y-121550001D01*
X71500000Y-121550001D01*
X71500000Y-121550001D01*
X71500000Y-121550001D01*
X71500000Y-121550001D01*
X71500000Y-121550001D01*
X71500000Y-121550001D01*
X71500000Y-121550001D01*
X71500000Y-121550001D01*
X71500000Y-121550001D01*
X71500000Y-121550001D01*
X71499999Y-121550001D01*
X71499999Y-121550001D01*
X71499999Y-121550001D01*
X71499999Y-121550001D01*
X71499999Y-121550001D01*
X71499999Y-121550001D01*
X71499999Y-121550000D01*
X71499999Y-121550000D01*
X71499999Y-121550000D01*
X71499999Y-121550000D01*
X71499999Y-121550000D01*
X71499999Y-121550000D01*
X71500000Y-121550000D01*
D15*
X72400000Y-123450000D02*
X73150000Y-123450000D01*
X73150000Y-123450000D02*
X73150000Y-129450000D01*
X73150000Y-129450000D02*
X72400000Y-129450000D01*
D14*
X71300000Y-121550000D02*
G75*
G02*
X71500000Y-121550000I100000J0D01*
G01*
X71500000Y-121550000D02*
G75*
G02*
X71300000Y-121550000I-100000J0D01*
G01*
%TO.C,Y1*%
D12*
X81285000Y-123602500D02*
X77165000Y-123602500D01*
X81285000Y-127022500D02*
X81285000Y-123602500D01*
%TO.C,D2*%
X101715000Y-155740000D02*
X101715000Y-157660000D01*
X101715000Y-157660000D02*
X104575000Y-157660000D01*
X104575000Y-155740000D02*
X101715000Y-155740000D01*
%TO.C,J8*%
X111350000Y-137400000D02*
X111350000Y-144200000D01*
X111350000Y-151000000D02*
X111350000Y-144200000D01*
X114300000Y-136650000D02*
X114300000Y-137400000D01*
X114300000Y-137400000D02*
X111350000Y-137400000D01*
X114300000Y-151000000D02*
X111350000Y-151000000D01*
X114300000Y-151750000D02*
X114300000Y-151000000D01*
X116850000Y-136350000D02*
X115600000Y-136350000D01*
X116850000Y-137600000D02*
X116850000Y-136350000D01*
X115800000Y-136650000D02*
X116550000Y-136650000D01*
X116550000Y-138450000D01*
X115800000Y-138450000D01*
X115800000Y-136650000D01*
X115800000Y-139950000D02*
X116550000Y-139950000D01*
X116550000Y-148450000D01*
X115800000Y-148450000D01*
X115800000Y-139950000D01*
X115800000Y-149950000D02*
X116550000Y-149950000D01*
X116550000Y-151750000D01*
X115800000Y-151750000D01*
X115800000Y-149950000D01*
X110590000Y-136640000D02*
X116560000Y-136640000D01*
X116560000Y-151760000D01*
X110590000Y-151760000D01*
X110590000Y-136640000D01*
%TO.C,J9*%
X110625000Y-127480000D02*
X110625000Y-128280000D01*
X113545000Y-119980000D02*
X115325000Y-119980000D01*
X113545000Y-129380000D02*
X115325000Y-129380000D01*
%TO.C,R1*%
X89165000Y-141102064D02*
X89165000Y-140647936D01*
X90635000Y-141102064D02*
X90635000Y-140647936D01*
%TO.C,C3*%
X96838748Y-132165000D02*
X97361252Y-132165000D01*
X96838748Y-133635000D02*
X97361252Y-133635000D01*
%TO.C,U1*%
X85715000Y-121240000D02*
X86665000Y-121240000D01*
X85715000Y-122190000D02*
X85715000Y-121240000D01*
X85715000Y-131460000D02*
X85715000Y-130510000D01*
X86665000Y-131460000D02*
X85715000Y-131460000D01*
X94985000Y-121240000D02*
X95935000Y-121240000D01*
X95935000Y-121240000D02*
X95935000Y-122190000D01*
X95935000Y-130510000D02*
X95935000Y-131460000D01*
X95935000Y-131460000D02*
X94985000Y-131460000D01*
X85075000Y-122190000D02*
X84735000Y-121720000D01*
X85415000Y-121720000D01*
X85075000Y-122190000D01*
G36*
X85075000Y-122190000D02*
G01*
X84735000Y-121720000D01*
X85415000Y-121720000D01*
X85075000Y-122190000D01*
G37*
%TO.C,C12*%
X96765000Y-147336252D02*
X96765000Y-146813748D01*
X98235000Y-147336252D02*
X98235000Y-146813748D01*
%TO.C,U4*%
X73240000Y-135890000D02*
X78760000Y-135890000D01*
X73240000Y-136065000D02*
X73240000Y-135890000D01*
X73240000Y-144310000D02*
X73240000Y-144135000D01*
X78760000Y-135890000D02*
X78760000Y-136065000D01*
X78760000Y-144135000D02*
X78760000Y-144310000D01*
X78760000Y-144310000D02*
X73240000Y-144310000D01*
X72500000Y-136060000D02*
X72160000Y-135590000D01*
X72840000Y-135590000D01*
X72500000Y-136060000D01*
G36*
X72500000Y-136060000D02*
G01*
X72160000Y-135590000D01*
X72840000Y-135590000D01*
X72500000Y-136060000D01*
G37*
%TO.C,R3*%
X112872936Y-117165000D02*
X113327064Y-117165000D01*
X112872936Y-118635000D02*
X113327064Y-118635000D01*
%TO.C,C16*%
X71500000Y-150810000D02*
X78440000Y-150810000D01*
X78440000Y-147390000D02*
X71500000Y-147390000D01*
X78440000Y-150810000D02*
X78440000Y-147390000D01*
%TO.C,R4*%
X97827064Y-139765000D02*
X97372936Y-139765000D01*
X97827064Y-141235000D02*
X97372936Y-141235000D01*
%TO.C,C13*%
X94465000Y-147336252D02*
X94465000Y-146813748D01*
X95935000Y-147336252D02*
X95935000Y-146813748D01*
%TO.C,J6*%
X83500000Y-104625000D02*
X83500000Y-105875000D01*
X83800000Y-107175000D02*
X84550000Y-107175000D01*
X84550000Y-107175000D02*
X84550000Y-110125000D01*
X84550000Y-110125000D02*
X90100000Y-110125000D01*
X84750000Y-104625000D02*
X83500000Y-104625000D01*
X95650000Y-107175000D02*
X95650000Y-110125000D01*
X95650000Y-110125000D02*
X90100000Y-110125000D01*
X96400000Y-107175000D02*
X95650000Y-107175000D01*
X83790000Y-104915000D02*
X96410000Y-104915000D01*
X96410000Y-110885000D01*
X83790000Y-110885000D01*
X83790000Y-104915000D01*
X83800000Y-104925000D02*
X85600000Y-104925000D01*
X85600000Y-105675000D01*
X83800000Y-105675000D01*
X83800000Y-104925000D01*
X87100000Y-104925000D02*
X93100000Y-104925000D01*
X93100000Y-105675000D01*
X87100000Y-105675000D01*
X87100000Y-104925000D01*
X94600000Y-104925000D02*
X96400000Y-104925000D01*
X96400000Y-105675000D01*
X94600000Y-105675000D01*
X94600000Y-104925000D01*
%TO.C,C9*%
X82665000Y-147761252D02*
X82665000Y-147238748D01*
X84135000Y-147761252D02*
X84135000Y-147238748D01*
%TO.C,C21*%
X79001248Y-127527500D02*
X79523752Y-127527500D01*
X79001248Y-128997500D02*
X79523752Y-128997500D01*
%TO.C,J4*%
X64670000Y-108570000D02*
X64670000Y-126410000D01*
X64670000Y-108570000D02*
X67330000Y-108570000D01*
X64670000Y-126410000D02*
X67330000Y-126410000D01*
X66000000Y-105970000D02*
X67330000Y-105970000D01*
X67330000Y-105970000D02*
X67330000Y-107300000D01*
X67330000Y-108570000D02*
X67330000Y-126410000D01*
%TO.C,C2*%
X84723752Y-116765000D02*
X84201248Y-116765000D01*
X84723752Y-118235000D02*
X84201248Y-118235000D01*
%TO.C,D4*%
X91540000Y-139015000D02*
X91540000Y-141875000D01*
X93460000Y-139015000D02*
X91540000Y-139015000D01*
X93460000Y-141875000D02*
X93460000Y-139015000D01*
%TO.C,R2*%
X103727064Y-153565000D02*
X103272936Y-153565000D01*
X103727064Y-155035000D02*
X103272936Y-155035000D01*
%TO.C,C6*%
X82665000Y-152023752D02*
X82665000Y-151501248D01*
X84135000Y-152023752D02*
X84135000Y-151501248D01*
%TO.C,J5*%
X110420000Y-105870000D02*
X110420000Y-116150000D01*
X110420000Y-105870000D02*
X113020000Y-105870000D01*
X110420000Y-116150000D02*
X115620000Y-116150000D01*
X113020000Y-105870000D02*
X113020000Y-108470000D01*
X113020000Y-108470000D02*
X115620000Y-108470000D01*
X114290000Y-105870000D02*
X115620000Y-105870000D01*
X115620000Y-105870000D02*
X115620000Y-107200000D01*
X115620000Y-108470000D02*
X115620000Y-116150000D01*
%TO.C,D1*%
X95715000Y-137240000D02*
X95715000Y-139160000D01*
X95715000Y-139160000D02*
X98575000Y-139160000D01*
X98575000Y-137240000D02*
X95715000Y-137240000D01*
%TO.C,C4*%
X96665000Y-120323752D02*
X96665000Y-119801248D01*
X98135000Y-120323752D02*
X98135000Y-119801248D01*
%TD*%
M02*
