%TF.GenerationSoftware,KiCad,Pcbnew,10.0.1*%
%TF.CreationDate,2026-05-03T14:57:41-06:00*%
%TF.ProjectId,2026_12_2Wheel_Balance_Robot_v1,32303236-5f31-4325-9f32-576865656c5f,rev?*%
%TF.SameCoordinates,Original*%
%TF.FileFunction,Legend,Bot*%
%TF.FilePolarity,Positive*%
%FSLAX46Y46*%
G04 Gerber Fmt 4.6, Leading zero omitted, Abs format (unit mm)*
G04 Created by KiCad (PCBNEW 10.0.1) date 2026-05-03 14:57:41*
%MOMM*%
%LPD*%
G01*
G04 APERTURE LIST*
%ADD10C,0.100000*%
G04 APERTURE END LIST*
D10*
X164137716Y-77323065D02*
X164137716Y-77799255D01*
X164423431Y-77227827D02*
X163423431Y-77561160D01*
X163423431Y-77561160D02*
X164423431Y-77894493D01*
X164423431Y-78227827D02*
X163756764Y-78227827D01*
X163423431Y-78227827D02*
X163471050Y-78180208D01*
X163471050Y-78180208D02*
X163518669Y-78227827D01*
X163518669Y-78227827D02*
X163471050Y-78275446D01*
X163471050Y-78275446D02*
X163423431Y-78227827D01*
X163423431Y-78227827D02*
X163518669Y-78227827D01*
X164423431Y-79132588D02*
X163423431Y-79132588D01*
X164375812Y-79132588D02*
X164423431Y-79037350D01*
X164423431Y-79037350D02*
X164423431Y-78846874D01*
X164423431Y-78846874D02*
X164375812Y-78751636D01*
X164375812Y-78751636D02*
X164328192Y-78704017D01*
X164328192Y-78704017D02*
X164232954Y-78656398D01*
X164232954Y-78656398D02*
X163947240Y-78656398D01*
X163947240Y-78656398D02*
X163852002Y-78704017D01*
X163852002Y-78704017D02*
X163804383Y-78751636D01*
X163804383Y-78751636D02*
X163756764Y-78846874D01*
X163756764Y-78846874D02*
X163756764Y-79037350D01*
X163756764Y-79037350D02*
X163804383Y-79132588D01*
X164423431Y-80037350D02*
X163899621Y-80037350D01*
X163899621Y-80037350D02*
X163804383Y-79989731D01*
X163804383Y-79989731D02*
X163756764Y-79894493D01*
X163756764Y-79894493D02*
X163756764Y-79704017D01*
X163756764Y-79704017D02*
X163804383Y-79608779D01*
X164375812Y-80037350D02*
X164423431Y-79942112D01*
X164423431Y-79942112D02*
X164423431Y-79704017D01*
X164423431Y-79704017D02*
X164375812Y-79608779D01*
X164375812Y-79608779D02*
X164280573Y-79561160D01*
X164280573Y-79561160D02*
X164185335Y-79561160D01*
X164185335Y-79561160D02*
X164090097Y-79608779D01*
X164090097Y-79608779D02*
X164042478Y-79704017D01*
X164042478Y-79704017D02*
X164042478Y-79942112D01*
X164042478Y-79942112D02*
X163994859Y-80037350D01*
X163756764Y-80513541D02*
X164423431Y-80513541D01*
X163852002Y-80513541D02*
X163804383Y-80561160D01*
X163804383Y-80561160D02*
X163756764Y-80656398D01*
X163756764Y-80656398D02*
X163756764Y-80799255D01*
X163756764Y-80799255D02*
X163804383Y-80894493D01*
X163804383Y-80894493D02*
X163899621Y-80942112D01*
X163899621Y-80942112D02*
X164423431Y-80942112D01*
X164423431Y-82180208D02*
X163423431Y-82180208D01*
X163423431Y-82180208D02*
X163423431Y-82418303D01*
X163423431Y-82418303D02*
X163471050Y-82561160D01*
X163471050Y-82561160D02*
X163566288Y-82656398D01*
X163566288Y-82656398D02*
X163661526Y-82704017D01*
X163661526Y-82704017D02*
X163852002Y-82751636D01*
X163852002Y-82751636D02*
X163994859Y-82751636D01*
X163994859Y-82751636D02*
X164185335Y-82704017D01*
X164185335Y-82704017D02*
X164280573Y-82656398D01*
X164280573Y-82656398D02*
X164375812Y-82561160D01*
X164375812Y-82561160D02*
X164423431Y-82418303D01*
X164423431Y-82418303D02*
X164423431Y-82180208D01*
X164423431Y-83323065D02*
X164375812Y-83227827D01*
X164375812Y-83227827D02*
X164328192Y-83180208D01*
X164328192Y-83180208D02*
X164232954Y-83132589D01*
X164232954Y-83132589D02*
X163947240Y-83132589D01*
X163947240Y-83132589D02*
X163852002Y-83180208D01*
X163852002Y-83180208D02*
X163804383Y-83227827D01*
X163804383Y-83227827D02*
X163756764Y-83323065D01*
X163756764Y-83323065D02*
X163756764Y-83465922D01*
X163756764Y-83465922D02*
X163804383Y-83561160D01*
X163804383Y-83561160D02*
X163852002Y-83608779D01*
X163852002Y-83608779D02*
X163947240Y-83656398D01*
X163947240Y-83656398D02*
X164232954Y-83656398D01*
X164232954Y-83656398D02*
X164328192Y-83608779D01*
X164328192Y-83608779D02*
X164375812Y-83561160D01*
X164375812Y-83561160D02*
X164423431Y-83465922D01*
X164423431Y-83465922D02*
X164423431Y-83323065D01*
X163756764Y-84084970D02*
X164423431Y-84084970D01*
X163852002Y-84084970D02*
X163804383Y-84132589D01*
X163804383Y-84132589D02*
X163756764Y-84227827D01*
X163756764Y-84227827D02*
X163756764Y-84370684D01*
X163756764Y-84370684D02*
X163804383Y-84465922D01*
X163804383Y-84465922D02*
X163899621Y-84513541D01*
X163899621Y-84513541D02*
X164423431Y-84513541D01*
X163756764Y-84989732D02*
X164423431Y-84989732D01*
X163852002Y-84989732D02*
X163804383Y-85037351D01*
X163804383Y-85037351D02*
X163756764Y-85132589D01*
X163756764Y-85132589D02*
X163756764Y-85275446D01*
X163756764Y-85275446D02*
X163804383Y-85370684D01*
X163804383Y-85370684D02*
X163899621Y-85418303D01*
X163899621Y-85418303D02*
X164423431Y-85418303D01*
X164375812Y-86275446D02*
X164423431Y-86180208D01*
X164423431Y-86180208D02*
X164423431Y-85989732D01*
X164423431Y-85989732D02*
X164375812Y-85894494D01*
X164375812Y-85894494D02*
X164280573Y-85846875D01*
X164280573Y-85846875D02*
X163899621Y-85846875D01*
X163899621Y-85846875D02*
X163804383Y-85894494D01*
X163804383Y-85894494D02*
X163756764Y-85989732D01*
X163756764Y-85989732D02*
X163756764Y-86180208D01*
X163756764Y-86180208D02*
X163804383Y-86275446D01*
X163804383Y-86275446D02*
X163899621Y-86323065D01*
X163899621Y-86323065D02*
X163994859Y-86323065D01*
X163994859Y-86323065D02*
X164090097Y-85846875D01*
X164423431Y-86894494D02*
X164375812Y-86799256D01*
X164375812Y-86799256D02*
X164280573Y-86751637D01*
X164280573Y-86751637D02*
X163423431Y-86751637D01*
X164423431Y-87418304D02*
X164375812Y-87323066D01*
X164375812Y-87323066D02*
X164280573Y-87275447D01*
X164280573Y-87275447D02*
X163423431Y-87275447D01*
X164423431Y-88227828D02*
X163899621Y-88227828D01*
X163899621Y-88227828D02*
X163804383Y-88180209D01*
X163804383Y-88180209D02*
X163756764Y-88084971D01*
X163756764Y-88084971D02*
X163756764Y-87894495D01*
X163756764Y-87894495D02*
X163804383Y-87799257D01*
X164375812Y-88227828D02*
X164423431Y-88132590D01*
X164423431Y-88132590D02*
X164423431Y-87894495D01*
X164423431Y-87894495D02*
X164375812Y-87799257D01*
X164375812Y-87799257D02*
X164280573Y-87751638D01*
X164280573Y-87751638D02*
X164185335Y-87751638D01*
X164185335Y-87751638D02*
X164090097Y-87799257D01*
X164090097Y-87799257D02*
X164042478Y-87894495D01*
X164042478Y-87894495D02*
X164042478Y-88132590D01*
X164042478Y-88132590D02*
X163994859Y-88227828D01*
X163756764Y-88704019D02*
X164423431Y-88704019D01*
X163852002Y-88704019D02*
X163804383Y-88751638D01*
X163804383Y-88751638D02*
X163756764Y-88846876D01*
X163756764Y-88846876D02*
X163756764Y-88989733D01*
X163756764Y-88989733D02*
X163804383Y-89084971D01*
X163804383Y-89084971D02*
X163899621Y-89132590D01*
X163899621Y-89132590D02*
X164423431Y-89132590D01*
X164042478Y-90370686D02*
X164042478Y-91132591D01*
X163471050Y-92894495D02*
X163423431Y-92799257D01*
X163423431Y-92799257D02*
X163423431Y-92656400D01*
X163423431Y-92656400D02*
X163471050Y-92513543D01*
X163471050Y-92513543D02*
X163566288Y-92418305D01*
X163566288Y-92418305D02*
X163661526Y-92370686D01*
X163661526Y-92370686D02*
X163852002Y-92323067D01*
X163852002Y-92323067D02*
X163994859Y-92323067D01*
X163994859Y-92323067D02*
X164185335Y-92370686D01*
X164185335Y-92370686D02*
X164280573Y-92418305D01*
X164280573Y-92418305D02*
X164375812Y-92513543D01*
X164375812Y-92513543D02*
X164423431Y-92656400D01*
X164423431Y-92656400D02*
X164423431Y-92751638D01*
X164423431Y-92751638D02*
X164375812Y-92894495D01*
X164375812Y-92894495D02*
X164328192Y-92942114D01*
X164328192Y-92942114D02*
X163994859Y-92942114D01*
X163994859Y-92942114D02*
X163994859Y-92751638D01*
X164328192Y-93370686D02*
X164375812Y-93418305D01*
X164375812Y-93418305D02*
X164423431Y-93370686D01*
X164423431Y-93370686D02*
X164375812Y-93323067D01*
X164375812Y-93323067D02*
X164328192Y-93370686D01*
X164328192Y-93370686D02*
X164423431Y-93370686D01*
X164423431Y-94608781D02*
X163423431Y-94608781D01*
X163423431Y-94608781D02*
X164137716Y-94942114D01*
X164137716Y-94942114D02*
X163423431Y-95275447D01*
X163423431Y-95275447D02*
X164423431Y-95275447D01*
X164423431Y-96180209D02*
X163899621Y-96180209D01*
X163899621Y-96180209D02*
X163804383Y-96132590D01*
X163804383Y-96132590D02*
X163756764Y-96037352D01*
X163756764Y-96037352D02*
X163756764Y-95846876D01*
X163756764Y-95846876D02*
X163804383Y-95751638D01*
X164375812Y-96180209D02*
X164423431Y-96084971D01*
X164423431Y-96084971D02*
X164423431Y-95846876D01*
X164423431Y-95846876D02*
X164375812Y-95751638D01*
X164375812Y-95751638D02*
X164280573Y-95704019D01*
X164280573Y-95704019D02*
X164185335Y-95704019D01*
X164185335Y-95704019D02*
X164090097Y-95751638D01*
X164090097Y-95751638D02*
X164042478Y-95846876D01*
X164042478Y-95846876D02*
X164042478Y-96084971D01*
X164042478Y-96084971D02*
X163994859Y-96180209D01*
X164423431Y-96656400D02*
X163756764Y-96656400D01*
X163947240Y-96656400D02*
X163852002Y-96704019D01*
X163852002Y-96704019D02*
X163804383Y-96751638D01*
X163804383Y-96751638D02*
X163756764Y-96846876D01*
X163756764Y-96846876D02*
X163756764Y-96942114D01*
X163756764Y-97132591D02*
X163756764Y-97513543D01*
X163423431Y-97275448D02*
X164280573Y-97275448D01*
X164280573Y-97275448D02*
X164375812Y-97323067D01*
X164375812Y-97323067D02*
X164423431Y-97418305D01*
X164423431Y-97418305D02*
X164423431Y-97513543D01*
X164423431Y-97846877D02*
X163756764Y-97846877D01*
X163423431Y-97846877D02*
X163471050Y-97799258D01*
X163471050Y-97799258D02*
X163518669Y-97846877D01*
X163518669Y-97846877D02*
X163471050Y-97894496D01*
X163471050Y-97894496D02*
X163423431Y-97846877D01*
X163423431Y-97846877D02*
X163518669Y-97846877D01*
X163756764Y-98323067D02*
X164423431Y-98323067D01*
X163852002Y-98323067D02*
X163804383Y-98370686D01*
X163804383Y-98370686D02*
X163756764Y-98465924D01*
X163756764Y-98465924D02*
X163756764Y-98608781D01*
X163756764Y-98608781D02*
X163804383Y-98704019D01*
X163804383Y-98704019D02*
X163899621Y-98751638D01*
X163899621Y-98751638D02*
X164423431Y-98751638D01*
X164375812Y-99180210D02*
X164423431Y-99275448D01*
X164423431Y-99275448D02*
X164423431Y-99465924D01*
X164423431Y-99465924D02*
X164375812Y-99561162D01*
X164375812Y-99561162D02*
X164280573Y-99608781D01*
X164280573Y-99608781D02*
X164232954Y-99608781D01*
X164232954Y-99608781D02*
X164137716Y-99561162D01*
X164137716Y-99561162D02*
X164090097Y-99465924D01*
X164090097Y-99465924D02*
X164090097Y-99323067D01*
X164090097Y-99323067D02*
X164042478Y-99227829D01*
X164042478Y-99227829D02*
X163947240Y-99180210D01*
X163947240Y-99180210D02*
X163899621Y-99180210D01*
X163899621Y-99180210D02*
X163804383Y-99227829D01*
X163804383Y-99227829D02*
X163756764Y-99323067D01*
X163756764Y-99323067D02*
X163756764Y-99465924D01*
X163756764Y-99465924D02*
X163804383Y-99561162D01*
X163423431Y-100656401D02*
X164423431Y-100989734D01*
X164423431Y-100989734D02*
X163423431Y-101323067D01*
X164423431Y-102180210D02*
X164423431Y-101608782D01*
X164423431Y-101894496D02*
X163423431Y-101894496D01*
X163423431Y-101894496D02*
X163566288Y-101799258D01*
X163566288Y-101799258D02*
X163661526Y-101704020D01*
X163661526Y-101704020D02*
X163709145Y-101608782D01*
X165509565Y-77370684D02*
X165509565Y-77704017D01*
X166033375Y-77846874D02*
X166033375Y-77370684D01*
X166033375Y-77370684D02*
X165033375Y-77370684D01*
X165033375Y-77370684D02*
X165033375Y-77846874D01*
X166033375Y-78275446D02*
X165033375Y-78275446D01*
X165033375Y-78275446D02*
X166033375Y-78846874D01*
X166033375Y-78846874D02*
X165033375Y-78846874D01*
X165938136Y-79894493D02*
X165985756Y-79846874D01*
X165985756Y-79846874D02*
X166033375Y-79704017D01*
X166033375Y-79704017D02*
X166033375Y-79608779D01*
X166033375Y-79608779D02*
X165985756Y-79465922D01*
X165985756Y-79465922D02*
X165890517Y-79370684D01*
X165890517Y-79370684D02*
X165795279Y-79323065D01*
X165795279Y-79323065D02*
X165604803Y-79275446D01*
X165604803Y-79275446D02*
X165461946Y-79275446D01*
X165461946Y-79275446D02*
X165271470Y-79323065D01*
X165271470Y-79323065D02*
X165176232Y-79370684D01*
X165176232Y-79370684D02*
X165080994Y-79465922D01*
X165080994Y-79465922D02*
X165033375Y-79608779D01*
X165033375Y-79608779D02*
X165033375Y-79704017D01*
X165033375Y-79704017D02*
X165080994Y-79846874D01*
X165080994Y-79846874D02*
X165128613Y-79894493D01*
X165509565Y-80323065D02*
X165509565Y-80656398D01*
X166033375Y-80799255D02*
X166033375Y-80323065D01*
X166033375Y-80323065D02*
X165033375Y-80323065D01*
X165033375Y-80323065D02*
X165033375Y-80799255D01*
X165033375Y-81894494D02*
X165033375Y-82513541D01*
X165033375Y-82513541D02*
X165414327Y-82180208D01*
X165414327Y-82180208D02*
X165414327Y-82323065D01*
X165414327Y-82323065D02*
X165461946Y-82418303D01*
X165461946Y-82418303D02*
X165509565Y-82465922D01*
X165509565Y-82465922D02*
X165604803Y-82513541D01*
X165604803Y-82513541D02*
X165842898Y-82513541D01*
X165842898Y-82513541D02*
X165938136Y-82465922D01*
X165938136Y-82465922D02*
X165985756Y-82418303D01*
X165985756Y-82418303D02*
X166033375Y-82323065D01*
X166033375Y-82323065D02*
X166033375Y-82037351D01*
X166033375Y-82037351D02*
X165985756Y-81942113D01*
X165985756Y-81942113D02*
X165938136Y-81894494D01*
X165128613Y-82894494D02*
X165080994Y-82942113D01*
X165080994Y-82942113D02*
X165033375Y-83037351D01*
X165033375Y-83037351D02*
X165033375Y-83275446D01*
X165033375Y-83275446D02*
X165080994Y-83370684D01*
X165080994Y-83370684D02*
X165128613Y-83418303D01*
X165128613Y-83418303D02*
X165223851Y-83465922D01*
X165223851Y-83465922D02*
X165319089Y-83465922D01*
X165319089Y-83465922D02*
X165461946Y-83418303D01*
X165461946Y-83418303D02*
X166033375Y-82846875D01*
X166033375Y-82846875D02*
X166033375Y-83465922D01*
X165033375Y-83799256D02*
X165033375Y-84418303D01*
X165033375Y-84418303D02*
X165414327Y-84084970D01*
X165414327Y-84084970D02*
X165414327Y-84227827D01*
X165414327Y-84227827D02*
X165461946Y-84323065D01*
X165461946Y-84323065D02*
X165509565Y-84370684D01*
X165509565Y-84370684D02*
X165604803Y-84418303D01*
X165604803Y-84418303D02*
X165842898Y-84418303D01*
X165842898Y-84418303D02*
X165938136Y-84370684D01*
X165938136Y-84370684D02*
X165985756Y-84323065D01*
X165985756Y-84323065D02*
X166033375Y-84227827D01*
X166033375Y-84227827D02*
X166033375Y-83942113D01*
X166033375Y-83942113D02*
X165985756Y-83846875D01*
X165985756Y-83846875D02*
X165938136Y-83799256D01*
X166033375Y-85370684D02*
X166033375Y-84799256D01*
X166033375Y-85084970D02*
X165033375Y-85084970D01*
X165033375Y-85084970D02*
X165176232Y-84989732D01*
X165176232Y-84989732D02*
X165271470Y-84894494D01*
X165271470Y-84894494D02*
X165319089Y-84799256D01*
X165652422Y-85799256D02*
X165652422Y-86561161D01*
X166033375Y-87561160D02*
X166033375Y-86989732D01*
X166033375Y-87275446D02*
X165033375Y-87275446D01*
X165033375Y-87275446D02*
X165176232Y-87180208D01*
X165176232Y-87180208D02*
X165271470Y-87084970D01*
X165271470Y-87084970D02*
X165319089Y-86989732D01*
X167643319Y-77370684D02*
X166643319Y-77370684D01*
X166643319Y-77370684D02*
X167357604Y-77704017D01*
X167357604Y-77704017D02*
X166643319Y-78037350D01*
X166643319Y-78037350D02*
X167643319Y-78037350D01*
X167643319Y-78942112D02*
X167119509Y-78942112D01*
X167119509Y-78942112D02*
X167024271Y-78894493D01*
X167024271Y-78894493D02*
X166976652Y-78799255D01*
X166976652Y-78799255D02*
X166976652Y-78608779D01*
X166976652Y-78608779D02*
X167024271Y-78513541D01*
X167595700Y-78942112D02*
X167643319Y-78846874D01*
X167643319Y-78846874D02*
X167643319Y-78608779D01*
X167643319Y-78608779D02*
X167595700Y-78513541D01*
X167595700Y-78513541D02*
X167500461Y-78465922D01*
X167500461Y-78465922D02*
X167405223Y-78465922D01*
X167405223Y-78465922D02*
X167309985Y-78513541D01*
X167309985Y-78513541D02*
X167262366Y-78608779D01*
X167262366Y-78608779D02*
X167262366Y-78846874D01*
X167262366Y-78846874D02*
X167214747Y-78942112D01*
X166976652Y-79323065D02*
X167643319Y-79561160D01*
X166976652Y-79799255D02*
X167643319Y-79561160D01*
X167643319Y-79561160D02*
X167881414Y-79465922D01*
X167881414Y-79465922D02*
X167929033Y-79418303D01*
X167929033Y-79418303D02*
X167976652Y-79323065D01*
X166738557Y-80894494D02*
X166690938Y-80942113D01*
X166690938Y-80942113D02*
X166643319Y-81037351D01*
X166643319Y-81037351D02*
X166643319Y-81275446D01*
X166643319Y-81275446D02*
X166690938Y-81370684D01*
X166690938Y-81370684D02*
X166738557Y-81418303D01*
X166738557Y-81418303D02*
X166833795Y-81465922D01*
X166833795Y-81465922D02*
X166929033Y-81465922D01*
X166929033Y-81465922D02*
X167071890Y-81418303D01*
X167071890Y-81418303D02*
X167643319Y-80846875D01*
X167643319Y-80846875D02*
X167643319Y-81465922D01*
X166643319Y-82084970D02*
X166643319Y-82180208D01*
X166643319Y-82180208D02*
X166690938Y-82275446D01*
X166690938Y-82275446D02*
X166738557Y-82323065D01*
X166738557Y-82323065D02*
X166833795Y-82370684D01*
X166833795Y-82370684D02*
X167024271Y-82418303D01*
X167024271Y-82418303D02*
X167262366Y-82418303D01*
X167262366Y-82418303D02*
X167452842Y-82370684D01*
X167452842Y-82370684D02*
X167548080Y-82323065D01*
X167548080Y-82323065D02*
X167595700Y-82275446D01*
X167595700Y-82275446D02*
X167643319Y-82180208D01*
X167643319Y-82180208D02*
X167643319Y-82084970D01*
X167643319Y-82084970D02*
X167595700Y-81989732D01*
X167595700Y-81989732D02*
X167548080Y-81942113D01*
X167548080Y-81942113D02*
X167452842Y-81894494D01*
X167452842Y-81894494D02*
X167262366Y-81846875D01*
X167262366Y-81846875D02*
X167024271Y-81846875D01*
X167024271Y-81846875D02*
X166833795Y-81894494D01*
X166833795Y-81894494D02*
X166738557Y-81942113D01*
X166738557Y-81942113D02*
X166690938Y-81989732D01*
X166690938Y-81989732D02*
X166643319Y-82084970D01*
X166738557Y-82799256D02*
X166690938Y-82846875D01*
X166690938Y-82846875D02*
X166643319Y-82942113D01*
X166643319Y-82942113D02*
X166643319Y-83180208D01*
X166643319Y-83180208D02*
X166690938Y-83275446D01*
X166690938Y-83275446D02*
X166738557Y-83323065D01*
X166738557Y-83323065D02*
X166833795Y-83370684D01*
X166833795Y-83370684D02*
X166929033Y-83370684D01*
X166929033Y-83370684D02*
X167071890Y-83323065D01*
X167071890Y-83323065D02*
X167643319Y-82751637D01*
X167643319Y-82751637D02*
X167643319Y-83370684D01*
X166643319Y-84227827D02*
X166643319Y-84037351D01*
X166643319Y-84037351D02*
X166690938Y-83942113D01*
X166690938Y-83942113D02*
X166738557Y-83894494D01*
X166738557Y-83894494D02*
X166881414Y-83799256D01*
X166881414Y-83799256D02*
X167071890Y-83751637D01*
X167071890Y-83751637D02*
X167452842Y-83751637D01*
X167452842Y-83751637D02*
X167548080Y-83799256D01*
X167548080Y-83799256D02*
X167595700Y-83846875D01*
X167595700Y-83846875D02*
X167643319Y-83942113D01*
X167643319Y-83942113D02*
X167643319Y-84132589D01*
X167643319Y-84132589D02*
X167595700Y-84227827D01*
X167595700Y-84227827D02*
X167548080Y-84275446D01*
X167548080Y-84275446D02*
X167452842Y-84323065D01*
X167452842Y-84323065D02*
X167214747Y-84323065D01*
X167214747Y-84323065D02*
X167119509Y-84275446D01*
X167119509Y-84275446D02*
X167071890Y-84227827D01*
X167071890Y-84227827D02*
X167024271Y-84132589D01*
X167024271Y-84132589D02*
X167024271Y-83942113D01*
X167024271Y-83942113D02*
X167071890Y-83846875D01*
X167071890Y-83846875D02*
X167119509Y-83799256D01*
X167119509Y-83799256D02*
X167214747Y-83751637D01*
M02*
