%TF.GenerationSoftware,KiCad,Pcbnew,10.0.1*%
%TF.CreationDate,2026-05-03T14:57:41-06:00*%
%TF.ProjectId,2026_12_2Wheel_Balance_Robot_v1,32303236-5f31-4325-9f32-576865656c5f,rev?*%
%TF.SameCoordinates,Original*%
%TF.FileFunction,Copper,L2,Bot*%
%TF.FilePolarity,Positive*%
%FSLAX46Y46*%
G04 Gerber Fmt 4.6, Leading zero omitted, Abs format (unit mm)*
G04 Created by KiCad (PCBNEW 10.0.1) date 2026-05-03 14:57:41*
%MOMM*%
%LPD*%
G01*
G04 APERTURE LIST*
G04 Aperture macros list*
%AMRoundRect*
0 Rectangle with rounded corners*
0 $1 Rounding radius*
0 $2 $3 $4 $5 $6 $7 $8 $9 X,Y pos of 4 corners*
0 Add a 4 corners polygon primitive as box body*
4,1,4,$2,$3,$4,$5,$6,$7,$8,$9,$2,$3,0*
0 Add four circle primitives for the rounded corners*
1,1,$1+$1,$2,$3*
1,1,$1+$1,$4,$5*
1,1,$1+$1,$6,$7*
1,1,$1+$1,$8,$9*
0 Add four rect primitives between the rounded corners*
20,1,$1+$1,$2,$3,$4,$5,0*
20,1,$1+$1,$4,$5,$6,$7,0*
20,1,$1+$1,$6,$7,$8,$9,0*
20,1,$1+$1,$8,$9,$2,$3,0*%
G04 Aperture macros list end*
%TA.AperFunction,ComponentPad*%
%ADD10R,1.700000X1.700000*%
%TD*%
%TA.AperFunction,ComponentPad*%
%ADD11C,1.700000*%
%TD*%
%TA.AperFunction,ComponentPad*%
%ADD12RoundRect,0.250000X-0.600000X-0.750000X0.600000X-0.750000X0.600000X0.750000X-0.600000X0.750000X0*%
%TD*%
%TA.AperFunction,ComponentPad*%
%ADD13O,1.700000X2.000000*%
%TD*%
%TA.AperFunction,ComponentPad*%
%ADD14RoundRect,0.250000X0.600000X0.750000X-0.600000X0.750000X-0.600000X-0.750000X0.600000X-0.750000X0*%
%TD*%
%TA.AperFunction,ComponentPad*%
%ADD15RoundRect,0.250000X-0.600000X-0.725000X0.600000X-0.725000X0.600000X0.725000X-0.600000X0.725000X0*%
%TD*%
%TA.AperFunction,ComponentPad*%
%ADD16O,1.700000X1.950000*%
%TD*%
%TA.AperFunction,ComponentPad*%
%ADD17O,2.100000X1.000000*%
%TD*%
%TA.AperFunction,ComponentPad*%
%ADD18O,1.600000X1.000000*%
%TD*%
%TA.AperFunction,ComponentPad*%
%ADD19RoundRect,0.250000X0.600000X0.725000X-0.600000X0.725000X-0.600000X-0.725000X0.600000X-0.725000X0*%
%TD*%
%TA.AperFunction,ViaPad*%
%ADD20C,0.600000*%
%TD*%
%TA.AperFunction,Conductor*%
%ADD21C,0.254000*%
%TD*%
%TA.AperFunction,Conductor*%
%ADD22C,0.508000*%
%TD*%
G04 APERTURE END LIST*
D10*
%TO.P,J4,1,Pin_1_1*%
%TO.N,GND*%
X105403700Y-76835000D03*
D11*
%TO.P,J4,2,Pin_2_2*%
%TO.N,/ESP_TX*%
X107943700Y-76835000D03*
%TO.P,J4,3,Pin_3_3*%
%TO.N,unconnected-(J4-Pin_3-Pad3)*%
X105403700Y-74295000D03*
%TO.P,J4,4,Pin_4_4*%
%TO.N,+3.3V*%
X107943700Y-74295000D03*
%TO.P,J4,5,Pin_5_5*%
%TO.N,Net-(J4-Pin_5)*%
X105403700Y-71755000D03*
%TO.P,J4,6,Pin_6_6*%
%TO.N,+3.3V*%
X107943700Y-71755000D03*
%TO.P,J4,7,Pin_7_7*%
%TO.N,/ESP_RX*%
X105403700Y-69215000D03*
%TO.P,J4,8,Pin_8_8*%
%TO.N,+3.3V*%
X107943700Y-69215000D03*
%TD*%
D12*
%TO.P,J7,1,Pin_1_1*%
%TO.N,/MD_BO1*%
X158794500Y-60731400D03*
D13*
%TO.P,J7,2,Pin_2_2*%
%TO.N,/MD_BO2*%
X161294500Y-60731400D03*
%TD*%
D10*
%TO.P,J1,1,Pin_1_1*%
%TO.N,+3.3V*%
X103397100Y-106400600D03*
D11*
%TO.P,J1,2,Pin_2_2*%
%TO.N,/SWCLK*%
X103397100Y-103860600D03*
%TO.P,J1,3,Pin_3_3*%
%TO.N,GND*%
X103397100Y-101320600D03*
%TO.P,J1,4,Pin_4_4*%
%TO.N,/SWDIO*%
X103397100Y-98780600D03*
%TD*%
D14*
%TO.P,J5,1,Pin_1_1*%
%TO.N,VM*%
X150499500Y-61442600D03*
D13*
%TO.P,J5,2,Pin_2_2*%
%TO.N,GND*%
X147999500Y-61442600D03*
%TD*%
D12*
%TO.P,J6,1,Pin_1_1*%
%TO.N,/MD_AO1*%
X158916100Y-104961200D03*
D13*
%TO.P,J6,2,Pin_2_2*%
%TO.N,/MD_AO2*%
X161416100Y-104961200D03*
%TD*%
D15*
%TO.P,J9,1,Pin_1_1*%
%TO.N,+3.3V*%
X113337043Y-65425082D03*
D16*
%TO.P,J9,2,Pin_2_2*%
%TO.N,GND*%
X115837043Y-65425082D03*
%TO.P,J9,3,Pin_3_3*%
%TO.N,/MT_PWM*%
X118337043Y-65425082D03*
%TO.P,J9,4,Pin_4_4*%
%TO.N,/MT_SCL*%
X120837043Y-65425082D03*
%TO.P,J9,5,Pin_5_5*%
%TO.N,/MT_SDA*%
X123337043Y-65425082D03*
%TD*%
D17*
%TO.P,J3,SH,SHIELD_SH*%
%TO.N,GND*%
X106875900Y-85664400D03*
D18*
X102695900Y-85664400D03*
D17*
X106875900Y-94304400D03*
D18*
X102695900Y-94304400D03*
%TD*%
D10*
%TO.P,J2,1,Pin_1_1*%
%TO.N,+5V*%
X134512100Y-107365800D03*
D11*
%TO.P,J2,2,Pin_2_2*%
%TO.N,GND*%
X137052100Y-107365800D03*
%TO.P,J2,3,Pin_3_3*%
%TO.N,/IMU_SCL*%
X139592100Y-107365800D03*
%TO.P,J2,4,Pin_4_4*%
%TO.N,/IMU_SDA*%
X142132100Y-107365800D03*
%TO.P,J2,5,Pin_5_5*%
%TO.N,unconnected-(J2-Pin_5-Pad5)*%
X144672100Y-107365800D03*
%TO.P,J2,6,Pin_6_6*%
%TO.N,unconnected-(J2-Pin_6-Pad6)*%
X147212100Y-107365800D03*
%TO.P,J2,7,Pin_7_7*%
%TO.N,unconnected-(J2-Pin_7-Pad7)*%
X149752100Y-107365800D03*
%TO.P,J2,8,Pin_8_8*%
%TO.N,/IMU_INT*%
X152292100Y-107365800D03*
%TD*%
D19*
%TO.P,J8,1,Pin_1_1*%
%TO.N,+3.3V*%
X116753700Y-102412800D03*
D16*
%TO.P,J8,2,Pin_2_2*%
%TO.N,/ENC_A*%
X114253700Y-102412800D03*
%TO.P,J8,3,Pin_3_3*%
%TO.N,/ENC_B*%
X111753700Y-102412800D03*
%TO.P,J8,4,Pin_4_4*%
%TO.N,GND*%
X109253700Y-102412800D03*
%TD*%
D20*
%TO.N,GND*%
X139770900Y-58266800D03*
X142270900Y-58366800D03*
X146370900Y-97866800D03*
X137870900Y-108266800D03*
X137570900Y-87066800D03*
X109070900Y-93166800D03*
X112670900Y-86266800D03*
X126170900Y-83366800D03*
X160470900Y-79566800D03*
X141170900Y-68366800D03*
X134770900Y-64766800D03*
X122270900Y-75166800D03*
X149370900Y-92566800D03*
X109170900Y-103866800D03*
X103870900Y-76266800D03*
X149870900Y-85566800D03*
X160870900Y-83766800D03*
X141270900Y-64366800D03*
X120970900Y-77866800D03*
X114670900Y-82266800D03*
X160470900Y-76366800D03*
X104270900Y-100266800D03*
X147970900Y-62866800D03*
X120870900Y-82066800D03*
X134770900Y-65666800D03*
X141170900Y-73066800D03*
X109870900Y-89966800D03*
X134070900Y-79866800D03*
X134970900Y-73166800D03*
X156170900Y-77666800D03*
X140370900Y-91466800D03*
X122470900Y-96266800D03*
X156570900Y-83866800D03*
X138870900Y-64466800D03*
X126370900Y-59966800D03*
X160470900Y-75666800D03*
X159570900Y-87566800D03*
X132670900Y-92166800D03*
X142670900Y-99866800D03*
X112670900Y-93661000D03*
X143470900Y-89866800D03*
X138970900Y-68366800D03*
X109070900Y-86766800D03*
X127670900Y-83366800D03*
X145770900Y-88666800D03*
X134570900Y-95866800D03*
X133070900Y-83566800D03*
X140470900Y-87266800D03*
X138870900Y-73066800D03*
X126270900Y-78666800D03*
X125070900Y-71766800D03*
X115870900Y-66866800D03*
X133770900Y-86366800D03*
X124070900Y-104466800D03*
X159570900Y-86466800D03*
X160470900Y-80266800D03*
X122470900Y-91066800D03*
%TO.N,+3.3V*%
X133070900Y-102966800D03*
X127270900Y-91366800D03*
X157678900Y-78966800D03*
X131827544Y-104210156D03*
X145170900Y-75730100D03*
X125841044Y-91409944D03*
X145170900Y-78966800D03*
X156170900Y-78966800D03*
%TO.N,Vusb*%
X153164141Y-65173559D03*
X154570900Y-63766800D03*
%TO.N,+5V*%
X146970900Y-75666800D03*
X150370900Y-82266800D03*
%TO.N,/MD_PWMB*%
X148870900Y-77666800D03*
X148870900Y-75666800D03*
%TO.N,/MT_PWM*%
X117943900Y-83566800D03*
X119870900Y-83566800D03*
%TD*%
%TO.N,+3.3V*%
D21*
X131827544Y-104210156D02*
X133070900Y-102966800D01*
X156170900Y-78966800D02*
X157678900Y-78966800D01*
X145170900Y-78966800D02*
X145170900Y-75730100D01*
X127227756Y-91409944D02*
X127270900Y-91366800D01*
X125841044Y-91409944D02*
X127227756Y-91409944D01*
%TO.N,Vusb*%
D22*
X154570900Y-63766800D02*
X153164141Y-65173559D01*
%TO.N,+5V*%
X146970900Y-78866800D02*
X146970900Y-75666800D01*
X150370900Y-82266800D02*
X146970900Y-78866800D01*
%TO.N,/MD_PWMB*%
D21*
X148870900Y-75666800D02*
X148870900Y-77666800D01*
%TO.N,/MT_PWM*%
X119870900Y-83566800D02*
X117943900Y-83566800D01*
%TD*%
%TA.AperFunction,Conductor*%
%TO.N,GND*%
G36*
X115268320Y-57208512D02*
G01*
X115314075Y-57261316D01*
X115324019Y-57330474D01*
X115294994Y-57394030D01*
X115263281Y-57420214D01*
X115078380Y-57526965D01*
X114861233Y-57693588D01*
X114861226Y-57693594D01*
X114667694Y-57887126D01*
X114667688Y-57887133D01*
X114501065Y-58104280D01*
X114364213Y-58341316D01*
X114364209Y-58341326D01*
X114259468Y-58594193D01*
X114188625Y-58858580D01*
X114152901Y-59129934D01*
X114152900Y-59129951D01*
X114152900Y-59403648D01*
X114152901Y-59403665D01*
X114186919Y-59662063D01*
X114188626Y-59675023D01*
X114190704Y-59682777D01*
X114259468Y-59939406D01*
X114364209Y-60192273D01*
X114364213Y-60192283D01*
X114501065Y-60429319D01*
X114667688Y-60646466D01*
X114667694Y-60646473D01*
X114861226Y-60840005D01*
X114861233Y-60840011D01*
X115078380Y-61006634D01*
X115315416Y-61143486D01*
X115315417Y-61143486D01*
X115315420Y-61143488D01*
X115568294Y-61248232D01*
X115832677Y-61319074D01*
X116104045Y-61354800D01*
X116104052Y-61354800D01*
X116377748Y-61354800D01*
X116377755Y-61354800D01*
X116649123Y-61319074D01*
X116913506Y-61248232D01*
X117062895Y-61186353D01*
X146649500Y-61186353D01*
X146649500Y-61192600D01*
X147566488Y-61192600D01*
X147533575Y-61249607D01*
X147499500Y-61376774D01*
X147499500Y-61508426D01*
X147533575Y-61635593D01*
X147566488Y-61692600D01*
X146649500Y-61692600D01*
X146649500Y-61698846D01*
X146682742Y-61908727D01*
X146682742Y-61908730D01*
X146748404Y-62110817D01*
X146844879Y-62300157D01*
X146969772Y-62472059D01*
X146969776Y-62472064D01*
X147120035Y-62622323D01*
X147120040Y-62622327D01*
X147291942Y-62747220D01*
X147481282Y-62843695D01*
X147683371Y-62909357D01*
X147749500Y-62919831D01*
X147749500Y-61875612D01*
X147806507Y-61908525D01*
X147933674Y-61942600D01*
X148065326Y-61942600D01*
X148192493Y-61908525D01*
X148249500Y-61875612D01*
X148249500Y-62919830D01*
X148315626Y-62909357D01*
X148315629Y-62909357D01*
X148517717Y-62843695D01*
X148707057Y-62747220D01*
X148878958Y-62622328D01*
X149017830Y-62483456D01*
X149079153Y-62449971D01*
X149148845Y-62454955D01*
X149204779Y-62496826D01*
X149211051Y-62506040D01*
X149214685Y-62511931D01*
X149214686Y-62511934D01*
X149306788Y-62661256D01*
X149430844Y-62785312D01*
X149580166Y-62877414D01*
X149746703Y-62932599D01*
X149849491Y-62943100D01*
X151149508Y-62943099D01*
X151252297Y-62932599D01*
X151418834Y-62877414D01*
X151568156Y-62785312D01*
X151692212Y-62661256D01*
X151784314Y-62511934D01*
X151839499Y-62345397D01*
X151850000Y-62242609D01*
X151849999Y-60642592D01*
X151839499Y-60539803D01*
X151784314Y-60373266D01*
X151692212Y-60223944D01*
X151568156Y-60099888D01*
X151418834Y-60007786D01*
X151252297Y-59952601D01*
X151252295Y-59952600D01*
X151149510Y-59942100D01*
X149849498Y-59942100D01*
X149849481Y-59942101D01*
X149746703Y-59952600D01*
X149746700Y-59952601D01*
X149580168Y-60007785D01*
X149580163Y-60007787D01*
X149430842Y-60099889D01*
X149306789Y-60223942D01*
X149211051Y-60379159D01*
X149159103Y-60425883D01*
X149090140Y-60437106D01*
X149026058Y-60409262D01*
X149017831Y-60401743D01*
X148878964Y-60262876D01*
X148878959Y-60262872D01*
X148707057Y-60137979D01*
X148517715Y-60041503D01*
X148315624Y-59975841D01*
X148249500Y-59965368D01*
X148249500Y-61009588D01*
X148192493Y-60976675D01*
X148065326Y-60942600D01*
X147933674Y-60942600D01*
X147806507Y-60976675D01*
X147749500Y-61009588D01*
X147749500Y-59965368D01*
X147749499Y-59965368D01*
X147683375Y-59975841D01*
X147481284Y-60041503D01*
X147291942Y-60137979D01*
X147120040Y-60262872D01*
X147120035Y-60262876D01*
X146969776Y-60413135D01*
X146969772Y-60413140D01*
X146844879Y-60585042D01*
X146748404Y-60774382D01*
X146682742Y-60976469D01*
X146682742Y-60976472D01*
X146649500Y-61186353D01*
X117062895Y-61186353D01*
X117166380Y-61143488D01*
X117403420Y-61006634D01*
X117620568Y-60840010D01*
X117814110Y-60646468D01*
X117980734Y-60429320D01*
X118117588Y-60192280D01*
X118222332Y-59939406D01*
X118224482Y-59931383D01*
X157444000Y-59931383D01*
X157444000Y-61531401D01*
X157444001Y-61531418D01*
X157454500Y-61634196D01*
X157454501Y-61634199D01*
X157500394Y-61772694D01*
X157509686Y-61800734D01*
X157601788Y-61950056D01*
X157725844Y-62074112D01*
X157875166Y-62166214D01*
X158041703Y-62221399D01*
X158144491Y-62231900D01*
X159444508Y-62231899D01*
X159547297Y-62221399D01*
X159713834Y-62166214D01*
X159863156Y-62074112D01*
X159987212Y-61950056D01*
X160079314Y-61800734D01*
X160079314Y-61800731D01*
X160082678Y-61795279D01*
X160134626Y-61748554D01*
X160203588Y-61737331D01*
X160267670Y-61765174D01*
X160275898Y-61772694D01*
X160414713Y-61911509D01*
X160586679Y-62036448D01*
X160586681Y-62036449D01*
X160586684Y-62036451D01*
X160776088Y-62132957D01*
X160978257Y-62198646D01*
X161188213Y-62231900D01*
X161188214Y-62231900D01*
X161400786Y-62231900D01*
X161400787Y-62231900D01*
X161610743Y-62198646D01*
X161812912Y-62132957D01*
X162002316Y-62036451D01*
X162024289Y-62020486D01*
X162174286Y-61911509D01*
X162174288Y-61911506D01*
X162174292Y-61911504D01*
X162324604Y-61761192D01*
X162324606Y-61761188D01*
X162324609Y-61761186D01*
X162449548Y-61589220D01*
X162449547Y-61589220D01*
X162449551Y-61589216D01*
X162546057Y-61399812D01*
X162611746Y-61197643D01*
X162645000Y-60987687D01*
X162645000Y-60475113D01*
X162611746Y-60265157D01*
X162546057Y-60062988D01*
X162449551Y-59873584D01*
X162449549Y-59873581D01*
X162449548Y-59873579D01*
X162324609Y-59701613D01*
X162174286Y-59551290D01*
X162002320Y-59426351D01*
X161812914Y-59329844D01*
X161812913Y-59329843D01*
X161812912Y-59329843D01*
X161610743Y-59264154D01*
X161610741Y-59264153D01*
X161610740Y-59264153D01*
X161449457Y-59238608D01*
X161400787Y-59230900D01*
X161188213Y-59230900D01*
X161139542Y-59238608D01*
X160978260Y-59264153D01*
X160776085Y-59329844D01*
X160586679Y-59426351D01*
X160414715Y-59551289D01*
X160275898Y-59690106D01*
X160214575Y-59723590D01*
X160144883Y-59718606D01*
X160088950Y-59676734D01*
X160082678Y-59667520D01*
X159987212Y-59512744D01*
X159863157Y-59388689D01*
X159863156Y-59388688D01*
X159713834Y-59296586D01*
X159547297Y-59241401D01*
X159547295Y-59241400D01*
X159444510Y-59230900D01*
X158144498Y-59230900D01*
X158144481Y-59230901D01*
X158041703Y-59241400D01*
X158041700Y-59241401D01*
X157875168Y-59296585D01*
X157875163Y-59296587D01*
X157725842Y-59388689D01*
X157601789Y-59512742D01*
X157509687Y-59662063D01*
X157509685Y-59662068D01*
X157505394Y-59675019D01*
X157454501Y-59828603D01*
X157454501Y-59828604D01*
X157454500Y-59828604D01*
X157444000Y-59931383D01*
X118224482Y-59931383D01*
X118293174Y-59675023D01*
X118328900Y-59403655D01*
X118328900Y-59129945D01*
X118293174Y-58858577D01*
X118222332Y-58594194D01*
X118117588Y-58341320D01*
X118116814Y-58339980D01*
X117980734Y-58104280D01*
X117814111Y-57887133D01*
X117814105Y-57887126D01*
X117620573Y-57693594D01*
X117620566Y-57693588D01*
X117403419Y-57526965D01*
X117218519Y-57420214D01*
X117170304Y-57369648D01*
X117157080Y-57301041D01*
X117183048Y-57236176D01*
X117239962Y-57195647D01*
X117280519Y-57188827D01*
X165217432Y-57188827D01*
X165284471Y-57208512D01*
X165305113Y-57225146D01*
X166504081Y-58424114D01*
X166537566Y-58485437D01*
X166540400Y-58511795D01*
X166540400Y-69677788D01*
X166539648Y-69740706D01*
X166540400Y-69743652D01*
X166540400Y-69746692D01*
X166552543Y-69792013D01*
X166556475Y-69806687D01*
X166556850Y-69808120D01*
X166572231Y-69868397D01*
X166573580Y-69871768D01*
X166573603Y-69871824D01*
X166574379Y-69873763D01*
X166605574Y-69927794D01*
X166606308Y-69929082D01*
X166636754Y-69983303D01*
X166639002Y-69986306D01*
X166640224Y-69987938D01*
X166684320Y-70032034D01*
X166685362Y-70033088D01*
X168985123Y-72388489D01*
X169017873Y-72450207D01*
X169020400Y-72475115D01*
X169020400Y-73296619D01*
X169000715Y-73363658D01*
X168947911Y-73409413D01*
X168878753Y-73419357D01*
X168815197Y-73390332D01*
X168789013Y-73358619D01*
X168780734Y-73344280D01*
X168614111Y-73127133D01*
X168614105Y-73127126D01*
X168420573Y-72933594D01*
X168420566Y-72933588D01*
X168203419Y-72766965D01*
X167966383Y-72630113D01*
X167966373Y-72630109D01*
X167713506Y-72525368D01*
X167449119Y-72454525D01*
X167177765Y-72418801D01*
X167177760Y-72418800D01*
X167177755Y-72418800D01*
X166904045Y-72418800D01*
X166904039Y-72418800D01*
X166904034Y-72418801D01*
X166632680Y-72454525D01*
X166368293Y-72525368D01*
X166115426Y-72630109D01*
X166115416Y-72630113D01*
X165878380Y-72766965D01*
X165661233Y-72933588D01*
X165661226Y-72933594D01*
X165467694Y-73127126D01*
X165467688Y-73127133D01*
X165301065Y-73344280D01*
X165164213Y-73581316D01*
X165164209Y-73581326D01*
X165059468Y-73834193D01*
X164988625Y-74098580D01*
X164952901Y-74369934D01*
X164952900Y-74369951D01*
X164952900Y-74643648D01*
X164952901Y-74643665D01*
X164988625Y-74915019D01*
X165059468Y-75179406D01*
X165164209Y-75432273D01*
X165164213Y-75432283D01*
X165301065Y-75669319D01*
X165467688Y-75886466D01*
X165467694Y-75886473D01*
X165661226Y-76080005D01*
X165661233Y-76080011D01*
X165878380Y-76246634D01*
X166115416Y-76383486D01*
X166115417Y-76383486D01*
X166115420Y-76383488D01*
X166368294Y-76488232D01*
X166632677Y-76559074D01*
X166904045Y-76594800D01*
X166904052Y-76594800D01*
X167177748Y-76594800D01*
X167177755Y-76594800D01*
X167449123Y-76559074D01*
X167713506Y-76488232D01*
X167966380Y-76383488D01*
X168203420Y-76246634D01*
X168420568Y-76080010D01*
X168614110Y-75886468D01*
X168780734Y-75669320D01*
X168789011Y-75654982D01*
X168839577Y-75606766D01*
X168908184Y-75593541D01*
X168973049Y-75619508D01*
X169013579Y-75676421D01*
X169020400Y-75716980D01*
X169020400Y-101236619D01*
X169000715Y-101303658D01*
X168947911Y-101349413D01*
X168878753Y-101359357D01*
X168815197Y-101330332D01*
X168789013Y-101298619D01*
X168780734Y-101284280D01*
X168614111Y-101067133D01*
X168614105Y-101067126D01*
X168420573Y-100873594D01*
X168420566Y-100873588D01*
X168203419Y-100706965D01*
X167966383Y-100570113D01*
X167966373Y-100570109D01*
X167713506Y-100465368D01*
X167449119Y-100394525D01*
X167177765Y-100358801D01*
X167177760Y-100358800D01*
X167177755Y-100358800D01*
X166904045Y-100358800D01*
X166904039Y-100358800D01*
X166904034Y-100358801D01*
X166632680Y-100394525D01*
X166368293Y-100465368D01*
X166115426Y-100570109D01*
X166115416Y-100570113D01*
X165878380Y-100706965D01*
X165661233Y-100873588D01*
X165661226Y-100873594D01*
X165467694Y-101067126D01*
X165467688Y-101067133D01*
X165301065Y-101284280D01*
X165164213Y-101521316D01*
X165164209Y-101521326D01*
X165059468Y-101774193D01*
X164988625Y-102038580D01*
X164952901Y-102309934D01*
X164952900Y-102309951D01*
X164952900Y-102583648D01*
X164952901Y-102583665D01*
X164988625Y-102855019D01*
X165059468Y-103119406D01*
X165164209Y-103372273D01*
X165164213Y-103372283D01*
X165301065Y-103609319D01*
X165467688Y-103826466D01*
X165467694Y-103826473D01*
X165661226Y-104020005D01*
X165661233Y-104020011D01*
X165878380Y-104186634D01*
X166115416Y-104323486D01*
X166115417Y-104323486D01*
X166115420Y-104323488D01*
X166368294Y-104428232D01*
X166632677Y-104499074D01*
X166904045Y-104534800D01*
X166904052Y-104534800D01*
X167177748Y-104534800D01*
X167177755Y-104534800D01*
X167449123Y-104499074D01*
X167713506Y-104428232D01*
X167966380Y-104323488D01*
X168203420Y-104186634D01*
X168420568Y-104020010D01*
X168614110Y-103826468D01*
X168780734Y-103609320D01*
X168789011Y-103594982D01*
X168839577Y-103546766D01*
X168908184Y-103533541D01*
X168973049Y-103559508D01*
X169013579Y-103616421D01*
X169020400Y-103656980D01*
X169020400Y-104732483D01*
X169000715Y-104799522D01*
X168985123Y-104819110D01*
X166685362Y-107174510D01*
X166685361Y-107174509D01*
X166684741Y-107175143D01*
X166640400Y-107219486D01*
X166638882Y-107222114D01*
X166636756Y-107224292D01*
X166606303Y-107278521D01*
X166606304Y-107278522D01*
X166605923Y-107279199D01*
X166574508Y-107333614D01*
X166573721Y-107336549D01*
X166572230Y-107339205D01*
X166556838Y-107399521D01*
X166556641Y-107400291D01*
X166540400Y-107460908D01*
X166540400Y-107463941D01*
X166539648Y-107466889D01*
X166540391Y-107529057D01*
X166540400Y-107530539D01*
X166540400Y-109442300D01*
X166520715Y-109509339D01*
X166467911Y-109555094D01*
X166416400Y-109566300D01*
X116047157Y-109566300D01*
X115980118Y-109546615D01*
X115934363Y-109493811D01*
X115924419Y-109424653D01*
X115953444Y-109361097D01*
X115985157Y-109334913D01*
X116031935Y-109307905D01*
X116103420Y-109266634D01*
X116320568Y-109100010D01*
X116514110Y-108906468D01*
X116680734Y-108689320D01*
X116817588Y-108452280D01*
X116922332Y-108199406D01*
X116993174Y-107935023D01*
X117028900Y-107663655D01*
X117028900Y-107389945D01*
X116993174Y-107118577D01*
X116922332Y-106854194D01*
X116817588Y-106601320D01*
X116816814Y-106599980D01*
X116781027Y-106537995D01*
X123204999Y-106537995D01*
X123231918Y-106673322D01*
X123231921Y-106673332D01*
X123284721Y-106800804D01*
X123284728Y-106800817D01*
X123361385Y-106915541D01*
X123361388Y-106915545D01*
X123458954Y-107013111D01*
X123458958Y-107013114D01*
X123573682Y-107089771D01*
X123573695Y-107089778D01*
X123701167Y-107142578D01*
X123701172Y-107142580D01*
X123701176Y-107142580D01*
X123701177Y-107142581D01*
X123836504Y-107169500D01*
X123836507Y-107169500D01*
X123974495Y-107169500D01*
X124065541Y-107151389D01*
X124109828Y-107142580D01*
X124237311Y-107089775D01*
X124352042Y-107013114D01*
X124449614Y-106915542D01*
X124526275Y-106800811D01*
X124579080Y-106673328D01*
X124593402Y-106601326D01*
X124606000Y-106537995D01*
X126204999Y-106537995D01*
X126231918Y-106673322D01*
X126231921Y-106673332D01*
X126284721Y-106800804D01*
X126284728Y-106800817D01*
X126361385Y-106915541D01*
X126361388Y-106915545D01*
X126458954Y-107013111D01*
X126458958Y-107013114D01*
X126573682Y-107089771D01*
X126573695Y-107089778D01*
X126701167Y-107142578D01*
X126701172Y-107142580D01*
X126701176Y-107142580D01*
X126701177Y-107142581D01*
X126836504Y-107169500D01*
X126836507Y-107169500D01*
X126974495Y-107169500D01*
X127065541Y-107151389D01*
X127109828Y-107142580D01*
X127237311Y-107089775D01*
X127352042Y-107013114D01*
X127449614Y-106915542D01*
X127526275Y-106800811D01*
X127579080Y-106673328D01*
X127593402Y-106601326D01*
X127606000Y-106537995D01*
X127606000Y-106467935D01*
X133161600Y-106467935D01*
X133161600Y-108263670D01*
X133161601Y-108263676D01*
X133168008Y-108323283D01*
X133218302Y-108458128D01*
X133218306Y-108458135D01*
X133304552Y-108573344D01*
X133304555Y-108573347D01*
X133419764Y-108659593D01*
X133419771Y-108659597D01*
X133554617Y-108709891D01*
X133554616Y-108709891D01*
X133561544Y-108710635D01*
X133614227Y-108716300D01*
X135409972Y-108716299D01*
X135469583Y-108709891D01*
X135604431Y-108659596D01*
X135719646Y-108573346D01*
X135805896Y-108458131D01*
X135856191Y-108323283D01*
X135862600Y-108263673D01*
X135862599Y-108239779D01*
X135865430Y-108226763D01*
X135876040Y-108207325D01*
X135882279Y-108186075D01*
X135898903Y-108165443D01*
X135898908Y-108165436D01*
X135898911Y-108165434D01*
X135898918Y-108165426D01*
X136569137Y-107495208D01*
X136586175Y-107558793D01*
X136652001Y-107672807D01*
X136745093Y-107765899D01*
X136859107Y-107831725D01*
X136922690Y-107848762D01*
X136290382Y-108481069D01*
X136290382Y-108481070D01*
X136344549Y-108520424D01*
X136533882Y-108616895D01*
X136735970Y-108682557D01*
X136945854Y-108715800D01*
X137158346Y-108715800D01*
X137368227Y-108682557D01*
X137368230Y-108682557D01*
X137570317Y-108616895D01*
X137759654Y-108520422D01*
X137813816Y-108481070D01*
X137813817Y-108481070D01*
X137181508Y-107848762D01*
X137245093Y-107831725D01*
X137359107Y-107765899D01*
X137452199Y-107672807D01*
X137518025Y-107558793D01*
X137535062Y-107495208D01*
X138167370Y-108127517D01*
X138167370Y-108127516D01*
X138206722Y-108073355D01*
X138211332Y-108064307D01*
X138259305Y-108013509D01*
X138327125Y-107996712D01*
X138393261Y-108019247D01*
X138432304Y-108064304D01*
X138437049Y-108073617D01*
X138561990Y-108245586D01*
X138712313Y-108395909D01*
X138884279Y-108520848D01*
X138884281Y-108520849D01*
X138884284Y-108520851D01*
X139073688Y-108617357D01*
X139275857Y-108683046D01*
X139485813Y-108716300D01*
X139485814Y-108716300D01*
X139698386Y-108716300D01*
X139698387Y-108716300D01*
X139908343Y-108683046D01*
X140110512Y-108617357D01*
X140299916Y-108520851D01*
X140386238Y-108458135D01*
X140471886Y-108395909D01*
X140471888Y-108395906D01*
X140471892Y-108395904D01*
X140622204Y-108245592D01*
X140622206Y-108245588D01*
X140622209Y-108245586D01*
X140747148Y-108073620D01*
X140747150Y-108073617D01*
X140747151Y-108073616D01*
X140751614Y-108064854D01*
X140799588Y-108014059D01*
X140867408Y-107997263D01*
X140933544Y-108019799D01*
X140972586Y-108064856D01*
X140977051Y-108073620D01*
X141101990Y-108245586D01*
X141252313Y-108395909D01*
X141424279Y-108520848D01*
X141424281Y-108520849D01*
X141424284Y-108520851D01*
X141613688Y-108617357D01*
X141815857Y-108683046D01*
X142025813Y-108716300D01*
X142025814Y-108716300D01*
X142238386Y-108716300D01*
X142238387Y-108716300D01*
X142448343Y-108683046D01*
X142650512Y-108617357D01*
X142839916Y-108520851D01*
X142926238Y-108458135D01*
X143011886Y-108395909D01*
X143011888Y-108395906D01*
X143011892Y-108395904D01*
X143162204Y-108245592D01*
X143162206Y-108245588D01*
X143162209Y-108245586D01*
X143287148Y-108073620D01*
X143287150Y-108073617D01*
X143287151Y-108073616D01*
X143291614Y-108064854D01*
X143339588Y-108014059D01*
X143407408Y-107997263D01*
X143473544Y-108019799D01*
X143512586Y-108064856D01*
X143517051Y-108073620D01*
X143641990Y-108245586D01*
X143792313Y-108395909D01*
X143964279Y-108520848D01*
X143964281Y-108520849D01*
X143964284Y-108520851D01*
X144153688Y-108617357D01*
X144355857Y-108683046D01*
X144565813Y-108716300D01*
X144565814Y-108716300D01*
X144778386Y-108716300D01*
X144778387Y-108716300D01*
X144988343Y-108683046D01*
X145190512Y-108617357D01*
X145379916Y-108520851D01*
X145466238Y-108458135D01*
X145551886Y-108395909D01*
X145551888Y-108395906D01*
X145551892Y-108395904D01*
X145702204Y-108245592D01*
X145702206Y-108245588D01*
X145702209Y-108245586D01*
X145827148Y-108073620D01*
X145827150Y-108073617D01*
X145827151Y-108073616D01*
X145831614Y-108064854D01*
X145879588Y-108014059D01*
X145947408Y-107997263D01*
X146013544Y-108019799D01*
X146052586Y-108064856D01*
X146057051Y-108073620D01*
X146181990Y-108245586D01*
X146332313Y-108395909D01*
X146504279Y-108520848D01*
X146504281Y-108520849D01*
X146504284Y-108520851D01*
X146693688Y-108617357D01*
X146895857Y-108683046D01*
X147105813Y-108716300D01*
X147105814Y-108716300D01*
X147318386Y-108716300D01*
X147318387Y-108716300D01*
X147528343Y-108683046D01*
X147730512Y-108617357D01*
X147919916Y-108520851D01*
X148006238Y-108458135D01*
X148091886Y-108395909D01*
X148091888Y-108395906D01*
X148091892Y-108395904D01*
X148242204Y-108245592D01*
X148242206Y-108245588D01*
X148242209Y-108245586D01*
X148367148Y-108073620D01*
X148367150Y-108073617D01*
X148367151Y-108073616D01*
X148371614Y-108064854D01*
X148419588Y-108014059D01*
X148487408Y-107997263D01*
X148553544Y-108019799D01*
X148592586Y-108064856D01*
X148597051Y-108073620D01*
X148721990Y-108245586D01*
X148872313Y-108395909D01*
X149044279Y-108520848D01*
X149044281Y-108520849D01*
X149044284Y-108520851D01*
X149233688Y-108617357D01*
X149435857Y-108683046D01*
X149645813Y-108716300D01*
X149645814Y-108716300D01*
X149858386Y-108716300D01*
X149858387Y-108716300D01*
X150068343Y-108683046D01*
X150270512Y-108617357D01*
X150459916Y-108520851D01*
X150546238Y-108458135D01*
X150631886Y-108395909D01*
X150631888Y-108395906D01*
X150631892Y-108395904D01*
X150782204Y-108245592D01*
X150782206Y-108245588D01*
X150782209Y-108245586D01*
X150907148Y-108073620D01*
X150907150Y-108073617D01*
X150907151Y-108073616D01*
X150911614Y-108064854D01*
X150959588Y-108014059D01*
X151027408Y-107997263D01*
X151093544Y-108019799D01*
X151132586Y-108064856D01*
X151137051Y-108073620D01*
X151261990Y-108245586D01*
X151412313Y-108395909D01*
X151584279Y-108520848D01*
X151584281Y-108520849D01*
X151584284Y-108520851D01*
X151773688Y-108617357D01*
X151975857Y-108683046D01*
X152185813Y-108716300D01*
X152185814Y-108716300D01*
X152398386Y-108716300D01*
X152398387Y-108716300D01*
X152608343Y-108683046D01*
X152810512Y-108617357D01*
X152999916Y-108520851D01*
X153086238Y-108458135D01*
X153171886Y-108395909D01*
X153171888Y-108395906D01*
X153171892Y-108395904D01*
X153322204Y-108245592D01*
X153322206Y-108245588D01*
X153322209Y-108245586D01*
X153447148Y-108073620D01*
X153447150Y-108073617D01*
X153447151Y-108073616D01*
X153543657Y-107884212D01*
X153609346Y-107682043D01*
X153642600Y-107472087D01*
X153642600Y-107259513D01*
X153609346Y-107049557D01*
X153543657Y-106847388D01*
X153447151Y-106657984D01*
X153447149Y-106657981D01*
X153447148Y-106657979D01*
X153322209Y-106486013D01*
X153171886Y-106335690D01*
X152999920Y-106210751D01*
X152810514Y-106114244D01*
X152810513Y-106114243D01*
X152810512Y-106114243D01*
X152608343Y-106048554D01*
X152608341Y-106048553D01*
X152608340Y-106048553D01*
X152447057Y-106023008D01*
X152398387Y-106015300D01*
X152185813Y-106015300D01*
X152137142Y-106023008D01*
X151975860Y-106048553D01*
X151773685Y-106114244D01*
X151584279Y-106210751D01*
X151412313Y-106335690D01*
X151261990Y-106486013D01*
X151137049Y-106657982D01*
X151132584Y-106666746D01*
X151084609Y-106717542D01*
X151016788Y-106734336D01*
X150950653Y-106711798D01*
X150911616Y-106666746D01*
X150907150Y-106657982D01*
X150782209Y-106486013D01*
X150631886Y-106335690D01*
X150459920Y-106210751D01*
X150270514Y-106114244D01*
X150270513Y-106114243D01*
X150270512Y-106114243D01*
X150068343Y-106048554D01*
X150068341Y-106048553D01*
X150068340Y-106048553D01*
X149907057Y-106023008D01*
X149858387Y-106015300D01*
X149645813Y-106015300D01*
X149597142Y-106023008D01*
X149435860Y-106048553D01*
X149233685Y-106114244D01*
X149044279Y-106210751D01*
X148872313Y-106335690D01*
X148721990Y-106486013D01*
X148597049Y-106657982D01*
X148592584Y-106666746D01*
X148544609Y-106717542D01*
X148476788Y-106734336D01*
X148410653Y-106711798D01*
X148371616Y-106666746D01*
X148367150Y-106657982D01*
X148242209Y-106486013D01*
X148091886Y-106335690D01*
X147919920Y-106210751D01*
X147730514Y-106114244D01*
X147730513Y-106114243D01*
X147730512Y-106114243D01*
X147528343Y-106048554D01*
X147528341Y-106048553D01*
X147528340Y-106048553D01*
X147367057Y-106023008D01*
X147318387Y-106015300D01*
X147105813Y-106015300D01*
X147057142Y-106023008D01*
X146895860Y-106048553D01*
X146693685Y-106114244D01*
X146504279Y-106210751D01*
X146332313Y-106335690D01*
X146181990Y-106486013D01*
X146057049Y-106657982D01*
X146052584Y-106666746D01*
X146004609Y-106717542D01*
X145936788Y-106734336D01*
X145870653Y-106711798D01*
X145831616Y-106666746D01*
X145827150Y-106657982D01*
X145702209Y-106486013D01*
X145551886Y-106335690D01*
X145379920Y-106210751D01*
X145190514Y-106114244D01*
X145190513Y-106114243D01*
X145190512Y-106114243D01*
X144988343Y-106048554D01*
X144988341Y-106048553D01*
X144988340Y-106048553D01*
X144827057Y-106023008D01*
X144778387Y-106015300D01*
X144565813Y-106015300D01*
X144517142Y-106023008D01*
X144355860Y-106048553D01*
X144153685Y-106114244D01*
X143964279Y-106210751D01*
X143792313Y-106335690D01*
X143641990Y-106486013D01*
X143517049Y-106657982D01*
X143512584Y-106666746D01*
X143464609Y-106717542D01*
X143396788Y-106734336D01*
X143330653Y-106711798D01*
X143291616Y-106666746D01*
X143287150Y-106657982D01*
X143162209Y-106486013D01*
X143011886Y-106335690D01*
X142839920Y-106210751D01*
X142650514Y-106114244D01*
X142650513Y-106114243D01*
X142650512Y-106114243D01*
X142448343Y-106048554D01*
X142448341Y-106048553D01*
X142448340Y-106048553D01*
X142287057Y-106023008D01*
X142238387Y-106015300D01*
X142025813Y-106015300D01*
X141977142Y-106023008D01*
X141815860Y-106048553D01*
X141613685Y-106114244D01*
X141424279Y-106210751D01*
X141252313Y-106335690D01*
X141101990Y-106486013D01*
X140977049Y-106657982D01*
X140972584Y-106666746D01*
X140924609Y-106717542D01*
X140856788Y-106734336D01*
X140790653Y-106711798D01*
X140751616Y-106666746D01*
X140747150Y-106657982D01*
X140622209Y-106486013D01*
X140471886Y-106335690D01*
X140299920Y-106210751D01*
X140110514Y-106114244D01*
X140110513Y-106114243D01*
X140110512Y-106114243D01*
X139908343Y-106048554D01*
X139908341Y-106048553D01*
X139908340Y-106048553D01*
X139747057Y-106023008D01*
X139698387Y-106015300D01*
X139485813Y-106015300D01*
X139437142Y-106023008D01*
X139275860Y-106048553D01*
X139073685Y-106114244D01*
X138884279Y-106210751D01*
X138712313Y-106335690D01*
X138561990Y-106486013D01*
X138437049Y-106657982D01*
X138432302Y-106667299D01*
X138384327Y-106718093D01*
X138316505Y-106734887D01*
X138250371Y-106712348D01*
X138211334Y-106667295D01*
X138206726Y-106658252D01*
X138167370Y-106604082D01*
X138167369Y-106604082D01*
X137535062Y-107236390D01*
X137518025Y-107172807D01*
X137452199Y-107058793D01*
X137359107Y-106965701D01*
X137245093Y-106899875D01*
X137181509Y-106882837D01*
X137813816Y-106250528D01*
X137759650Y-106211175D01*
X137570317Y-106114704D01*
X137368229Y-106049042D01*
X137158346Y-106015800D01*
X136945854Y-106015800D01*
X136735972Y-106049042D01*
X136735969Y-106049042D01*
X136533882Y-106114704D01*
X136344539Y-106211180D01*
X136290382Y-106250527D01*
X136290382Y-106250528D01*
X136922691Y-106882837D01*
X136859107Y-106899875D01*
X136745093Y-106965701D01*
X136652001Y-107058793D01*
X136586175Y-107172807D01*
X136569137Y-107236391D01*
X135898918Y-106566172D01*
X135865433Y-106504849D01*
X135865430Y-106504836D01*
X135862599Y-106491815D01*
X135862599Y-106467928D01*
X135856191Y-106408317D01*
X135828026Y-106332802D01*
X135805898Y-106273473D01*
X135805893Y-106273464D01*
X135719647Y-106158255D01*
X135719644Y-106158252D01*
X135604435Y-106072006D01*
X135604428Y-106072002D01*
X135469582Y-106021708D01*
X135469583Y-106021708D01*
X135409983Y-106015301D01*
X135409981Y-106015300D01*
X135409973Y-106015300D01*
X135409964Y-106015300D01*
X133614229Y-106015300D01*
X133614223Y-106015301D01*
X133554616Y-106021708D01*
X133419771Y-106072002D01*
X133419764Y-106072006D01*
X133304555Y-106158252D01*
X133304552Y-106158255D01*
X133218306Y-106273464D01*
X133218302Y-106273471D01*
X133168008Y-106408317D01*
X133161601Y-106467916D01*
X133161600Y-106467935D01*
X127606000Y-106467935D01*
X127606000Y-106400004D01*
X127579081Y-106264677D01*
X127579080Y-106264676D01*
X127579080Y-106264672D01*
X127579078Y-106264667D01*
X127526278Y-106137195D01*
X127526271Y-106137182D01*
X127449614Y-106022458D01*
X127449611Y-106022454D01*
X127352045Y-105924888D01*
X127352041Y-105924885D01*
X127237317Y-105848228D01*
X127237304Y-105848221D01*
X127109832Y-105795421D01*
X127109822Y-105795418D01*
X126974495Y-105768500D01*
X126974493Y-105768500D01*
X126836507Y-105768500D01*
X126836505Y-105768500D01*
X126701177Y-105795418D01*
X126701167Y-105795421D01*
X126573695Y-105848221D01*
X126573682Y-105848228D01*
X126458958Y-105924885D01*
X126458954Y-105924888D01*
X126361388Y-106022454D01*
X126361385Y-106022458D01*
X126284728Y-106137182D01*
X126284721Y-106137195D01*
X126231921Y-106264667D01*
X126231918Y-106264677D01*
X126205000Y-106400004D01*
X126205000Y-106400007D01*
X126205000Y-106537993D01*
X126205000Y-106537995D01*
X126204999Y-106537995D01*
X124606000Y-106537995D01*
X124606000Y-106400004D01*
X124579081Y-106264677D01*
X124579080Y-106264676D01*
X124579080Y-106264672D01*
X124579078Y-106264667D01*
X124526278Y-106137195D01*
X124526271Y-106137182D01*
X124449614Y-106022458D01*
X124449611Y-106022454D01*
X124352045Y-105924888D01*
X124352041Y-105924885D01*
X124237317Y-105848228D01*
X124237304Y-105848221D01*
X124109832Y-105795421D01*
X124109822Y-105795418D01*
X123974495Y-105768500D01*
X123974493Y-105768500D01*
X123836507Y-105768500D01*
X123836505Y-105768500D01*
X123701177Y-105795418D01*
X123701167Y-105795421D01*
X123573695Y-105848221D01*
X123573682Y-105848228D01*
X123458958Y-105924885D01*
X123458954Y-105924888D01*
X123361388Y-106022454D01*
X123361385Y-106022458D01*
X123284728Y-106137182D01*
X123284721Y-106137195D01*
X123231921Y-106264667D01*
X123231918Y-106264677D01*
X123205000Y-106400004D01*
X123205000Y-106400007D01*
X123205000Y-106537993D01*
X123205000Y-106537995D01*
X123204999Y-106537995D01*
X116781027Y-106537995D01*
X116733639Y-106455915D01*
X116733638Y-106455914D01*
X116730915Y-106451198D01*
X116680734Y-106364280D01*
X116680733Y-106364278D01*
X116514111Y-106147133D01*
X116514105Y-106147126D01*
X116320573Y-105953594D01*
X116320566Y-105953588D01*
X116103419Y-105786965D01*
X115866383Y-105650113D01*
X115866373Y-105650109D01*
X115613506Y-105545368D01*
X115349119Y-105474525D01*
X115077765Y-105438801D01*
X115077760Y-105438800D01*
X115077755Y-105438800D01*
X114804045Y-105438800D01*
X114804039Y-105438800D01*
X114804034Y-105438801D01*
X114532680Y-105474525D01*
X114268293Y-105545368D01*
X114015426Y-105650109D01*
X114015416Y-105650113D01*
X113778380Y-105786965D01*
X113561233Y-105953588D01*
X113561226Y-105953594D01*
X113367694Y-106147126D01*
X113367688Y-106147133D01*
X113201065Y-106364280D01*
X113064213Y-106601316D01*
X113064209Y-106601326D01*
X112959468Y-106854193D01*
X112888625Y-107118580D01*
X112852901Y-107389934D01*
X112852900Y-107389951D01*
X112852900Y-107663648D01*
X112852901Y-107663665D01*
X112881936Y-107884214D01*
X112888626Y-107935023D01*
X112909804Y-108014059D01*
X112959468Y-108199406D01*
X113064209Y-108452273D01*
X113064213Y-108452283D01*
X113201065Y-108689319D01*
X113367688Y-108906466D01*
X113367694Y-108906473D01*
X113561226Y-109100005D01*
X113561233Y-109100011D01*
X113778380Y-109266634D01*
X113896643Y-109334913D01*
X113944858Y-109385480D01*
X113958082Y-109454087D01*
X113932114Y-109518951D01*
X113875200Y-109559480D01*
X113834643Y-109566300D01*
X101595400Y-109566300D01*
X101528361Y-109546615D01*
X101482606Y-109493811D01*
X101471400Y-109442300D01*
X101471400Y-98674313D01*
X102046600Y-98674313D01*
X102046600Y-98886886D01*
X102079853Y-99096839D01*
X102145544Y-99299014D01*
X102242051Y-99488420D01*
X102366990Y-99660386D01*
X102517313Y-99810709D01*
X102689279Y-99935648D01*
X102689281Y-99935649D01*
X102689284Y-99935651D01*
X102698593Y-99940394D01*
X102749390Y-99988366D01*
X102766187Y-100056187D01*
X102743652Y-100122322D01*
X102698605Y-100161360D01*
X102689546Y-100165976D01*
X102689540Y-100165980D01*
X102635382Y-100205327D01*
X102635382Y-100205328D01*
X103267691Y-100837637D01*
X103204107Y-100854675D01*
X103090093Y-100920501D01*
X102997001Y-101013593D01*
X102931175Y-101127607D01*
X102914137Y-101191191D01*
X102281828Y-100558882D01*
X102281827Y-100558882D01*
X102242480Y-100613039D01*
X102146004Y-100802382D01*
X102080342Y-101004469D01*
X102080342Y-101004472D01*
X102047100Y-101214353D01*
X102047100Y-101426846D01*
X102080342Y-101636727D01*
X102080342Y-101636730D01*
X102146004Y-101838817D01*
X102242475Y-102028150D01*
X102281828Y-102082316D01*
X102914137Y-101450008D01*
X102931175Y-101513593D01*
X102997001Y-101627607D01*
X103090093Y-101720699D01*
X103204107Y-101786525D01*
X103267690Y-101803562D01*
X102635382Y-102435869D01*
X102635382Y-102435870D01*
X102689552Y-102475226D01*
X102689551Y-102475226D01*
X102698595Y-102479834D01*
X102749392Y-102527808D01*
X102766187Y-102595629D01*
X102743650Y-102661764D01*
X102698599Y-102700802D01*
X102689282Y-102705549D01*
X102517313Y-102830490D01*
X102366990Y-102980813D01*
X102242051Y-103152779D01*
X102145544Y-103342185D01*
X102145543Y-103342187D01*
X102145543Y-103342188D01*
X102135330Y-103373620D01*
X102079853Y-103544360D01*
X102046600Y-103754313D01*
X102046600Y-103966886D01*
X102077373Y-104161183D01*
X102079854Y-104176843D01*
X102127501Y-104323486D01*
X102145544Y-104379014D01*
X102242051Y-104568420D01*
X102366990Y-104740386D01*
X102480530Y-104853926D01*
X102514015Y-104915249D01*
X102509031Y-104984941D01*
X102467159Y-105040874D01*
X102436183Y-105057789D01*
X102304769Y-105106803D01*
X102304764Y-105106806D01*
X102189555Y-105193052D01*
X102189552Y-105193055D01*
X102103306Y-105308264D01*
X102103302Y-105308271D01*
X102053008Y-105443117D01*
X102046601Y-105502716D01*
X102046601Y-105502723D01*
X102046600Y-105502735D01*
X102046600Y-107298470D01*
X102046601Y-107298476D01*
X102053008Y-107358083D01*
X102103302Y-107492928D01*
X102103306Y-107492935D01*
X102189552Y-107608144D01*
X102189555Y-107608147D01*
X102304764Y-107694393D01*
X102304771Y-107694397D01*
X102439617Y-107744691D01*
X102439616Y-107744691D01*
X102446544Y-107745435D01*
X102499227Y-107751100D01*
X104294972Y-107751099D01*
X104354583Y-107744691D01*
X104489431Y-107694396D01*
X104604646Y-107608146D01*
X104690896Y-107492931D01*
X104741191Y-107358083D01*
X104747600Y-107298473D01*
X104747599Y-105502728D01*
X104741191Y-105443117D01*
X104739581Y-105438801D01*
X104690897Y-105308271D01*
X104690893Y-105308264D01*
X104604647Y-105193055D01*
X104604644Y-105193052D01*
X104489435Y-105106806D01*
X104489428Y-105106802D01*
X104358017Y-105057789D01*
X104302083Y-105015918D01*
X104277666Y-104950453D01*
X104292518Y-104882180D01*
X104313663Y-104853932D01*
X104427204Y-104740392D01*
X104552151Y-104568416D01*
X104648657Y-104379012D01*
X104714346Y-104176843D01*
X104721558Y-104131309D01*
X131027044Y-104131309D01*
X131027044Y-104289002D01*
X131057805Y-104443645D01*
X131057808Y-104443657D01*
X131118146Y-104589328D01*
X131118153Y-104589341D01*
X131205754Y-104720444D01*
X131205757Y-104720448D01*
X131317251Y-104831942D01*
X131317255Y-104831945D01*
X131448358Y-104919546D01*
X131448371Y-104919553D01*
X131594042Y-104979891D01*
X131594047Y-104979893D01*
X131748697Y-105010655D01*
X131748700Y-105010656D01*
X131748702Y-105010656D01*
X131906388Y-105010656D01*
X131906389Y-105010655D01*
X132061041Y-104979893D01*
X132206723Y-104919550D01*
X132337833Y-104831945D01*
X132449333Y-104720445D01*
X132536938Y-104589335D01*
X132597281Y-104443653D01*
X132618700Y-104335968D01*
X132651083Y-104274062D01*
X132652579Y-104272538D01*
X132763934Y-104161183D01*
X157565600Y-104161183D01*
X157565600Y-105761201D01*
X157565601Y-105761218D01*
X157576100Y-105863996D01*
X157576101Y-105863999D01*
X157631285Y-106030531D01*
X157631287Y-106030536D01*
X157656865Y-106072004D01*
X157723388Y-106179856D01*
X157847444Y-106303912D01*
X157996766Y-106396014D01*
X158163303Y-106451199D01*
X158266091Y-106461700D01*
X159566108Y-106461699D01*
X159668897Y-106451199D01*
X159835434Y-106396014D01*
X159984756Y-106303912D01*
X160108812Y-106179856D01*
X160200914Y-106030534D01*
X160200914Y-106030531D01*
X160204278Y-106025079D01*
X160256226Y-105978354D01*
X160325188Y-105967131D01*
X160389270Y-105994974D01*
X160397498Y-106002494D01*
X160536313Y-106141309D01*
X160708279Y-106266248D01*
X160708281Y-106266249D01*
X160708284Y-106266251D01*
X160897688Y-106362757D01*
X161099857Y-106428446D01*
X161309813Y-106461700D01*
X161309814Y-106461700D01*
X161522386Y-106461700D01*
X161522387Y-106461700D01*
X161732343Y-106428446D01*
X161934512Y-106362757D01*
X162123916Y-106266251D01*
X162145889Y-106250286D01*
X162295886Y-106141309D01*
X162295888Y-106141306D01*
X162295892Y-106141304D01*
X162446204Y-105990992D01*
X162446206Y-105990988D01*
X162446209Y-105990986D01*
X162571148Y-105819020D01*
X162571147Y-105819020D01*
X162571151Y-105819016D01*
X162667657Y-105629612D01*
X162733346Y-105427443D01*
X162766600Y-105217487D01*
X162766600Y-104704913D01*
X162733346Y-104494957D01*
X162667657Y-104292788D01*
X162571151Y-104103384D01*
X162571149Y-104103381D01*
X162571148Y-104103379D01*
X162446209Y-103931413D01*
X162295886Y-103781090D01*
X162123920Y-103656151D01*
X161934514Y-103559644D01*
X161934513Y-103559643D01*
X161934512Y-103559643D01*
X161732343Y-103493954D01*
X161732341Y-103493953D01*
X161732340Y-103493953D01*
X161571057Y-103468408D01*
X161522387Y-103460700D01*
X161309813Y-103460700D01*
X161261142Y-103468408D01*
X161099860Y-103493953D01*
X161078904Y-103500762D01*
X160898104Y-103559508D01*
X160897685Y-103559644D01*
X160708279Y-103656151D01*
X160536315Y-103781089D01*
X160397498Y-103919906D01*
X160336175Y-103953390D01*
X160266483Y-103948406D01*
X160210550Y-103906534D01*
X160204278Y-103897320D01*
X160184361Y-103865030D01*
X160108812Y-103742544D01*
X159984756Y-103618488D01*
X159889134Y-103559508D01*
X159835436Y-103526387D01*
X159835431Y-103526385D01*
X159767171Y-103503766D01*
X159668897Y-103471201D01*
X159668895Y-103471200D01*
X159566110Y-103460700D01*
X158266098Y-103460700D01*
X158266081Y-103460701D01*
X158163303Y-103471200D01*
X158163300Y-103471201D01*
X157996768Y-103526385D01*
X157996763Y-103526387D01*
X157847442Y-103618489D01*
X157723389Y-103742542D01*
X157631287Y-103891863D01*
X157631285Y-103891868D01*
X157626425Y-103906534D01*
X157576101Y-104058403D01*
X157576101Y-104058404D01*
X157576100Y-104058404D01*
X157565600Y-104161183D01*
X132763934Y-104161183D01*
X133133228Y-103791889D01*
X133194549Y-103758406D01*
X133196548Y-103757989D01*
X133304397Y-103736537D01*
X133450079Y-103676194D01*
X133581189Y-103588589D01*
X133692689Y-103477089D01*
X133780294Y-103345979D01*
X133840637Y-103200297D01*
X133871400Y-103045642D01*
X133871400Y-102887958D01*
X133871400Y-102887955D01*
X133871399Y-102887953D01*
X133859969Y-102830490D01*
X133840637Y-102733303D01*
X133827175Y-102700802D01*
X133780297Y-102587627D01*
X133780290Y-102587614D01*
X133692689Y-102456511D01*
X133692686Y-102456507D01*
X133581192Y-102345013D01*
X133581188Y-102345010D01*
X133450085Y-102257409D01*
X133450072Y-102257402D01*
X133304401Y-102197064D01*
X133304389Y-102197061D01*
X133149745Y-102166300D01*
X133149742Y-102166300D01*
X132992058Y-102166300D01*
X132992055Y-102166300D01*
X132837410Y-102197061D01*
X132837398Y-102197064D01*
X132691727Y-102257402D01*
X132691714Y-102257409D01*
X132560611Y-102345010D01*
X132560607Y-102345013D01*
X132449113Y-102456507D01*
X132449110Y-102456511D01*
X132361509Y-102587614D01*
X132361502Y-102587627D01*
X132301164Y-102733298D01*
X132301161Y-102733308D01*
X132279743Y-102840983D01*
X132247358Y-102902894D01*
X132245807Y-102904472D01*
X131765216Y-103385063D01*
X131703893Y-103418548D01*
X131701727Y-103418999D01*
X131594052Y-103440417D01*
X131594042Y-103440420D01*
X131448371Y-103500758D01*
X131448358Y-103500765D01*
X131317255Y-103588366D01*
X131317251Y-103588369D01*
X131205757Y-103699863D01*
X131205754Y-103699867D01*
X131118153Y-103830970D01*
X131118146Y-103830983D01*
X131057808Y-103976654D01*
X131057805Y-103976666D01*
X131027044Y-104131309D01*
X104721558Y-104131309D01*
X104747600Y-103966887D01*
X104747600Y-103754313D01*
X104714346Y-103544357D01*
X104648657Y-103342188D01*
X104552151Y-103152784D01*
X104552149Y-103152781D01*
X104552148Y-103152779D01*
X104427209Y-102980813D01*
X104276892Y-102830496D01*
X104135590Y-102727835D01*
X104104916Y-102705549D01*
X104089619Y-102697755D01*
X104084003Y-102694080D01*
X104065520Y-102672392D01*
X104044807Y-102652830D01*
X104043151Y-102646143D01*
X104038684Y-102640902D01*
X104034860Y-102612664D01*
X104028012Y-102585009D01*
X104030233Y-102578490D01*
X104029309Y-102571664D01*
X104041358Y-102545843D01*
X104050549Y-102518874D01*
X104056249Y-102513934D01*
X104058856Y-102508349D01*
X104072991Y-102499427D01*
X104095607Y-102479832D01*
X104104655Y-102475222D01*
X104158816Y-102435870D01*
X104158817Y-102435870D01*
X103885747Y-102162800D01*
X107906670Y-102162800D01*
X108849554Y-102162800D01*
X108811070Y-102229457D01*
X108778700Y-102350265D01*
X108778700Y-102475335D01*
X108811070Y-102596143D01*
X108849554Y-102662800D01*
X107906670Y-102662800D01*
X107936942Y-102853927D01*
X107936942Y-102853930D01*
X108002604Y-103056017D01*
X108099079Y-103245357D01*
X108223972Y-103417259D01*
X108223976Y-103417264D01*
X108374235Y-103567523D01*
X108374240Y-103567527D01*
X108546142Y-103692420D01*
X108735482Y-103788895D01*
X108937571Y-103854557D01*
X109003700Y-103865031D01*
X109003700Y-102816945D01*
X109070357Y-102855430D01*
X109191165Y-102887800D01*
X109316235Y-102887800D01*
X109437043Y-102855430D01*
X109503700Y-102816945D01*
X109503700Y-103865030D01*
X109569826Y-103854557D01*
X109569829Y-103854557D01*
X109771917Y-103788895D01*
X109961257Y-103692420D01*
X110133159Y-103567527D01*
X110133164Y-103567523D01*
X110283421Y-103417266D01*
X110403071Y-103252581D01*
X110458401Y-103209915D01*
X110528014Y-103203936D01*
X110589810Y-103236541D01*
X110603708Y-103252581D01*
X110723590Y-103417585D01*
X110723594Y-103417590D01*
X110873913Y-103567909D01*
X111045879Y-103692848D01*
X111045881Y-103692849D01*
X111045884Y-103692851D01*
X111235288Y-103789357D01*
X111437457Y-103855046D01*
X111647413Y-103888300D01*
X111647414Y-103888300D01*
X111859986Y-103888300D01*
X111859987Y-103888300D01*
X112069943Y-103855046D01*
X112272112Y-103789357D01*
X112461516Y-103692851D01*
X112512032Y-103656149D01*
X112633486Y-103567909D01*
X112633488Y-103567906D01*
X112633492Y-103567904D01*
X112783804Y-103417592D01*
X112903383Y-103253004D01*
X112958711Y-103210340D01*
X113028324Y-103204361D01*
X113090120Y-103236966D01*
X113104013Y-103252999D01*
X113207625Y-103395609D01*
X113223596Y-103417592D01*
X113373913Y-103567909D01*
X113545879Y-103692848D01*
X113545881Y-103692849D01*
X113545884Y-103692851D01*
X113735288Y-103789357D01*
X113937457Y-103855046D01*
X114147413Y-103888300D01*
X114147414Y-103888300D01*
X114359986Y-103888300D01*
X114359987Y-103888300D01*
X114569943Y-103855046D01*
X114772112Y-103789357D01*
X114961516Y-103692851D01*
X115096221Y-103594983D01*
X115133484Y-103567910D01*
X115133484Y-103567909D01*
X115133492Y-103567904D01*
X115272304Y-103429091D01*
X115333623Y-103395609D01*
X115403315Y-103400593D01*
X115459249Y-103442464D01*
X115465521Y-103451678D01*
X115468885Y-103457133D01*
X115468886Y-103457134D01*
X115560988Y-103606456D01*
X115685044Y-103730512D01*
X115834366Y-103822614D01*
X116000903Y-103877799D01*
X116103691Y-103888300D01*
X117403708Y-103888299D01*
X117506497Y-103877799D01*
X117673034Y-103822614D01*
X117822356Y-103730512D01*
X117946412Y-103606456D01*
X118038514Y-103457134D01*
X118093699Y-103290597D01*
X118104200Y-103187809D01*
X118104199Y-101637792D01*
X118102551Y-101621663D01*
X118093699Y-101535003D01*
X118093698Y-101535000D01*
X118086604Y-101513593D01*
X118038514Y-101368466D01*
X117946412Y-101219144D01*
X117822356Y-101095088D01*
X117690231Y-101013593D01*
X117673036Y-101002987D01*
X117673031Y-101002985D01*
X117671562Y-101002498D01*
X117506497Y-100947801D01*
X117506495Y-100947800D01*
X117403710Y-100937300D01*
X116103698Y-100937300D01*
X116103681Y-100937301D01*
X116000903Y-100947800D01*
X116000900Y-100947801D01*
X115834368Y-101002985D01*
X115834363Y-101002987D01*
X115685042Y-101095089D01*
X115560989Y-101219142D01*
X115465521Y-101373921D01*
X115413573Y-101420645D01*
X115344610Y-101431868D01*
X115280528Y-101404024D01*
X115272301Y-101396505D01*
X115133486Y-101257690D01*
X114961520Y-101132751D01*
X114772114Y-101036244D01*
X114772113Y-101036243D01*
X114772112Y-101036243D01*
X114569943Y-100970554D01*
X114569941Y-100970553D01*
X114569940Y-100970553D01*
X114408657Y-100945008D01*
X114359987Y-100937300D01*
X114147413Y-100937300D01*
X114098742Y-100945008D01*
X113937460Y-100970553D01*
X113735285Y-101036244D01*
X113545879Y-101132751D01*
X113373913Y-101257690D01*
X113223594Y-101408009D01*
X113223590Y-101408014D01*
X113104018Y-101572593D01*
X113048689Y-101615259D01*
X112979075Y-101621238D01*
X112917280Y-101588633D01*
X112903382Y-101572593D01*
X112783809Y-101408014D01*
X112783805Y-101408009D01*
X112633486Y-101257690D01*
X112461520Y-101132751D01*
X112272114Y-101036244D01*
X112272113Y-101036243D01*
X112272112Y-101036243D01*
X112069943Y-100970554D01*
X112069941Y-100970553D01*
X112069940Y-100970553D01*
X111908657Y-100945008D01*
X111859987Y-100937300D01*
X111647413Y-100937300D01*
X111598742Y-100945008D01*
X111437460Y-100970553D01*
X111235285Y-101036244D01*
X111045879Y-101132751D01*
X110873913Y-101257690D01*
X110723594Y-101408009D01*
X110723590Y-101408014D01*
X110603708Y-101573018D01*
X110548378Y-101615684D01*
X110478765Y-101621663D01*
X110416970Y-101589057D01*
X110403072Y-101573018D01*
X110283427Y-101408340D01*
X110283423Y-101408335D01*
X110133164Y-101258076D01*
X110133159Y-101258072D01*
X109961257Y-101133179D01*
X109771915Y-101036703D01*
X109569824Y-100971041D01*
X109503700Y-100960568D01*
X109503700Y-102008654D01*
X109437043Y-101970170D01*
X109316235Y-101937800D01*
X109191165Y-101937800D01*
X109070357Y-101970170D01*
X109003700Y-102008654D01*
X109003700Y-100960568D01*
X109003699Y-100960568D01*
X108937575Y-100971041D01*
X108735484Y-101036703D01*
X108546142Y-101133179D01*
X108374240Y-101258072D01*
X108374235Y-101258076D01*
X108223976Y-101408335D01*
X108223972Y-101408340D01*
X108099079Y-101580242D01*
X108002604Y-101769582D01*
X107936942Y-101971669D01*
X107936942Y-101971672D01*
X107906670Y-102162800D01*
X103885747Y-102162800D01*
X103526508Y-101803562D01*
X103590093Y-101786525D01*
X103704107Y-101720699D01*
X103797199Y-101627607D01*
X103863025Y-101513593D01*
X103880062Y-101450009D01*
X104512370Y-102082317D01*
X104512370Y-102082316D01*
X104551722Y-102028154D01*
X104648195Y-101838817D01*
X104713857Y-101636730D01*
X104713857Y-101636727D01*
X104747100Y-101426846D01*
X104747100Y-101214353D01*
X104713857Y-101004472D01*
X104713857Y-101004469D01*
X104648195Y-100802382D01*
X104551724Y-100613049D01*
X104512370Y-100558882D01*
X104512369Y-100558882D01*
X103880062Y-101191190D01*
X103863025Y-101127607D01*
X103797199Y-101013593D01*
X103704107Y-100920501D01*
X103590093Y-100854675D01*
X103526509Y-100837637D01*
X104158816Y-100205328D01*
X104104647Y-100165973D01*
X104104647Y-100165972D01*
X104095600Y-100161363D01*
X104044806Y-100113388D01*
X104028012Y-100045566D01*
X104050551Y-99979432D01*
X104095608Y-99940393D01*
X104104916Y-99935651D01*
X104184107Y-99878115D01*
X104276886Y-99810709D01*
X104276888Y-99810706D01*
X104276892Y-99810704D01*
X104427204Y-99660392D01*
X104427206Y-99660388D01*
X104427209Y-99660386D01*
X104552148Y-99488420D01*
X104552147Y-99488420D01*
X104552151Y-99488416D01*
X104648657Y-99299012D01*
X104714346Y-99096843D01*
X104747600Y-98886887D01*
X104747600Y-98674313D01*
X104714346Y-98464357D01*
X104648657Y-98262188D01*
X104552151Y-98072784D01*
X104552149Y-98072781D01*
X104552148Y-98072779D01*
X104427209Y-97900813D01*
X104276886Y-97750490D01*
X104104920Y-97625551D01*
X103915514Y-97529044D01*
X103915513Y-97529043D01*
X103915512Y-97529043D01*
X103713343Y-97463354D01*
X103713341Y-97463353D01*
X103713340Y-97463353D01*
X103552057Y-97437808D01*
X103503387Y-97430100D01*
X103290813Y-97430100D01*
X103242142Y-97437808D01*
X103080860Y-97463353D01*
X102878685Y-97529044D01*
X102689279Y-97625551D01*
X102517313Y-97750490D01*
X102366990Y-97900813D01*
X102242051Y-98072779D01*
X102145544Y-98262185D01*
X102079853Y-98464360D01*
X102046600Y-98674313D01*
X101471400Y-98674313D01*
X101471400Y-95093477D01*
X101491085Y-95026438D01*
X101543889Y-94980683D01*
X101613047Y-94970739D01*
X101676603Y-94999764D01*
X101683081Y-95005796D01*
X101758433Y-95081148D01*
X101758437Y-95081151D01*
X101922215Y-95190585D01*
X101922228Y-95190592D01*
X102104206Y-95265969D01*
X102104218Y-95265972D01*
X102297404Y-95304399D01*
X102297408Y-95304400D01*
X102445900Y-95304400D01*
X102445900Y-94604400D01*
X102945900Y-94604400D01*
X102945900Y-95304400D01*
X103094392Y-95304400D01*
X103094395Y-95304399D01*
X103287581Y-95265972D01*
X103287593Y-95265969D01*
X103469571Y-95190592D01*
X103469584Y-95190585D01*
X103633362Y-95081151D01*
X103633366Y-95081148D01*
X103772648Y-94941866D01*
X103772651Y-94941862D01*
X103882085Y-94778084D01*
X103882092Y-94778071D01*
X103957469Y-94596092D01*
X103957469Y-94596090D01*
X103965762Y-94554400D01*
X103162888Y-94554400D01*
X103180105Y-94544460D01*
X103235960Y-94488605D01*
X103275456Y-94420196D01*
X103295900Y-94343896D01*
X103295900Y-94264904D01*
X103275456Y-94188604D01*
X103235960Y-94120195D01*
X103180105Y-94064340D01*
X103162888Y-94054400D01*
X103965762Y-94054400D01*
X105356038Y-94054400D01*
X106158912Y-94054400D01*
X106141695Y-94064340D01*
X106085840Y-94120195D01*
X106046344Y-94188604D01*
X106025900Y-94264904D01*
X106025900Y-94343896D01*
X106046344Y-94420196D01*
X106085840Y-94488605D01*
X106141695Y-94544460D01*
X106158912Y-94554400D01*
X105356038Y-94554400D01*
X105364330Y-94596090D01*
X105364330Y-94596092D01*
X105439707Y-94778071D01*
X105439714Y-94778084D01*
X105549148Y-94941862D01*
X105549151Y-94941866D01*
X105688433Y-95081148D01*
X105688437Y-95081151D01*
X105852215Y-95190585D01*
X105852228Y-95190592D01*
X106034206Y-95265969D01*
X106034218Y-95265972D01*
X106227404Y-95304399D01*
X106227408Y-95304400D01*
X106625900Y-95304400D01*
X106625900Y-94604400D01*
X107125900Y-94604400D01*
X107125900Y-95304400D01*
X107524392Y-95304400D01*
X107524395Y-95304399D01*
X107717581Y-95265972D01*
X107717593Y-95265969D01*
X107899571Y-95190592D01*
X107899584Y-95190585D01*
X108063362Y-95081151D01*
X108063366Y-95081148D01*
X108202648Y-94941866D01*
X108202651Y-94941862D01*
X108312085Y-94778084D01*
X108312092Y-94778071D01*
X108387469Y-94596092D01*
X108387469Y-94596090D01*
X108395762Y-94554400D01*
X107592888Y-94554400D01*
X107610105Y-94544460D01*
X107665960Y-94488605D01*
X107705456Y-94420196D01*
X107725900Y-94343896D01*
X107725900Y-94264904D01*
X107705456Y-94188604D01*
X107665960Y-94120195D01*
X107610105Y-94064340D01*
X107592888Y-94054400D01*
X108395762Y-94054400D01*
X108387469Y-94012709D01*
X108387469Y-94012707D01*
X108312092Y-93830728D01*
X108312085Y-93830715D01*
X108202651Y-93666937D01*
X108202648Y-93666933D01*
X108063366Y-93527651D01*
X108063362Y-93527648D01*
X107899584Y-93418214D01*
X107899571Y-93418207D01*
X107717593Y-93342830D01*
X107717581Y-93342827D01*
X107524395Y-93304400D01*
X107125900Y-93304400D01*
X107125900Y-94004400D01*
X106625900Y-94004400D01*
X106625900Y-93466184D01*
X106645585Y-93399145D01*
X106687900Y-93358797D01*
X106729265Y-93334915D01*
X106836415Y-93227765D01*
X106837272Y-93226279D01*
X106857621Y-93191037D01*
X106912179Y-93096538D01*
X106912181Y-93096535D01*
X106951400Y-92950166D01*
X106951400Y-92798634D01*
X106912181Y-92652265D01*
X106836415Y-92521035D01*
X106729265Y-92413885D01*
X106663650Y-92376002D01*
X106598036Y-92338119D01*
X106524850Y-92318509D01*
X106451666Y-92298900D01*
X106300134Y-92298900D01*
X106153763Y-92338119D01*
X106022535Y-92413885D01*
X106022532Y-92413887D01*
X105915387Y-92521032D01*
X105915385Y-92521035D01*
X105839619Y-92652263D01*
X105800400Y-92798634D01*
X105800400Y-92950165D01*
X105839619Y-93096536D01*
X105879053Y-93164837D01*
X105915385Y-93227765D01*
X105915386Y-93227766D01*
X105919449Y-93234803D01*
X105917246Y-93236074D01*
X105937859Y-93289383D01*
X105923823Y-93357828D01*
X105875012Y-93407820D01*
X105861745Y-93414266D01*
X105852224Y-93418209D01*
X105852215Y-93418214D01*
X105688437Y-93527648D01*
X105688433Y-93527651D01*
X105549151Y-93666933D01*
X105549148Y-93666937D01*
X105439714Y-93830715D01*
X105439707Y-93830728D01*
X105364330Y-94012707D01*
X105364330Y-94012709D01*
X105356038Y-94054400D01*
X103965762Y-94054400D01*
X103957469Y-94012709D01*
X103957469Y-94012707D01*
X103882092Y-93830728D01*
X103882085Y-93830715D01*
X103772651Y-93666937D01*
X103772648Y-93666933D01*
X103633366Y-93527651D01*
X103633362Y-93527648D01*
X103469584Y-93418214D01*
X103469571Y-93418207D01*
X103287593Y-93342830D01*
X103287581Y-93342827D01*
X103094395Y-93304400D01*
X102945900Y-93304400D01*
X102945900Y-94004400D01*
X102445900Y-94004400D01*
X102445900Y-93304400D01*
X102297404Y-93304400D01*
X102104218Y-93342827D01*
X102104206Y-93342830D01*
X101922228Y-93418207D01*
X101922215Y-93418214D01*
X101758437Y-93527648D01*
X101758433Y-93527651D01*
X101683081Y-93603004D01*
X101621758Y-93636489D01*
X101552066Y-93631505D01*
X101496133Y-93589633D01*
X101471716Y-93524169D01*
X101471400Y-93515323D01*
X101471400Y-91331097D01*
X125040544Y-91331097D01*
X125040544Y-91488790D01*
X125071305Y-91643433D01*
X125071308Y-91643445D01*
X125131646Y-91789116D01*
X125131653Y-91789129D01*
X125219254Y-91920232D01*
X125219257Y-91920236D01*
X125330751Y-92031730D01*
X125330755Y-92031733D01*
X125461858Y-92119334D01*
X125461871Y-92119341D01*
X125577654Y-92167299D01*
X125607547Y-92179681D01*
X125762197Y-92210443D01*
X125762200Y-92210444D01*
X125762202Y-92210444D01*
X125919888Y-92210444D01*
X125919889Y-92210443D01*
X126074541Y-92179681D01*
X126220223Y-92119338D01*
X126311510Y-92058342D01*
X126378187Y-92037464D01*
X126380401Y-92037444D01*
X126796113Y-92037444D01*
X126863152Y-92057129D01*
X126864994Y-92058335D01*
X126891721Y-92076194D01*
X126891722Y-92076194D01*
X126891723Y-92076195D01*
X126891725Y-92076196D01*
X126995888Y-92119341D01*
X127037403Y-92136537D01*
X127192053Y-92167299D01*
X127192056Y-92167300D01*
X127192058Y-92167300D01*
X127349744Y-92167300D01*
X127349745Y-92167299D01*
X127504397Y-92136537D01*
X127650079Y-92076194D01*
X127781189Y-91988589D01*
X127892689Y-91877089D01*
X127980294Y-91745979D01*
X128040637Y-91600297D01*
X128071400Y-91445642D01*
X128071400Y-91287958D01*
X128071400Y-91287955D01*
X128071399Y-91287953D01*
X128040638Y-91133310D01*
X128040637Y-91133303D01*
X128040635Y-91133298D01*
X127980297Y-90987627D01*
X127980290Y-90987614D01*
X127892689Y-90856511D01*
X127892686Y-90856507D01*
X127781192Y-90745013D01*
X127781188Y-90745010D01*
X127650085Y-90657409D01*
X127650072Y-90657402D01*
X127504401Y-90597064D01*
X127504389Y-90597061D01*
X127349745Y-90566300D01*
X127349742Y-90566300D01*
X127192058Y-90566300D01*
X127192055Y-90566300D01*
X127037410Y-90597061D01*
X127037398Y-90597064D01*
X126891727Y-90657402D01*
X126891714Y-90657409D01*
X126760611Y-90745010D01*
X126760607Y-90745013D01*
X126759496Y-90746125D01*
X126758770Y-90746521D01*
X126755901Y-90748876D01*
X126755454Y-90748331D01*
X126698173Y-90779610D01*
X126671815Y-90782444D01*
X126380401Y-90782444D01*
X126313362Y-90762759D01*
X126311510Y-90761546D01*
X126220229Y-90700553D01*
X126220216Y-90700546D01*
X126074545Y-90640208D01*
X126074533Y-90640205D01*
X125919889Y-90609444D01*
X125919886Y-90609444D01*
X125762202Y-90609444D01*
X125762199Y-90609444D01*
X125607554Y-90640205D01*
X125607542Y-90640208D01*
X125461871Y-90700546D01*
X125461858Y-90700553D01*
X125330755Y-90788154D01*
X125330751Y-90788157D01*
X125219257Y-90899651D01*
X125219254Y-90899655D01*
X125131653Y-91030758D01*
X125131646Y-91030771D01*
X125071308Y-91176442D01*
X125071305Y-91176454D01*
X125040544Y-91331097D01*
X101471400Y-91331097D01*
X101471400Y-86453477D01*
X101491085Y-86386438D01*
X101543889Y-86340683D01*
X101613047Y-86330739D01*
X101676603Y-86359764D01*
X101683081Y-86365796D01*
X101758433Y-86441148D01*
X101758437Y-86441151D01*
X101922215Y-86550585D01*
X101922228Y-86550592D01*
X102104206Y-86625969D01*
X102104218Y-86625972D01*
X102297404Y-86664399D01*
X102297408Y-86664400D01*
X102445900Y-86664400D01*
X102445900Y-85964400D01*
X102945900Y-85964400D01*
X102945900Y-86664400D01*
X103094392Y-86664400D01*
X103094395Y-86664399D01*
X103287581Y-86625972D01*
X103287593Y-86625969D01*
X103469571Y-86550592D01*
X103469584Y-86550585D01*
X103633362Y-86441151D01*
X103633366Y-86441148D01*
X103772648Y-86301866D01*
X103772651Y-86301862D01*
X103882085Y-86138084D01*
X103882092Y-86138071D01*
X103957469Y-85956092D01*
X103957469Y-85956090D01*
X103965762Y-85914400D01*
X103162888Y-85914400D01*
X103180105Y-85904460D01*
X103235960Y-85848605D01*
X103275456Y-85780196D01*
X103295900Y-85703896D01*
X103295900Y-85624904D01*
X103275456Y-85548604D01*
X103235960Y-85480195D01*
X103180105Y-85424340D01*
X103162888Y-85414400D01*
X103965762Y-85414400D01*
X105356038Y-85414400D01*
X106158912Y-85414400D01*
X106141695Y-85424340D01*
X106085840Y-85480195D01*
X106046344Y-85548604D01*
X106025900Y-85624904D01*
X106025900Y-85703896D01*
X106046344Y-85780196D01*
X106085840Y-85848605D01*
X106141695Y-85904460D01*
X106158912Y-85914400D01*
X105356038Y-85914400D01*
X105364330Y-85956090D01*
X105364330Y-85956092D01*
X105439707Y-86138071D01*
X105439714Y-86138084D01*
X105549148Y-86301862D01*
X105549151Y-86301866D01*
X105688433Y-86441148D01*
X105688437Y-86441151D01*
X105852215Y-86550585D01*
X105852228Y-86550592D01*
X105861738Y-86554531D01*
X105916143Y-86598370D01*
X105938210Y-86664664D01*
X105920933Y-86732363D01*
X105917250Y-86737805D01*
X105839619Y-86872263D01*
X105800400Y-87018634D01*
X105800400Y-87170165D01*
X105839619Y-87316536D01*
X105877502Y-87382150D01*
X105915385Y-87447765D01*
X106022535Y-87554915D01*
X106153765Y-87630681D01*
X106300134Y-87669900D01*
X106300136Y-87669900D01*
X106451664Y-87669900D01*
X106451666Y-87669900D01*
X106598035Y-87630681D01*
X106729265Y-87554915D01*
X106836415Y-87447765D01*
X106912181Y-87316535D01*
X106951400Y-87170166D01*
X106951400Y-87018634D01*
X106912181Y-86872265D01*
X106836415Y-86741035D01*
X106729265Y-86633885D01*
X106715554Y-86625969D01*
X106687898Y-86610001D01*
X106639684Y-86559433D01*
X106625900Y-86502615D01*
X106625900Y-85964400D01*
X107125900Y-85964400D01*
X107125900Y-86664400D01*
X107524392Y-86664400D01*
X107524395Y-86664399D01*
X107717581Y-86625972D01*
X107717593Y-86625969D01*
X107899571Y-86550592D01*
X107899584Y-86550585D01*
X108063362Y-86441151D01*
X108063366Y-86441148D01*
X108202648Y-86301866D01*
X108202651Y-86301862D01*
X108312085Y-86138084D01*
X108312092Y-86138071D01*
X108387469Y-85956092D01*
X108387469Y-85956090D01*
X108395762Y-85914400D01*
X107592888Y-85914400D01*
X107610105Y-85904460D01*
X107665960Y-85848605D01*
X107705456Y-85780196D01*
X107725900Y-85703896D01*
X107725900Y-85624904D01*
X107705456Y-85548604D01*
X107665960Y-85480195D01*
X107610105Y-85424340D01*
X107592888Y-85414400D01*
X108395762Y-85414400D01*
X108387469Y-85372709D01*
X108387469Y-85372707D01*
X108312092Y-85190728D01*
X108312085Y-85190715D01*
X108202651Y-85026937D01*
X108202648Y-85026933D01*
X108063366Y-84887651D01*
X108063362Y-84887648D01*
X107899584Y-84778214D01*
X107899571Y-84778207D01*
X107717593Y-84702830D01*
X107717581Y-84702827D01*
X107524395Y-84664400D01*
X107125900Y-84664400D01*
X107125900Y-85364400D01*
X106625900Y-85364400D01*
X106625900Y-84664400D01*
X106227404Y-84664400D01*
X106034218Y-84702827D01*
X106034206Y-84702830D01*
X105852228Y-84778207D01*
X105852215Y-84778214D01*
X105688437Y-84887648D01*
X105688433Y-84887651D01*
X105549151Y-85026933D01*
X105549148Y-85026937D01*
X105439714Y-85190715D01*
X105439707Y-85190728D01*
X105364330Y-85372707D01*
X105364330Y-85372709D01*
X105356038Y-85414400D01*
X103965762Y-85414400D01*
X103957469Y-85372709D01*
X103957469Y-85372707D01*
X103882092Y-85190728D01*
X103882085Y-85190715D01*
X103772651Y-85026937D01*
X103772648Y-85026933D01*
X103633366Y-84887651D01*
X103633362Y-84887648D01*
X103469584Y-84778214D01*
X103469571Y-84778207D01*
X103287593Y-84702830D01*
X103287581Y-84702827D01*
X103094395Y-84664400D01*
X102945900Y-84664400D01*
X102945900Y-85364400D01*
X102445900Y-85364400D01*
X102445900Y-84664400D01*
X102297404Y-84664400D01*
X102104218Y-84702827D01*
X102104206Y-84702830D01*
X101922228Y-84778207D01*
X101922215Y-84778214D01*
X101758437Y-84887648D01*
X101758433Y-84887651D01*
X101683081Y-84963004D01*
X101621758Y-84996489D01*
X101552066Y-84991505D01*
X101496133Y-84949633D01*
X101471716Y-84884169D01*
X101471400Y-84875323D01*
X101471400Y-83487953D01*
X117143400Y-83487953D01*
X117143400Y-83645646D01*
X117174161Y-83800289D01*
X117174164Y-83800301D01*
X117234502Y-83945972D01*
X117234509Y-83945985D01*
X117322110Y-84077088D01*
X117322113Y-84077092D01*
X117433607Y-84188586D01*
X117433611Y-84188589D01*
X117564714Y-84276190D01*
X117564727Y-84276197D01*
X117710398Y-84336535D01*
X117710403Y-84336537D01*
X117865053Y-84367299D01*
X117865056Y-84367300D01*
X117865058Y-84367300D01*
X118022744Y-84367300D01*
X118022745Y-84367299D01*
X118177397Y-84336537D01*
X118323079Y-84276194D01*
X118414366Y-84215198D01*
X118481043Y-84194320D01*
X118483257Y-84194300D01*
X119331543Y-84194300D01*
X119398582Y-84213985D01*
X119400434Y-84215198D01*
X119491714Y-84276190D01*
X119491727Y-84276197D01*
X119637398Y-84336535D01*
X119637403Y-84336537D01*
X119792053Y-84367299D01*
X119792056Y-84367300D01*
X119792058Y-84367300D01*
X119949744Y-84367300D01*
X119949745Y-84367299D01*
X120104397Y-84336537D01*
X120250079Y-84276194D01*
X120381189Y-84188589D01*
X120492689Y-84077089D01*
X120580294Y-83945979D01*
X120640637Y-83800297D01*
X120671400Y-83645642D01*
X120671400Y-83487958D01*
X120671400Y-83487955D01*
X120671399Y-83487953D01*
X120640638Y-83333310D01*
X120640637Y-83333303D01*
X120640635Y-83333298D01*
X120580297Y-83187627D01*
X120580290Y-83187614D01*
X120492689Y-83056511D01*
X120492686Y-83056507D01*
X120381192Y-82945013D01*
X120381188Y-82945010D01*
X120250085Y-82857409D01*
X120250072Y-82857402D01*
X120104401Y-82797064D01*
X120104389Y-82797061D01*
X119949745Y-82766300D01*
X119949742Y-82766300D01*
X119792058Y-82766300D01*
X119792055Y-82766300D01*
X119637410Y-82797061D01*
X119637398Y-82797064D01*
X119491727Y-82857402D01*
X119491714Y-82857409D01*
X119400434Y-82918402D01*
X119333757Y-82939280D01*
X119331543Y-82939300D01*
X118483257Y-82939300D01*
X118416218Y-82919615D01*
X118414366Y-82918402D01*
X118323085Y-82857409D01*
X118323072Y-82857402D01*
X118177401Y-82797064D01*
X118177389Y-82797061D01*
X118022745Y-82766300D01*
X118022742Y-82766300D01*
X117865058Y-82766300D01*
X117865055Y-82766300D01*
X117710410Y-82797061D01*
X117710398Y-82797064D01*
X117564727Y-82857402D01*
X117564714Y-82857409D01*
X117433611Y-82945010D01*
X117433607Y-82945013D01*
X117322113Y-83056507D01*
X117322110Y-83056511D01*
X117234509Y-83187614D01*
X117234502Y-83187627D01*
X117174164Y-83333298D01*
X117174161Y-83333310D01*
X117143400Y-83487953D01*
X101471400Y-83487953D01*
X101471400Y-69108713D01*
X104053200Y-69108713D01*
X104053200Y-69321287D01*
X104063234Y-69384644D01*
X104086453Y-69531239D01*
X104086453Y-69531241D01*
X104086454Y-69531243D01*
X104129765Y-69664541D01*
X104152144Y-69733414D01*
X104248651Y-69922820D01*
X104373590Y-70094786D01*
X104523913Y-70245109D01*
X104695882Y-70370050D01*
X104704646Y-70374516D01*
X104755442Y-70422491D01*
X104772236Y-70490312D01*
X104749698Y-70556447D01*
X104704646Y-70595484D01*
X104695882Y-70599949D01*
X104523913Y-70724890D01*
X104373590Y-70875213D01*
X104248651Y-71047179D01*
X104152144Y-71236585D01*
X104086453Y-71438760D01*
X104053200Y-71648713D01*
X104053200Y-71861286D01*
X104086453Y-72071239D01*
X104152144Y-72273414D01*
X104248651Y-72462820D01*
X104373590Y-72634786D01*
X104523913Y-72785109D01*
X104695882Y-72910050D01*
X104704646Y-72914516D01*
X104755442Y-72962491D01*
X104772236Y-73030312D01*
X104749698Y-73096447D01*
X104704646Y-73135484D01*
X104695882Y-73139949D01*
X104523913Y-73264890D01*
X104373590Y-73415213D01*
X104248651Y-73587179D01*
X104152144Y-73776585D01*
X104086453Y-73978760D01*
X104053200Y-74188713D01*
X104053200Y-74401286D01*
X104083419Y-74592085D01*
X104086454Y-74611243D01*
X104096985Y-74643655D01*
X104152144Y-74813414D01*
X104248651Y-75002820D01*
X104373590Y-75174786D01*
X104487518Y-75288714D01*
X104521003Y-75350037D01*
X104516019Y-75419729D01*
X104474147Y-75475662D01*
X104443171Y-75492577D01*
X104311612Y-75541646D01*
X104311606Y-75541649D01*
X104196512Y-75627809D01*
X104196509Y-75627812D01*
X104110349Y-75742906D01*
X104110345Y-75742913D01*
X104060103Y-75877620D01*
X104060101Y-75877627D01*
X104053700Y-75937155D01*
X104053700Y-76585000D01*
X104970688Y-76585000D01*
X104937775Y-76642007D01*
X104903700Y-76769174D01*
X104903700Y-76900826D01*
X104937775Y-77027993D01*
X104970688Y-77085000D01*
X104053700Y-77085000D01*
X104053700Y-77732844D01*
X104060101Y-77792372D01*
X104060103Y-77792379D01*
X104110345Y-77927086D01*
X104110349Y-77927093D01*
X104196509Y-78042187D01*
X104196512Y-78042190D01*
X104311606Y-78128350D01*
X104311613Y-78128354D01*
X104446320Y-78178596D01*
X104446327Y-78178598D01*
X104505855Y-78184999D01*
X104505872Y-78185000D01*
X105153700Y-78185000D01*
X105153700Y-77268012D01*
X105210707Y-77300925D01*
X105337874Y-77335000D01*
X105469526Y-77335000D01*
X105596693Y-77300925D01*
X105653700Y-77268012D01*
X105653700Y-78185000D01*
X106301528Y-78185000D01*
X106301544Y-78184999D01*
X106361072Y-78178598D01*
X106361079Y-78178596D01*
X106495786Y-78128354D01*
X106495793Y-78128350D01*
X106610887Y-78042190D01*
X106610890Y-78042187D01*
X106697050Y-77927093D01*
X106697054Y-77927086D01*
X106746122Y-77795529D01*
X106787993Y-77739595D01*
X106853457Y-77715178D01*
X106921730Y-77730030D01*
X106949985Y-77751181D01*
X107063913Y-77865109D01*
X107235879Y-77990048D01*
X107235881Y-77990049D01*
X107235884Y-77990051D01*
X107425288Y-78086557D01*
X107627457Y-78152246D01*
X107837413Y-78185500D01*
X107837414Y-78185500D01*
X108049986Y-78185500D01*
X108049987Y-78185500D01*
X108259943Y-78152246D01*
X108462112Y-78086557D01*
X108651516Y-77990051D01*
X108738171Y-77927093D01*
X108823486Y-77865109D01*
X108823488Y-77865106D01*
X108823492Y-77865104D01*
X108973804Y-77714792D01*
X108973806Y-77714788D01*
X108973809Y-77714786D01*
X109098748Y-77542820D01*
X109098747Y-77542820D01*
X109098751Y-77542816D01*
X109195257Y-77353412D01*
X109260946Y-77151243D01*
X109294200Y-76941287D01*
X109294200Y-76728713D01*
X109260946Y-76518757D01*
X109195257Y-76316588D01*
X109098751Y-76127184D01*
X109098749Y-76127181D01*
X109098748Y-76127179D01*
X108973809Y-75955213D01*
X108823486Y-75804890D01*
X108742816Y-75746281D01*
X108742789Y-75746262D01*
X108651516Y-75679949D01*
X108635270Y-75671671D01*
X108628368Y-75666883D01*
X108615763Y-75651253D01*
X144370400Y-75651253D01*
X144370400Y-75808946D01*
X144401161Y-75963589D01*
X144401164Y-75963601D01*
X144461503Y-76109274D01*
X144461504Y-76109275D01*
X144461506Y-76109279D01*
X144501104Y-76168541D01*
X144522502Y-76200565D01*
X144543380Y-76267242D01*
X144543400Y-76269456D01*
X144543400Y-78427442D01*
X144523715Y-78494481D01*
X144522502Y-78496333D01*
X144461509Y-78587614D01*
X144461502Y-78587627D01*
X144401164Y-78733298D01*
X144401161Y-78733310D01*
X144370400Y-78887953D01*
X144370400Y-79045646D01*
X144401161Y-79200289D01*
X144401164Y-79200301D01*
X144461502Y-79345972D01*
X144461509Y-79345985D01*
X144549110Y-79477088D01*
X144549113Y-79477092D01*
X144660607Y-79588586D01*
X144660611Y-79588589D01*
X144791714Y-79676190D01*
X144791727Y-79676197D01*
X144937398Y-79736535D01*
X144937403Y-79736537D01*
X145092053Y-79767299D01*
X145092056Y-79767300D01*
X145092058Y-79767300D01*
X145249744Y-79767300D01*
X145249745Y-79767299D01*
X145404397Y-79736537D01*
X145550079Y-79676194D01*
X145681189Y-79588589D01*
X145792689Y-79477089D01*
X145880294Y-79345979D01*
X145940637Y-79200297D01*
X145971400Y-79045642D01*
X145971400Y-78968413D01*
X145986711Y-78916269D01*
X145973422Y-78895591D01*
X145970782Y-78884848D01*
X145940638Y-78733308D01*
X145940637Y-78733307D01*
X145940637Y-78733303D01*
X145940635Y-78733298D01*
X145880297Y-78587627D01*
X145880290Y-78587614D01*
X145819298Y-78496333D01*
X145798420Y-78429655D01*
X145798400Y-78427442D01*
X145798400Y-76269456D01*
X145818085Y-76202417D01*
X145819298Y-76200565D01*
X145880294Y-76109279D01*
X145940637Y-75963597D01*
X145955578Y-75888480D01*
X145957782Y-75884267D01*
X145957712Y-75879511D01*
X145973821Y-75853605D01*
X145987962Y-75826572D01*
X145992095Y-75824218D01*
X145994608Y-75820178D01*
X146022170Y-75807092D01*
X146048678Y-75791998D01*
X146053427Y-75792252D01*
X146057726Y-75790212D01*
X146087987Y-75794104D01*
X146118447Y-75795737D01*
X146122304Y-75798518D01*
X146127024Y-75799126D01*
X146150377Y-75818762D01*
X146175119Y-75836603D01*
X146177315Y-75841411D01*
X146180502Y-75844091D01*
X146195640Y-75875975D01*
X146197553Y-75882150D01*
X146201163Y-75900297D01*
X146209151Y-75919583D01*
X146210845Y-75925048D01*
X146216400Y-75961747D01*
X146216400Y-78787352D01*
X146216399Y-78787378D01*
X146216399Y-78860656D01*
X146201087Y-78912799D01*
X146214377Y-78933478D01*
X146217017Y-78944221D01*
X146245393Y-79086873D01*
X146245396Y-79086883D01*
X146302266Y-79224181D01*
X146302272Y-79224192D01*
X146384842Y-79347768D01*
X146384843Y-79347769D01*
X149628827Y-82591752D01*
X149655706Y-82631978D01*
X149661503Y-82645972D01*
X149661506Y-82645978D01*
X149661509Y-82645985D01*
X149749110Y-82777088D01*
X149749113Y-82777092D01*
X149860607Y-82888586D01*
X149860611Y-82888589D01*
X149991714Y-82976190D01*
X149991727Y-82976197D01*
X150137398Y-83036535D01*
X150137403Y-83036537D01*
X150292053Y-83067299D01*
X150292056Y-83067300D01*
X150292058Y-83067300D01*
X150449744Y-83067300D01*
X150449745Y-83067299D01*
X150604397Y-83036537D01*
X150750079Y-82976194D01*
X150881189Y-82888589D01*
X150992689Y-82777089D01*
X151080294Y-82645979D01*
X151140637Y-82500297D01*
X151171400Y-82345642D01*
X151171400Y-82187958D01*
X151171400Y-82187955D01*
X151171399Y-82187953D01*
X151140638Y-82033310D01*
X151140637Y-82033303D01*
X151140635Y-82033298D01*
X151080297Y-81887627D01*
X151080290Y-81887614D01*
X150992689Y-81756511D01*
X150992686Y-81756507D01*
X150881192Y-81645013D01*
X150881188Y-81645010D01*
X150750085Y-81557409D01*
X150750080Y-81557407D01*
X150750079Y-81557406D01*
X150736078Y-81551606D01*
X150695852Y-81524727D01*
X148059078Y-78887953D01*
X155370400Y-78887953D01*
X155370400Y-79045646D01*
X155401161Y-79200289D01*
X155401164Y-79200301D01*
X155461502Y-79345972D01*
X155461509Y-79345985D01*
X155549110Y-79477088D01*
X155549113Y-79477092D01*
X155660607Y-79588586D01*
X155660611Y-79588589D01*
X155791714Y-79676190D01*
X155791727Y-79676197D01*
X155937398Y-79736535D01*
X155937403Y-79736537D01*
X156092053Y-79767299D01*
X156092056Y-79767300D01*
X156092058Y-79767300D01*
X156249744Y-79767300D01*
X156249745Y-79767299D01*
X156404397Y-79736537D01*
X156550079Y-79676194D01*
X156641366Y-79615198D01*
X156708043Y-79594320D01*
X156710257Y-79594300D01*
X157139543Y-79594300D01*
X157206582Y-79613985D01*
X157208434Y-79615198D01*
X157299714Y-79676190D01*
X157299727Y-79676197D01*
X157445398Y-79736535D01*
X157445403Y-79736537D01*
X157600053Y-79767299D01*
X157600056Y-79767300D01*
X157600058Y-79767300D01*
X157757744Y-79767300D01*
X157757745Y-79767299D01*
X157912397Y-79736537D01*
X158058079Y-79676194D01*
X158189189Y-79588589D01*
X158300689Y-79477089D01*
X158388294Y-79345979D01*
X158448637Y-79200297D01*
X158479400Y-79045642D01*
X158479400Y-78887958D01*
X158479400Y-78887955D01*
X158479399Y-78887953D01*
X158473969Y-78860656D01*
X158448637Y-78733303D01*
X158448635Y-78733298D01*
X158388297Y-78587627D01*
X158388290Y-78587614D01*
X158300689Y-78456511D01*
X158300686Y-78456507D01*
X158189192Y-78345013D01*
X158189188Y-78345010D01*
X158058085Y-78257409D01*
X158058072Y-78257402D01*
X157912401Y-78197064D01*
X157912389Y-78197061D01*
X157757745Y-78166300D01*
X157757742Y-78166300D01*
X157600058Y-78166300D01*
X157600055Y-78166300D01*
X157445410Y-78197061D01*
X157445398Y-78197064D01*
X157299727Y-78257402D01*
X157299714Y-78257409D01*
X157208434Y-78318402D01*
X157141757Y-78339280D01*
X157139543Y-78339300D01*
X156710257Y-78339300D01*
X156643218Y-78319615D01*
X156641366Y-78318402D01*
X156550085Y-78257409D01*
X156550072Y-78257402D01*
X156404401Y-78197064D01*
X156404389Y-78197061D01*
X156249745Y-78166300D01*
X156249742Y-78166300D01*
X156092058Y-78166300D01*
X156092055Y-78166300D01*
X155937410Y-78197061D01*
X155937398Y-78197064D01*
X155791727Y-78257402D01*
X155791714Y-78257409D01*
X155660611Y-78345010D01*
X155660607Y-78345013D01*
X155549113Y-78456507D01*
X155549110Y-78456511D01*
X155461509Y-78587614D01*
X155461502Y-78587627D01*
X155401164Y-78733298D01*
X155401161Y-78733310D01*
X155370400Y-78887953D01*
X148059078Y-78887953D01*
X147761719Y-78590594D01*
X147728234Y-78529271D01*
X147725400Y-78502913D01*
X147725400Y-75961747D01*
X147734839Y-75914294D01*
X147740637Y-75900297D01*
X147771400Y-75745642D01*
X147771400Y-75587958D01*
X147771400Y-75587955D01*
X147771399Y-75587953D01*
X148070400Y-75587953D01*
X148070400Y-75745646D01*
X148101161Y-75900289D01*
X148101164Y-75900301D01*
X148161503Y-76045974D01*
X148161504Y-76045975D01*
X148161506Y-76045979D01*
X148203802Y-76109279D01*
X148222502Y-76137265D01*
X148243380Y-76203942D01*
X148243400Y-76206156D01*
X148243400Y-77127442D01*
X148223715Y-77194481D01*
X148222502Y-77196333D01*
X148161509Y-77287614D01*
X148161502Y-77287627D01*
X148101164Y-77433298D01*
X148101161Y-77433310D01*
X148070400Y-77587953D01*
X148070400Y-77745646D01*
X148101161Y-77900289D01*
X148101164Y-77900301D01*
X148161502Y-78045972D01*
X148161509Y-78045985D01*
X148249110Y-78177088D01*
X148249113Y-78177092D01*
X148360607Y-78288586D01*
X148360611Y-78288589D01*
X148491714Y-78376190D01*
X148491727Y-78376197D01*
X148620788Y-78429655D01*
X148637403Y-78436537D01*
X148780787Y-78465058D01*
X148792053Y-78467299D01*
X148792056Y-78467300D01*
X148792058Y-78467300D01*
X148949744Y-78467300D01*
X148949745Y-78467299D01*
X149104397Y-78436537D01*
X149250079Y-78376194D01*
X149381189Y-78288589D01*
X149492689Y-78177089D01*
X149580294Y-78045979D01*
X149581864Y-78042190D01*
X149629538Y-77927093D01*
X149640637Y-77900297D01*
X149671400Y-77745642D01*
X149671400Y-77587958D01*
X149671400Y-77587955D01*
X149671399Y-77587953D01*
X149640638Y-77433310D01*
X149640637Y-77433303D01*
X149607546Y-77353414D01*
X149580297Y-77287627D01*
X149580290Y-77287614D01*
X149519298Y-77196333D01*
X149498420Y-77129655D01*
X149498400Y-77127442D01*
X149498400Y-76206156D01*
X149518085Y-76139117D01*
X149519298Y-76137265D01*
X149526037Y-76127179D01*
X149580294Y-76045979D01*
X149640637Y-75900297D01*
X149671400Y-75745642D01*
X149671400Y-75587958D01*
X149671400Y-75587955D01*
X149671399Y-75587953D01*
X149665897Y-75560295D01*
X149640637Y-75433303D01*
X149606511Y-75350914D01*
X149580297Y-75287627D01*
X149580290Y-75287614D01*
X149492689Y-75156511D01*
X149492686Y-75156507D01*
X149381192Y-75045013D01*
X149381188Y-75045010D01*
X149250085Y-74957409D01*
X149250072Y-74957402D01*
X149104401Y-74897064D01*
X149104389Y-74897061D01*
X148949745Y-74866300D01*
X148949742Y-74866300D01*
X148792058Y-74866300D01*
X148792055Y-74866300D01*
X148637410Y-74897061D01*
X148637398Y-74897064D01*
X148491727Y-74957402D01*
X148491714Y-74957409D01*
X148360611Y-75045010D01*
X148360607Y-75045013D01*
X148249113Y-75156507D01*
X148249110Y-75156511D01*
X148161509Y-75287614D01*
X148161502Y-75287627D01*
X148101164Y-75433298D01*
X148101161Y-75433310D01*
X148070400Y-75587953D01*
X147771399Y-75587953D01*
X147765897Y-75560295D01*
X147740637Y-75433303D01*
X147706511Y-75350914D01*
X147680297Y-75287627D01*
X147680290Y-75287614D01*
X147592689Y-75156511D01*
X147592686Y-75156507D01*
X147481192Y-75045013D01*
X147481188Y-75045010D01*
X147350085Y-74957409D01*
X147350072Y-74957402D01*
X147204401Y-74897064D01*
X147204389Y-74897061D01*
X147049745Y-74866300D01*
X147049742Y-74866300D01*
X146892058Y-74866300D01*
X146892055Y-74866300D01*
X146737410Y-74897061D01*
X146737398Y-74897064D01*
X146591727Y-74957402D01*
X146591714Y-74957409D01*
X146460611Y-75045010D01*
X146460607Y-75045013D01*
X146349113Y-75156507D01*
X146349110Y-75156511D01*
X146261509Y-75287614D01*
X146261502Y-75287627D01*
X146201164Y-75433298D01*
X146201161Y-75433308D01*
X146186221Y-75508417D01*
X146153836Y-75570328D01*
X146093120Y-75604902D01*
X146023350Y-75601161D01*
X145966679Y-75560295D01*
X145942987Y-75508417D01*
X145940637Y-75496603D01*
X145921354Y-75450050D01*
X145880297Y-75350927D01*
X145880290Y-75350914D01*
X145792689Y-75219811D01*
X145792686Y-75219807D01*
X145681192Y-75108313D01*
X145681188Y-75108310D01*
X145550085Y-75020709D01*
X145550072Y-75020702D01*
X145404401Y-74960364D01*
X145404389Y-74960361D01*
X145249745Y-74929600D01*
X145249742Y-74929600D01*
X145092058Y-74929600D01*
X145092055Y-74929600D01*
X144937410Y-74960361D01*
X144937398Y-74960364D01*
X144791727Y-75020702D01*
X144791714Y-75020709D01*
X144660611Y-75108310D01*
X144660607Y-75108313D01*
X144549113Y-75219807D01*
X144549110Y-75219811D01*
X144461509Y-75350914D01*
X144461502Y-75350927D01*
X144401164Y-75496598D01*
X144401161Y-75496610D01*
X144370400Y-75651253D01*
X108615763Y-75651253D01*
X108611498Y-75645965D01*
X108591959Y-75627512D01*
X108589895Y-75619178D01*
X108584506Y-75612496D01*
X108581623Y-75585777D01*
X108575163Y-75559692D01*
X108577931Y-75551565D01*
X108577011Y-75543030D01*
X108589030Y-75518995D01*
X108597699Y-75493556D01*
X108604851Y-75487357D01*
X108608262Y-75480539D01*
X108622434Y-75472122D01*
X108642754Y-75454515D01*
X108651516Y-75450051D01*
X108675976Y-75432280D01*
X108823486Y-75325109D01*
X108823488Y-75325106D01*
X108823492Y-75325104D01*
X108973804Y-75174792D01*
X108973806Y-75174788D01*
X108973809Y-75174786D01*
X109098748Y-75002820D01*
X109098747Y-75002820D01*
X109098751Y-75002816D01*
X109195257Y-74813412D01*
X109260946Y-74611243D01*
X109294200Y-74401287D01*
X109294200Y-74188713D01*
X109260946Y-73978757D01*
X109195257Y-73776588D01*
X109098751Y-73587184D01*
X109098749Y-73587181D01*
X109098748Y-73587179D01*
X108973809Y-73415213D01*
X108823486Y-73264890D01*
X108651520Y-73139951D01*
X108650815Y-73139591D01*
X108642754Y-73135485D01*
X108591959Y-73087512D01*
X108575163Y-73019692D01*
X108597699Y-72953556D01*
X108642754Y-72914515D01*
X108651516Y-72910051D01*
X108673489Y-72894086D01*
X108823486Y-72785109D01*
X108823488Y-72785106D01*
X108823492Y-72785104D01*
X108973804Y-72634792D01*
X108973806Y-72634788D01*
X108973809Y-72634786D01*
X109098748Y-72462820D01*
X109098747Y-72462820D01*
X109098751Y-72462816D01*
X109195257Y-72273412D01*
X109260946Y-72071243D01*
X109294200Y-71861287D01*
X109294200Y-71648713D01*
X109260946Y-71438757D01*
X109195257Y-71236588D01*
X109098751Y-71047184D01*
X109098749Y-71047181D01*
X109098748Y-71047179D01*
X108973809Y-70875213D01*
X108823486Y-70724890D01*
X108651520Y-70599951D01*
X108650815Y-70599591D01*
X108642754Y-70595485D01*
X108591959Y-70547512D01*
X108575163Y-70479692D01*
X108597699Y-70413556D01*
X108642754Y-70374515D01*
X108651516Y-70370051D01*
X108673489Y-70354086D01*
X108823486Y-70245109D01*
X108823488Y-70245106D01*
X108823492Y-70245104D01*
X108973804Y-70094792D01*
X108973806Y-70094788D01*
X108973809Y-70094786D01*
X109082786Y-69944789D01*
X109098751Y-69922816D01*
X109195257Y-69733412D01*
X109260946Y-69531243D01*
X109261269Y-69529204D01*
X147185533Y-69529204D01*
X147212452Y-69664531D01*
X147212455Y-69664541D01*
X147265255Y-69792013D01*
X147265262Y-69792026D01*
X147341919Y-69906750D01*
X147341922Y-69906754D01*
X147439488Y-70004320D01*
X147439492Y-70004323D01*
X147554216Y-70080980D01*
X147554229Y-70080987D01*
X147681701Y-70133787D01*
X147681706Y-70133789D01*
X147681710Y-70133789D01*
X147681711Y-70133790D01*
X147817038Y-70160709D01*
X147817041Y-70160709D01*
X147955029Y-70160709D01*
X148046075Y-70142598D01*
X148090362Y-70133789D01*
X148217845Y-70080984D01*
X148332576Y-70004323D01*
X148430148Y-69906751D01*
X148506809Y-69792020D01*
X148559614Y-69664537D01*
X148586534Y-69529204D01*
X150185533Y-69529204D01*
X150212452Y-69664531D01*
X150212455Y-69664541D01*
X150265255Y-69792013D01*
X150265262Y-69792026D01*
X150341919Y-69906750D01*
X150341922Y-69906754D01*
X150439488Y-70004320D01*
X150439492Y-70004323D01*
X150554216Y-70080980D01*
X150554229Y-70080987D01*
X150681701Y-70133787D01*
X150681706Y-70133789D01*
X150681710Y-70133789D01*
X150681711Y-70133790D01*
X150817038Y-70160709D01*
X150817041Y-70160709D01*
X150955029Y-70160709D01*
X151046075Y-70142598D01*
X151090362Y-70133789D01*
X151217845Y-70080984D01*
X151332576Y-70004323D01*
X151430148Y-69906751D01*
X151506809Y-69792020D01*
X151559614Y-69664537D01*
X151586534Y-69529202D01*
X151586534Y-69391216D01*
X151586534Y-69391213D01*
X151559615Y-69255886D01*
X151559614Y-69255885D01*
X151559614Y-69255881D01*
X151559612Y-69255876D01*
X151506812Y-69128404D01*
X151506805Y-69128391D01*
X151430148Y-69013667D01*
X151430145Y-69013663D01*
X151332579Y-68916097D01*
X151332575Y-68916094D01*
X151217851Y-68839437D01*
X151217838Y-68839430D01*
X151090366Y-68786630D01*
X151090356Y-68786627D01*
X150955029Y-68759709D01*
X150955027Y-68759709D01*
X150817041Y-68759709D01*
X150817039Y-68759709D01*
X150681711Y-68786627D01*
X150681701Y-68786630D01*
X150554229Y-68839430D01*
X150554216Y-68839437D01*
X150439492Y-68916094D01*
X150439488Y-68916097D01*
X150341922Y-69013663D01*
X150341919Y-69013667D01*
X150265262Y-69128391D01*
X150265255Y-69128404D01*
X150212455Y-69255876D01*
X150212452Y-69255886D01*
X150185534Y-69391213D01*
X150185534Y-69391216D01*
X150185534Y-69529202D01*
X150185534Y-69529204D01*
X150185533Y-69529204D01*
X148586534Y-69529204D01*
X148586534Y-69529202D01*
X148586534Y-69391216D01*
X148586534Y-69391213D01*
X148559615Y-69255886D01*
X148559614Y-69255885D01*
X148559614Y-69255881D01*
X148559612Y-69255876D01*
X148506812Y-69128404D01*
X148506805Y-69128391D01*
X148430148Y-69013667D01*
X148430145Y-69013663D01*
X148332579Y-68916097D01*
X148332575Y-68916094D01*
X148217851Y-68839437D01*
X148217838Y-68839430D01*
X148090366Y-68786630D01*
X148090356Y-68786627D01*
X147955029Y-68759709D01*
X147955027Y-68759709D01*
X147817041Y-68759709D01*
X147817039Y-68759709D01*
X147681711Y-68786627D01*
X147681701Y-68786630D01*
X147554229Y-68839430D01*
X147554216Y-68839437D01*
X147439492Y-68916094D01*
X147439488Y-68916097D01*
X147341922Y-69013663D01*
X147341919Y-69013667D01*
X147265262Y-69128391D01*
X147265255Y-69128404D01*
X147212455Y-69255876D01*
X147212452Y-69255886D01*
X147185534Y-69391213D01*
X147185534Y-69391216D01*
X147185534Y-69529202D01*
X147185534Y-69529204D01*
X147185533Y-69529204D01*
X109261269Y-69529204D01*
X109294200Y-69321287D01*
X109294200Y-69108713D01*
X109260946Y-68898757D01*
X109195257Y-68696588D01*
X109098751Y-68507184D01*
X109098749Y-68507181D01*
X109098748Y-68507179D01*
X108973809Y-68335213D01*
X108823486Y-68184890D01*
X108651520Y-68059951D01*
X108462114Y-67963444D01*
X108462113Y-67963443D01*
X108462112Y-67963443D01*
X108259943Y-67897754D01*
X108259941Y-67897753D01*
X108259940Y-67897753D01*
X108098657Y-67872208D01*
X108049987Y-67864500D01*
X107837413Y-67864500D01*
X107788742Y-67872208D01*
X107627460Y-67897753D01*
X107425285Y-67963444D01*
X107235879Y-68059951D01*
X107063913Y-68184890D01*
X106913590Y-68335213D01*
X106788649Y-68507182D01*
X106784184Y-68515946D01*
X106736209Y-68566742D01*
X106668388Y-68583536D01*
X106602253Y-68560998D01*
X106563216Y-68515946D01*
X106558750Y-68507182D01*
X106433809Y-68335213D01*
X106283486Y-68184890D01*
X106111520Y-68059951D01*
X105922114Y-67963444D01*
X105922113Y-67963443D01*
X105922112Y-67963443D01*
X105719943Y-67897754D01*
X105719941Y-67897753D01*
X105719940Y-67897753D01*
X105558657Y-67872208D01*
X105509987Y-67864500D01*
X105297413Y-67864500D01*
X105248742Y-67872208D01*
X105087460Y-67897753D01*
X104885285Y-67963444D01*
X104695879Y-68059951D01*
X104523913Y-68184890D01*
X104373590Y-68335213D01*
X104248651Y-68507179D01*
X104152144Y-68696585D01*
X104086453Y-68898760D01*
X104068254Y-69013667D01*
X104053200Y-69108713D01*
X101471400Y-69108713D01*
X101471400Y-64650065D01*
X111986543Y-64650065D01*
X111986543Y-66200083D01*
X111986544Y-66200100D01*
X111997043Y-66302878D01*
X111997044Y-66302881D01*
X112031074Y-66405575D01*
X112052229Y-66469416D01*
X112144331Y-66618738D01*
X112268387Y-66742794D01*
X112417709Y-66834896D01*
X112584246Y-66890081D01*
X112687034Y-66900582D01*
X113987051Y-66900581D01*
X114089840Y-66890081D01*
X114256377Y-66834896D01*
X114405699Y-66742794D01*
X114529755Y-66618738D01*
X114621857Y-66469416D01*
X114621857Y-66469413D01*
X114625491Y-66463523D01*
X114677438Y-66416798D01*
X114746401Y-66405575D01*
X114810483Y-66433418D01*
X114818711Y-66440938D01*
X114957578Y-66579805D01*
X114957583Y-66579809D01*
X115129485Y-66704702D01*
X115318825Y-66801177D01*
X115520914Y-66866839D01*
X115587043Y-66877313D01*
X115587043Y-65829227D01*
X115653700Y-65867712D01*
X115774508Y-65900082D01*
X115899578Y-65900082D01*
X116020386Y-65867712D01*
X116087043Y-65829227D01*
X116087043Y-66877312D01*
X116153169Y-66866839D01*
X116153172Y-66866839D01*
X116355260Y-66801177D01*
X116544600Y-66704702D01*
X116716502Y-66579809D01*
X116716507Y-66579805D01*
X116866764Y-66429548D01*
X116986414Y-66264863D01*
X117041744Y-66222197D01*
X117111357Y-66216218D01*
X117173153Y-66248823D01*
X117187051Y-66264863D01*
X117306933Y-66429867D01*
X117306937Y-66429872D01*
X117457256Y-66580191D01*
X117629222Y-66705130D01*
X117629224Y-66705131D01*
X117629227Y-66705133D01*
X117818631Y-66801639D01*
X118020800Y-66867328D01*
X118230756Y-66900582D01*
X118230757Y-66900582D01*
X118443329Y-66900582D01*
X118443330Y-66900582D01*
X118653286Y-66867328D01*
X118855455Y-66801639D01*
X119044859Y-66705133D01*
X119066832Y-66689168D01*
X119216829Y-66580191D01*
X119216831Y-66580188D01*
X119216835Y-66580186D01*
X119367147Y-66429874D01*
X119486726Y-66265286D01*
X119542054Y-66222622D01*
X119611667Y-66216643D01*
X119673463Y-66249248D01*
X119687356Y-66265281D01*
X119789285Y-66405575D01*
X119806939Y-66429874D01*
X119957256Y-66580191D01*
X120129222Y-66705130D01*
X120129224Y-66705131D01*
X120129227Y-66705133D01*
X120318631Y-66801639D01*
X120520800Y-66867328D01*
X120730756Y-66900582D01*
X120730757Y-66900582D01*
X120943329Y-66900582D01*
X120943330Y-66900582D01*
X121153286Y-66867328D01*
X121355455Y-66801639D01*
X121544859Y-66705133D01*
X121566832Y-66689168D01*
X121716829Y-66580191D01*
X121716831Y-66580188D01*
X121716835Y-66580186D01*
X121867147Y-66429874D01*
X121986726Y-66265286D01*
X122042054Y-66222622D01*
X122111667Y-66216643D01*
X122173463Y-66249248D01*
X122187356Y-66265281D01*
X122289285Y-66405575D01*
X122306939Y-66429874D01*
X122457256Y-66580191D01*
X122629222Y-66705130D01*
X122629224Y-66705131D01*
X122629227Y-66705133D01*
X122818631Y-66801639D01*
X123020800Y-66867328D01*
X123230756Y-66900582D01*
X123230757Y-66900582D01*
X123443329Y-66900582D01*
X123443330Y-66900582D01*
X123653286Y-66867328D01*
X123855455Y-66801639D01*
X124044859Y-66705133D01*
X124066832Y-66689168D01*
X124216829Y-66580191D01*
X124216831Y-66580188D01*
X124216835Y-66580186D01*
X124367147Y-66429874D01*
X124367149Y-66429870D01*
X124367152Y-66429868D01*
X124492091Y-66257902D01*
X124492090Y-66257902D01*
X124492094Y-66257898D01*
X124588600Y-66068494D01*
X124654289Y-65866325D01*
X124687543Y-65656369D01*
X124687543Y-65193795D01*
X124671850Y-65094712D01*
X152363641Y-65094712D01*
X152363641Y-65252405D01*
X152394402Y-65407048D01*
X152394405Y-65407060D01*
X152454743Y-65552731D01*
X152454750Y-65552744D01*
X152542351Y-65683847D01*
X152542354Y-65683851D01*
X152653848Y-65795345D01*
X152653852Y-65795348D01*
X152784955Y-65882949D01*
X152784968Y-65882956D01*
X152930639Y-65943294D01*
X152930644Y-65943296D01*
X153085294Y-65974058D01*
X153085297Y-65974059D01*
X153085299Y-65974059D01*
X153242985Y-65974059D01*
X153242986Y-65974058D01*
X153397638Y-65943296D01*
X153543320Y-65882953D01*
X153674430Y-65795348D01*
X153785930Y-65683848D01*
X153873535Y-65552738D01*
X153879332Y-65538741D01*
X153906210Y-65498513D01*
X154895854Y-64508869D01*
X154936078Y-64481993D01*
X154950079Y-64476194D01*
X155081189Y-64388589D01*
X155192689Y-64277089D01*
X155280294Y-64145979D01*
X155340637Y-64000297D01*
X155371400Y-63845642D01*
X155371400Y-63687958D01*
X155371400Y-63687955D01*
X155371399Y-63687953D01*
X155340638Y-63533310D01*
X155340637Y-63533303D01*
X155295531Y-63424406D01*
X155280297Y-63387627D01*
X155280290Y-63387614D01*
X155192689Y-63256511D01*
X155192686Y-63256507D01*
X155081192Y-63145013D01*
X155081188Y-63145010D01*
X154950085Y-63057409D01*
X154950072Y-63057402D01*
X154804401Y-62997064D01*
X154804389Y-62997061D01*
X154649745Y-62966300D01*
X154649742Y-62966300D01*
X154492058Y-62966300D01*
X154492055Y-62966300D01*
X154337410Y-62997061D01*
X154337398Y-62997064D01*
X154191727Y-63057402D01*
X154191714Y-63057409D01*
X154060611Y-63145010D01*
X154060607Y-63145013D01*
X153949113Y-63256507D01*
X153949107Y-63256515D01*
X153861506Y-63387618D01*
X153861506Y-63387619D01*
X153855705Y-63401624D01*
X153828827Y-63441846D01*
X152839186Y-64431487D01*
X152798963Y-64458365D01*
X152784960Y-64464165D01*
X152784959Y-64464166D01*
X152653856Y-64551766D01*
X152653848Y-64551772D01*
X152542354Y-64663266D01*
X152542351Y-64663270D01*
X152454750Y-64794373D01*
X152454743Y-64794386D01*
X152394405Y-64940057D01*
X152394402Y-64940069D01*
X152363641Y-65094712D01*
X124671850Y-65094712D01*
X124654289Y-64983839D01*
X124588600Y-64781670D01*
X124492094Y-64592266D01*
X124492092Y-64592263D01*
X124492091Y-64592261D01*
X124367152Y-64420295D01*
X124216829Y-64269972D01*
X124044863Y-64145033D01*
X123855457Y-64048526D01*
X123855456Y-64048525D01*
X123855455Y-64048525D01*
X123653286Y-63982836D01*
X123653284Y-63982835D01*
X123653283Y-63982835D01*
X123492000Y-63957290D01*
X123443330Y-63949582D01*
X123230756Y-63949582D01*
X123182085Y-63957290D01*
X123020803Y-63982835D01*
X122818628Y-64048526D01*
X122629222Y-64145033D01*
X122457256Y-64269972D01*
X122306937Y-64420291D01*
X122306933Y-64420296D01*
X122187361Y-64584875D01*
X122132032Y-64627541D01*
X122062418Y-64633520D01*
X122000623Y-64600915D01*
X121986725Y-64584875D01*
X121867152Y-64420296D01*
X121867148Y-64420291D01*
X121716829Y-64269972D01*
X121544863Y-64145033D01*
X121355457Y-64048526D01*
X121355456Y-64048525D01*
X121355455Y-64048525D01*
X121153286Y-63982836D01*
X121153284Y-63982835D01*
X121153283Y-63982835D01*
X120992000Y-63957290D01*
X120943330Y-63949582D01*
X120730756Y-63949582D01*
X120682085Y-63957290D01*
X120520803Y-63982835D01*
X120318628Y-64048526D01*
X120129222Y-64145033D01*
X119957256Y-64269972D01*
X119806937Y-64420291D01*
X119806933Y-64420296D01*
X119687361Y-64584875D01*
X119632032Y-64627541D01*
X119562418Y-64633520D01*
X119500623Y-64600915D01*
X119486725Y-64584875D01*
X119367152Y-64420296D01*
X119367148Y-64420291D01*
X119216829Y-64269972D01*
X119044863Y-64145033D01*
X118855457Y-64048526D01*
X118855456Y-64048525D01*
X118855455Y-64048525D01*
X118653286Y-63982836D01*
X118653284Y-63982835D01*
X118653283Y-63982835D01*
X118492000Y-63957290D01*
X118443330Y-63949582D01*
X118230756Y-63949582D01*
X118182085Y-63957290D01*
X118020803Y-63982835D01*
X117818628Y-64048526D01*
X117629222Y-64145033D01*
X117457256Y-64269972D01*
X117306937Y-64420291D01*
X117306933Y-64420296D01*
X117187051Y-64585300D01*
X117131721Y-64627966D01*
X117062108Y-64633945D01*
X117000313Y-64601339D01*
X116986415Y-64585300D01*
X116866770Y-64420622D01*
X116866766Y-64420617D01*
X116716507Y-64270358D01*
X116716502Y-64270354D01*
X116544600Y-64145461D01*
X116355258Y-64048985D01*
X116153167Y-63983323D01*
X116087043Y-63972850D01*
X116087043Y-65020936D01*
X116020386Y-64982452D01*
X115899578Y-64950082D01*
X115774508Y-64950082D01*
X115653700Y-64982452D01*
X115587043Y-65020936D01*
X115587043Y-63972850D01*
X115587042Y-63972850D01*
X115520918Y-63983323D01*
X115318827Y-64048985D01*
X115129485Y-64145461D01*
X114957584Y-64270353D01*
X114818711Y-64409226D01*
X114757388Y-64442710D01*
X114687696Y-64437726D01*
X114631763Y-64395854D01*
X114625491Y-64386640D01*
X114529755Y-64231426D01*
X114405700Y-64107371D01*
X114405699Y-64107370D01*
X114256377Y-64015268D01*
X114089840Y-63960083D01*
X114089838Y-63960082D01*
X113987053Y-63949582D01*
X112687041Y-63949582D01*
X112687024Y-63949583D01*
X112584246Y-63960082D01*
X112584243Y-63960083D01*
X112417711Y-64015267D01*
X112417706Y-64015269D01*
X112268385Y-64107371D01*
X112144332Y-64231424D01*
X112052230Y-64380745D01*
X112052228Y-64380750D01*
X112047223Y-64395854D01*
X111997044Y-64547285D01*
X111997044Y-64547286D01*
X111997043Y-64547286D01*
X111986543Y-64650065D01*
X101471400Y-64650065D01*
X101471400Y-57312827D01*
X101491085Y-57245788D01*
X101543889Y-57200033D01*
X101595400Y-57188827D01*
X115201281Y-57188827D01*
X115268320Y-57208512D01*
G37*
%TD.AperFunction*%
%TD*%
M02*
