M48
; DRILL file KiCad 10.0.1 date 2026-05-03T14:57:33
; FORMAT={-:-/ absolute / metric / decimal}
; #@! TF.CreationDate,2026-05-03T14:57:33-06:00
; #@! TF.GenerationSoftware,Kicad,Pcbnew,10.0.1
; #@! TF.FileFunction,MixedPlating,1,2
FMAT,2
METRIC
; #@! TA.AperFunction,Plated,PTH,ViaDrill
T1C0.300
; #@! TA.AperFunction,Plated,PTH,ComponentDrill
T2C0.600
; #@! TA.AperFunction,Plated,PTH,ComponentDrill
T3C0.950
; #@! TA.AperFunction,Plated,PTH,ComponentDrill
T4C1.000
; #@! TA.AperFunction,NonPlated,NPTH,ComponentDrill
T5C0.650
; #@! TA.AperFunction,NonPlated,NPTH,ComponentDrill
T6C0.900
%
G90
G05
T1
X103.871Y-76.267
X104.271Y-100.267
X109.071Y-86.767
X109.071Y-93.167
X109.171Y-103.867
X109.871Y-89.967
X112.671Y-86.267
X112.671Y-93.661
X114.671Y-82.267
X115.871Y-66.867
X117.944Y-83.567
X119.871Y-83.567
X120.871Y-82.067
X120.971Y-77.867
X122.271Y-75.167
X122.471Y-91.067
X122.471Y-96.267
X124.071Y-104.467
X125.071Y-71.767
X125.841Y-91.41
X126.171Y-83.367
X126.271Y-78.667
X126.371Y-59.967
X127.271Y-91.367
X127.671Y-83.367
X131.828Y-104.21
X132.671Y-92.167
X133.071Y-83.567
X133.071Y-102.967
X133.771Y-86.367
X134.071Y-79.867
X134.571Y-95.867
X134.771Y-64.767
X134.771Y-65.667
X134.971Y-73.167
X137.571Y-87.067
X137.871Y-108.267
X138.871Y-64.467
X138.871Y-73.067
X138.971Y-68.367
X139.771Y-58.267
X140.371Y-91.467
X140.471Y-87.267
X141.171Y-68.367
X141.171Y-73.067
X141.271Y-64.367
X142.271Y-58.367
X142.671Y-99.867
X143.471Y-89.867
X145.171Y-75.73
X145.171Y-78.967
X145.771Y-88.667
X146.371Y-97.867
X146.971Y-75.667
X147.971Y-62.867
X148.871Y-75.667
X148.871Y-77.667
X149.371Y-92.567
X149.871Y-85.567
X150.371Y-82.267
X153.164Y-65.174
X154.571Y-63.767
X156.171Y-77.667
X156.171Y-78.967
X156.571Y-83.867
X157.679Y-78.967
X159.571Y-86.467
X159.571Y-87.567
X160.471Y-75.667
X160.471Y-76.367
X160.471Y-79.567
X160.471Y-80.267
X160.871Y-83.767
T3
X109.254Y-102.413
X111.754Y-102.413
X113.337Y-65.425
X114.254Y-102.413
X115.837Y-65.425
X116.754Y-102.413
X118.337Y-65.425
X120.837Y-65.425
X123.337Y-65.425
T4
X103.397Y-98.781
X103.397Y-101.321
X103.397Y-103.861
X103.397Y-106.401
X105.404Y-69.215
X105.404Y-71.755
X105.404Y-74.295
X105.404Y-76.835
X107.944Y-69.215
X107.944Y-71.755
X107.944Y-74.295
X107.944Y-76.835
X134.512Y-107.366
X137.052Y-107.366
X139.592Y-107.366
X142.132Y-107.366
X144.672Y-107.366
X147.212Y-107.366
X147.999Y-61.443
X149.752Y-107.366
X150.499Y-61.443
X152.292Y-107.366
X158.794Y-60.731
X158.916Y-104.961
X161.294Y-60.731
X161.416Y-104.961
T5
X106.376Y-87.094
X106.376Y-92.874
T6
X123.905Y-106.469
X126.905Y-106.469
X147.886Y-69.46
X150.886Y-69.46
T2
G00X102.996Y-85.664
M15
G01X102.396Y-85.664
M16
G05
G00X102.996Y-94.304
M15
G01X102.396Y-94.304
M16
G05
G00X107.426Y-85.664
M15
G01X106.326Y-85.664
M16
G05
G00X107.426Y-94.304
M15
G01X106.326Y-94.304
M16
G05
M30
