M48
; DRILL file {KiCad 9.0.7} date 2026-04-27T10:17:03-0600
; FORMAT={-:-/ absolute / metric / decimal}
; #@! TF.CreationDate,2026-04-27T10:17:03-06:00
; #@! TF.GenerationSoftware,Kicad,Pcbnew,9.0.7
; #@! TF.FileFunction,MixedPlating,1,2
FMAT,2
METRIC
; #@! TA.AperFunction,Plated,PTH,ViaDrill
T1C0.300
; #@! TA.AperFunction,Plated,PTH,ComponentDrill
T2C0.550
; #@! TA.AperFunction,Plated,PTH,ComponentDrill
T3C0.850
; #@! TA.AperFunction,Plated,PTH,ComponentDrill
T4C1.000
; #@! TA.AperFunction,NonPlated,NPTH,ComponentDrill
T5C0.800
; #@! TA.AperFunction,NonPlated,NPTH,ComponentDrill
T6C0.900
; #@! TA.AperFunction,NonPlated,NPTH,ComponentDrill
T7C2.200
%
G90
G05
T1
X118.0Y-97.3
X119.8Y-105.8
X122.2Y-102.5
X123.1Y-103.8
X123.3Y-111.1
X123.4Y-107.7
X123.9Y-102.03
X125.5Y-100.4
X126.062Y-115.837
X127.9Y-105.1
X128.1Y-115.8
X128.7Y-101.2
X129.93Y-113.43
X130.0Y-110.2
X131.9Y-113.2
X132.7Y-106.8
X137.8Y-102.0
X141.3Y-111.2
X141.6Y-106.5
X141.6Y-107.5
X142.1Y-111.2
X145.6Y-111.8
X146.2Y-110.3
X147.4Y-102.8
T4
X122.99Y-91.4
X125.18Y-117.8
X125.53Y-91.4
X127.72Y-117.8
X128.07Y-91.4
X130.26Y-117.8
X130.61Y-91.4
X132.8Y-117.8
X136.02Y-91.4
X138.56Y-91.4
X141.1Y-91.4
X143.64Y-91.4
T5
X149.55Y-101.905
X149.55Y-106.905
T6
X115.1Y-98.05
X115.1Y-101.05
T7
X116.1Y-92.1
X116.1Y-117.1
X151.1Y-92.1
X151.1Y-117.1
T2
G00X151.975Y-100.53
M15
G01X152.625Y-100.53
M16
G05
G00X151.975Y-108.28
M15
G01X152.625Y-108.28
M16
G05
T3
G00X148.225Y-100.68
M15
G01X148.775Y-100.68
M16
G05
G00X148.225Y-108.13
M15
G01X148.775Y-108.13
M16
G05
M30
