%TF.GenerationSoftware,KiCad,Pcbnew,9.0.7*%
%TF.CreationDate,2026-04-27T10:17:10-06:00*%
%TF.ProjectId,PhilsLab_Tutorial,5068696c-734c-4616-925f-5475746f7269,rev?*%
%TF.SameCoordinates,Original*%
%TF.FileFunction,Paste,Top*%
%TF.FilePolarity,Positive*%
%FSLAX46Y46*%
G04 Gerber Fmt 4.6, Leading zero omitted, Abs format (unit mm)*
G04 Created by KiCad (PCBNEW 9.0.7) date 2026-04-27 10:17:10*
%MOMM*%
%LPD*%
G01*
G04 APERTURE LIST*
G04 Aperture macros list*
%AMRoundRect*
0 Rectangle with rounded corners*
0 $1 Rounding radius*
0 $2 $3 $4 $5 $6 $7 $8 $9 X,Y pos of 4 corners*
0 Add a 4 corners polygon primitive as box body*
4,1,4,$2,$3,$4,$5,$6,$7,$8,$9,$2,$3,0*
0 Add four circle primitives for the rounded corners*
1,1,$1+$1,$2,$3*
1,1,$1+$1,$4,$5*
1,1,$1+$1,$6,$7*
1,1,$1+$1,$8,$9*
0 Add four rect primitives between the rounded corners*
20,1,$1+$1,$2,$3,$4,$5,0*
20,1,$1+$1,$4,$5,$6,$7,0*
20,1,$1+$1,$6,$7,$8,$9,0*
20,1,$1+$1,$8,$9,$2,$3,0*%
G04 Aperture macros list end*
%ADD10RoundRect,0.225000X-0.225000X-0.250000X0.225000X-0.250000X0.225000X0.250000X-0.225000X0.250000X0*%
%ADD11RoundRect,0.375000X-0.375000X0.625000X-0.375000X-0.625000X0.375000X-0.625000X0.375000X0.625000X0*%
%ADD12RoundRect,0.500000X-1.400000X0.500000X-1.400000X-0.500000X1.400000X-0.500000X1.400000X0.500000X0*%
%ADD13RoundRect,0.135000X-0.185000X0.135000X-0.185000X-0.135000X0.185000X-0.135000X0.185000X0.135000X0*%
%ADD14RoundRect,0.140000X0.170000X-0.140000X0.170000X0.140000X-0.170000X0.140000X-0.170000X-0.140000X0*%
%ADD15R,0.800000X1.000000*%
%ADD16R,1.500000X0.700000*%
%ADD17RoundRect,0.135000X0.185000X-0.135000X0.185000X0.135000X-0.185000X0.135000X-0.185000X-0.135000X0*%
%ADD18RoundRect,0.250000X-0.250000X-0.475000X0.250000X-0.475000X0.250000X0.475000X-0.250000X0.475000X0*%
%ADD19RoundRect,0.140000X-0.140000X-0.170000X0.140000X-0.170000X0.140000X0.170000X-0.140000X0.170000X0*%
%ADD20RoundRect,0.218750X-0.256250X0.218750X-0.256250X-0.218750X0.256250X-0.218750X0.256250X0.218750X0*%
%ADD21RoundRect,0.135000X-0.135000X-0.185000X0.135000X-0.185000X0.135000X0.185000X-0.135000X0.185000X0*%
%ADD22RoundRect,0.140000X0.140000X0.170000X-0.140000X0.170000X-0.140000X-0.170000X0.140000X-0.170000X0*%
%ADD23RoundRect,0.075000X-0.662500X-0.075000X0.662500X-0.075000X0.662500X0.075000X-0.662500X0.075000X0*%
%ADD24RoundRect,0.075000X-0.075000X-0.662500X0.075000X-0.662500X0.075000X0.662500X-0.075000X0.662500X0*%
%ADD25RoundRect,0.135000X0.135000X0.185000X-0.135000X0.185000X-0.135000X-0.185000X0.135000X-0.185000X0*%
%ADD26RoundRect,0.250000X-0.350000X0.450000X-0.350000X-0.450000X0.350000X-0.450000X0.350000X0.450000X0*%
%ADD27RoundRect,0.140000X-0.170000X0.140000X-0.170000X-0.140000X0.170000X-0.140000X0.170000X0.140000X0*%
%ADD28RoundRect,0.250000X0.475000X-0.250000X0.475000X0.250000X-0.475000X0.250000X-0.475000X-0.250000X0*%
%ADD29R,1.300000X0.450000*%
G04 APERTURE END LIST*
D10*
%TO.C,C3*%
X127787500Y-96500000D03*
X129337500Y-96500000D03*
%TD*%
D11*
%TO.C,U2*%
X141700000Y-109500000D03*
X139400000Y-109500000D03*
D12*
X139400000Y-115800000D03*
D11*
X137100000Y-109500000D03*
%TD*%
D13*
%TO.C,R3*%
X140700000Y-101690000D03*
X140700000Y-102710000D03*
%TD*%
D14*
%TO.C,C4*%
X124762500Y-101280000D03*
X124762500Y-100320000D03*
%TD*%
D15*
%TO.C,SW1*%
X116210000Y-95900000D03*
X114000000Y-95900000D03*
X116210000Y-103200000D03*
X114000000Y-103200000D03*
D16*
X116860000Y-97300000D03*
X116860000Y-100300000D03*
X116860000Y-101800000D03*
%TD*%
D17*
%TO.C,R2*%
X120200000Y-100110000D03*
X120200000Y-99090000D03*
%TD*%
D14*
%TO.C,C8*%
X124862500Y-105660000D03*
X124862500Y-104700000D03*
%TD*%
D18*
%TO.C,C1*%
X138500000Y-107000000D03*
X140400000Y-107000000D03*
%TD*%
D19*
%TO.C,C11*%
X128082500Y-110100000D03*
X129042500Y-110100000D03*
%TD*%
%TO.C,C7*%
X127982500Y-98100000D03*
X128942500Y-98100000D03*
%TD*%
D20*
%TO.C,D1*%
X147100000Y-112025000D03*
X147100000Y-113600000D03*
%TD*%
D21*
%TO.C,R5*%
X129790000Y-115100000D03*
X130810000Y-115100000D03*
%TD*%
D22*
%TO.C,C9*%
X124562500Y-108600000D03*
X123602500Y-108600000D03*
%TD*%
D23*
%TO.C,U1*%
X126637500Y-101350000D03*
X126637500Y-101850000D03*
X126637500Y-102350000D03*
X126637500Y-102850000D03*
X126637500Y-103350000D03*
X126637500Y-103850000D03*
X126637500Y-104350000D03*
X126637500Y-104850000D03*
X126637500Y-105350000D03*
X126637500Y-105850000D03*
X126637500Y-106350000D03*
X126637500Y-106850000D03*
D24*
X128050000Y-108262500D03*
X128550000Y-108262500D03*
X129050000Y-108262500D03*
X129550000Y-108262500D03*
X130050000Y-108262500D03*
X130550000Y-108262500D03*
X131050000Y-108262500D03*
X131550000Y-108262500D03*
X132050000Y-108262500D03*
X132550000Y-108262500D03*
X133050000Y-108262500D03*
X133550000Y-108262500D03*
D23*
X134962500Y-106850000D03*
X134962500Y-106350000D03*
X134962500Y-105850000D03*
X134962500Y-105350000D03*
X134962500Y-104850000D03*
X134962500Y-104350000D03*
X134962500Y-103850000D03*
X134962500Y-103350000D03*
X134962500Y-102850000D03*
X134962500Y-102350000D03*
X134962500Y-101850000D03*
X134962500Y-101350000D03*
D24*
X133550000Y-99937500D03*
X133050000Y-99937500D03*
X132550000Y-99937500D03*
X132050000Y-99937500D03*
X131550000Y-99937500D03*
X131050000Y-99937500D03*
X130550000Y-99937500D03*
X130050000Y-99937500D03*
X129550000Y-99937500D03*
X129050000Y-99937500D03*
X128550000Y-99937500D03*
X128050000Y-99937500D03*
%TD*%
D25*
%TO.C,R4*%
X128210000Y-115100000D03*
X127190000Y-115100000D03*
%TD*%
D14*
%TO.C,C12*%
X123100000Y-102680000D03*
X123100000Y-101720000D03*
%TD*%
D26*
%TO.C,Y1*%
X119600000Y-102300000D03*
X119600000Y-104500000D03*
X121300000Y-104500000D03*
X121300000Y-102300000D03*
%TD*%
D27*
%TO.C,C6*%
X136800000Y-101100000D03*
X136800000Y-102060000D03*
%TD*%
D20*
%TO.C,FB1*%
X126062500Y-108812500D03*
X126062500Y-110387500D03*
%TD*%
D22*
%TO.C,C10*%
X124562500Y-110200000D03*
X123602500Y-110200000D03*
%TD*%
D14*
%TO.C,C13*%
X123100000Y-105300000D03*
X123100000Y-104340000D03*
%TD*%
D28*
%TO.C,C2*%
X144400000Y-113700000D03*
X144400000Y-111800000D03*
%TD*%
D25*
%TO.C,R1*%
X148200000Y-110300000D03*
X147180000Y-110300000D03*
%TD*%
D22*
%TO.C,C5*%
X134160000Y-110100000D03*
X133200000Y-110100000D03*
%TD*%
D29*
%TO.C,USB*%
X148450000Y-105705000D03*
X148450000Y-105055000D03*
X148450000Y-104405000D03*
X148450000Y-103755000D03*
X148450000Y-103105000D03*
%TD*%
M02*
