%TF.GenerationSoftware,KiCad,Pcbnew,9.0.7*%
%TF.CreationDate,2026-04-27T10:17:10-06:00*%
%TF.ProjectId,PhilsLab_Tutorial,5068696c-734c-4616-925f-5475746f7269,rev?*%
%TF.SameCoordinates,Original*%
%TF.FileFunction,Copper,L1,Top*%
%TF.FilePolarity,Positive*%
%FSLAX46Y46*%
G04 Gerber Fmt 4.6, Leading zero omitted, Abs format (unit mm)*
G04 Created by KiCad (PCBNEW 9.0.7) date 2026-04-27 10:17:10*
%MOMM*%
%LPD*%
G01*
G04 APERTURE LIST*
G04 Aperture macros list*
%AMRoundRect*
0 Rectangle with rounded corners*
0 $1 Rounding radius*
0 $2 $3 $4 $5 $6 $7 $8 $9 X,Y pos of 4 corners*
0 Add a 4 corners polygon primitive as box body*
4,1,4,$2,$3,$4,$5,$6,$7,$8,$9,$2,$3,0*
0 Add four circle primitives for the rounded corners*
1,1,$1+$1,$2,$3*
1,1,$1+$1,$4,$5*
1,1,$1+$1,$6,$7*
1,1,$1+$1,$8,$9*
0 Add four rect primitives between the rounded corners*
20,1,$1+$1,$2,$3,$4,$5,0*
20,1,$1+$1,$4,$5,$6,$7,0*
20,1,$1+$1,$6,$7,$8,$9,0*
20,1,$1+$1,$8,$9,$2,$3,0*%
G04 Aperture macros list end*
%TA.AperFunction,SMDPad,CuDef*%
%ADD10RoundRect,0.225000X-0.225000X-0.250000X0.225000X-0.250000X0.225000X0.250000X-0.225000X0.250000X0*%
%TD*%
%TA.AperFunction,SMDPad,CuDef*%
%ADD11RoundRect,0.375000X-0.375000X0.625000X-0.375000X-0.625000X0.375000X-0.625000X0.375000X0.625000X0*%
%TD*%
%TA.AperFunction,SMDPad,CuDef*%
%ADD12RoundRect,0.500000X-1.400000X0.500000X-1.400000X-0.500000X1.400000X-0.500000X1.400000X0.500000X0*%
%TD*%
%TA.AperFunction,SMDPad,CuDef*%
%ADD13RoundRect,0.135000X-0.185000X0.135000X-0.185000X-0.135000X0.185000X-0.135000X0.185000X0.135000X0*%
%TD*%
%TA.AperFunction,SMDPad,CuDef*%
%ADD14RoundRect,0.140000X0.170000X-0.140000X0.170000X0.140000X-0.170000X0.140000X-0.170000X-0.140000X0*%
%TD*%
%TA.AperFunction,ComponentPad*%
%ADD15R,1.700000X1.700000*%
%TD*%
%TA.AperFunction,ComponentPad*%
%ADD16C,1.700000*%
%TD*%
%TA.AperFunction,SMDPad,CuDef*%
%ADD17R,0.800000X1.000000*%
%TD*%
%TA.AperFunction,SMDPad,CuDef*%
%ADD18R,1.500000X0.700000*%
%TD*%
%TA.AperFunction,SMDPad,CuDef*%
%ADD19RoundRect,0.135000X0.185000X-0.135000X0.185000X0.135000X-0.185000X0.135000X-0.185000X-0.135000X0*%
%TD*%
%TA.AperFunction,SMDPad,CuDef*%
%ADD20RoundRect,0.250000X-0.250000X-0.475000X0.250000X-0.475000X0.250000X0.475000X-0.250000X0.475000X0*%
%TD*%
%TA.AperFunction,SMDPad,CuDef*%
%ADD21RoundRect,0.140000X-0.140000X-0.170000X0.140000X-0.170000X0.140000X0.170000X-0.140000X0.170000X0*%
%TD*%
%TA.AperFunction,SMDPad,CuDef*%
%ADD22RoundRect,0.218750X-0.256250X0.218750X-0.256250X-0.218750X0.256250X-0.218750X0.256250X0.218750X0*%
%TD*%
%TA.AperFunction,SMDPad,CuDef*%
%ADD23RoundRect,0.135000X-0.135000X-0.185000X0.135000X-0.185000X0.135000X0.185000X-0.135000X0.185000X0*%
%TD*%
%TA.AperFunction,SMDPad,CuDef*%
%ADD24RoundRect,0.140000X0.140000X0.170000X-0.140000X0.170000X-0.140000X-0.170000X0.140000X-0.170000X0*%
%TD*%
%TA.AperFunction,SMDPad,CuDef*%
%ADD25RoundRect,0.075000X-0.662500X-0.075000X0.662500X-0.075000X0.662500X0.075000X-0.662500X0.075000X0*%
%TD*%
%TA.AperFunction,SMDPad,CuDef*%
%ADD26RoundRect,0.075000X-0.075000X-0.662500X0.075000X-0.662500X0.075000X0.662500X-0.075000X0.662500X0*%
%TD*%
%TA.AperFunction,SMDPad,CuDef*%
%ADD27RoundRect,0.135000X0.135000X0.185000X-0.135000X0.185000X-0.135000X-0.185000X0.135000X-0.185000X0*%
%TD*%
%TA.AperFunction,SMDPad,CuDef*%
%ADD28RoundRect,0.250000X-0.350000X0.450000X-0.350000X-0.450000X0.350000X-0.450000X0.350000X0.450000X0*%
%TD*%
%TA.AperFunction,SMDPad,CuDef*%
%ADD29RoundRect,0.140000X-0.170000X0.140000X-0.170000X-0.140000X0.170000X-0.140000X0.170000X0.140000X0*%
%TD*%
%TA.AperFunction,SMDPad,CuDef*%
%ADD30RoundRect,0.250000X0.475000X-0.250000X0.475000X0.250000X-0.475000X0.250000X-0.475000X-0.250000X0*%
%TD*%
%TA.AperFunction,SMDPad,CuDef*%
%ADD31R,1.300000X0.450000*%
%TD*%
%TA.AperFunction,HeatsinkPad*%
%ADD32O,1.800000X1.150000*%
%TD*%
%TA.AperFunction,HeatsinkPad*%
%ADD33O,2.000000X1.450000*%
%TD*%
%TA.AperFunction,ViaPad*%
%ADD34C,0.700000*%
%TD*%
%TA.AperFunction,Conductor*%
%ADD35C,0.300000*%
%TD*%
%TA.AperFunction,Conductor*%
%ADD36C,0.500000*%
%TD*%
%TA.AperFunction,Conductor*%
%ADD37C,0.200000*%
%TD*%
G04 APERTURE END LIST*
D10*
%TO.P,C3,1*%
%TO.N,+3V3*%
X127787500Y-96500000D03*
%TO.P,C3,2*%
%TO.N,GND*%
X129337500Y-96500000D03*
%TD*%
D11*
%TO.P,U2,1,GND*%
%TO.N,GND*%
X141700000Y-109500000D03*
%TO.P,U2,2,VO*%
%TO.N,+3V3*%
X139400000Y-109500000D03*
D12*
X139400000Y-115800000D03*
D11*
%TO.P,U2,3,VI*%
%TO.N,VBUS*%
X137100000Y-109500000D03*
%TD*%
D13*
%TO.P,R3,1*%
%TO.N,+3V3*%
X140700000Y-101690000D03*
%TO.P,R3,2*%
%TO.N,/USB_D+*%
X140700000Y-102710000D03*
%TD*%
D14*
%TO.P,C4,1*%
%TO.N,+3V3*%
X124762500Y-101280000D03*
%TO.P,C4,2*%
%TO.N,GND*%
X124762500Y-100320000D03*
%TD*%
D15*
%TO.P,J3,1,Pin_1*%
%TO.N,+3V3*%
X130610000Y-91400000D03*
D16*
%TO.P,J3,2,Pin_2*%
%TO.N,/USART1_TX*%
X128070000Y-91400000D03*
%TO.P,J3,3,Pin_3*%
%TO.N,/USART1_RX*%
X125530000Y-91400000D03*
%TO.P,J3,4,Pin_4*%
%TO.N,GND*%
X122990000Y-91400000D03*
%TD*%
D17*
%TO.P,SW1,*%
%TO.N,*%
X116210000Y-95900000D03*
X114000000Y-95900000D03*
X116210000Y-103200000D03*
X114000000Y-103200000D03*
D18*
%TO.P,SW1,1,A*%
%TO.N,GND*%
X116860000Y-97300000D03*
%TO.P,SW1,2,B*%
%TO.N,Net-(SW1-B)*%
X116860000Y-100300000D03*
%TO.P,SW1,3,C*%
%TO.N,+3V3*%
X116860000Y-101800000D03*
%TD*%
D19*
%TO.P,R2,1*%
%TO.N,Net-(SW1-B)*%
X120200000Y-100110000D03*
%TO.P,R2,2*%
%TO.N,Net-(U1-BOOT0)*%
X120200000Y-99090000D03*
%TD*%
D14*
%TO.P,C8,1*%
%TO.N,+3V3A*%
X124862500Y-105660000D03*
%TO.P,C8,2*%
%TO.N,GND*%
X124862500Y-104700000D03*
%TD*%
D20*
%TO.P,C1,1*%
%TO.N,VBUS*%
X138500000Y-107000000D03*
%TO.P,C1,2*%
%TO.N,GND*%
X140400000Y-107000000D03*
%TD*%
D21*
%TO.P,C11,1*%
%TO.N,/NRST*%
X128082500Y-110100000D03*
%TO.P,C11,2*%
%TO.N,GND*%
X129042500Y-110100000D03*
%TD*%
%TO.P,C7,1*%
%TO.N,+3V3*%
X127982500Y-98100000D03*
%TO.P,C7,2*%
%TO.N,GND*%
X128942500Y-98100000D03*
%TD*%
D22*
%TO.P,D1,1,K*%
%TO.N,/POWER_LED_K*%
X147100000Y-112025000D03*
%TO.P,D1,2,A*%
%TO.N,+3V3*%
X147100000Y-113600000D03*
%TD*%
D23*
%TO.P,R5,1*%
%TO.N,+3V3*%
X129790000Y-115100000D03*
%TO.P,R5,2*%
%TO.N,/I2C2_SDA*%
X130810000Y-115100000D03*
%TD*%
D24*
%TO.P,C9,1*%
%TO.N,+3V3A*%
X124562500Y-108600000D03*
%TO.P,C9,2*%
%TO.N,GND*%
X123602500Y-108600000D03*
%TD*%
D25*
%TO.P,U1,1,VBAT*%
%TO.N,+3V3*%
X126637500Y-101350000D03*
%TO.P,U1,2,PC13*%
%TO.N,unconnected-(U1-PC13-Pad2)*%
X126637500Y-101850000D03*
%TO.P,U1,3,PC14*%
%TO.N,unconnected-(U1-PC14-Pad3)*%
X126637500Y-102350000D03*
%TO.P,U1,4,PC15*%
%TO.N,unconnected-(U1-PC15-Pad4)*%
X126637500Y-102850000D03*
%TO.P,U1,5,PD0*%
%TO.N,/HSE_IN*%
X126637500Y-103350000D03*
%TO.P,U1,6,PD1*%
%TO.N,/HS_OUT*%
X126637500Y-103850000D03*
%TO.P,U1,7,NRST*%
%TO.N,/NRST*%
X126637500Y-104350000D03*
%TO.P,U1,8,VSSA*%
%TO.N,GND*%
X126637500Y-104850000D03*
%TO.P,U1,9,VDDA*%
%TO.N,+3V3A*%
X126637500Y-105350000D03*
%TO.P,U1,10,PA0*%
%TO.N,unconnected-(U1-PA0-Pad10)*%
X126637500Y-105850000D03*
%TO.P,U1,11,PA1*%
%TO.N,unconnected-(U1-PA1-Pad11)*%
X126637500Y-106350000D03*
%TO.P,U1,12,PA2*%
%TO.N,unconnected-(U1-PA2-Pad12)*%
X126637500Y-106850000D03*
D26*
%TO.P,U1,13,PA3*%
%TO.N,unconnected-(U1-PA3-Pad13)*%
X128050000Y-108262500D03*
%TO.P,U1,14,PA4*%
%TO.N,unconnected-(U1-PA4-Pad14)*%
X128550000Y-108262500D03*
%TO.P,U1,15,PA5*%
%TO.N,unconnected-(U1-PA5-Pad15)*%
X129050000Y-108262500D03*
%TO.P,U1,16,PA6*%
%TO.N,unconnected-(U1-PA6-Pad16)*%
X129550000Y-108262500D03*
%TO.P,U1,17,PA7*%
%TO.N,unconnected-(U1-PA7-Pad17)*%
X130050000Y-108262500D03*
%TO.P,U1,18,PB0*%
%TO.N,unconnected-(U1-PB0-Pad18)*%
X130550000Y-108262500D03*
%TO.P,U1,19,PB1*%
%TO.N,unconnected-(U1-PB1-Pad19)*%
X131050000Y-108262500D03*
%TO.P,U1,20,PB2*%
%TO.N,unconnected-(U1-PB2-Pad20)*%
X131550000Y-108262500D03*
%TO.P,U1,21,PB10*%
%TO.N,/I2C2_SCL*%
X132050000Y-108262500D03*
%TO.P,U1,22,PB11*%
%TO.N,/I2C2_SDA*%
X132550000Y-108262500D03*
%TO.P,U1,23,VSS*%
%TO.N,GND*%
X133050000Y-108262500D03*
%TO.P,U1,24,VDD*%
%TO.N,+3V3*%
X133550000Y-108262500D03*
D25*
%TO.P,U1,25,PB12*%
%TO.N,unconnected-(U1-PB12-Pad25)*%
X134962500Y-106850000D03*
%TO.P,U1,26,PB13*%
%TO.N,unconnected-(U1-PB13-Pad26)*%
X134962500Y-106350000D03*
%TO.P,U1,27,PB14*%
%TO.N,unconnected-(U1-PB14-Pad27)*%
X134962500Y-105850000D03*
%TO.P,U1,28,PB15*%
%TO.N,unconnected-(U1-PB15-Pad28)*%
X134962500Y-105350000D03*
%TO.P,U1,29,PA8*%
%TO.N,unconnected-(U1-PA8-Pad29)*%
X134962500Y-104850000D03*
%TO.P,U1,30,PA9*%
%TO.N,unconnected-(U1-PA9-Pad30)*%
X134962500Y-104350000D03*
%TO.P,U1,31,PA10*%
%TO.N,unconnected-(U1-PA10-Pad31)*%
X134962500Y-103850000D03*
%TO.P,U1,32,PA11*%
%TO.N,/USB_D-*%
X134962500Y-103350000D03*
%TO.P,U1,33,PA12*%
%TO.N,/USB_D+*%
X134962500Y-102850000D03*
%TO.P,U1,34,PA13*%
%TO.N,/SWDIO*%
X134962500Y-102350000D03*
%TO.P,U1,35,VSS*%
%TO.N,GND*%
X134962500Y-101850000D03*
%TO.P,U1,36,VDD*%
%TO.N,+3V3*%
X134962500Y-101350000D03*
D26*
%TO.P,U1,37,PA14*%
%TO.N,/SWCLK*%
X133550000Y-99937500D03*
%TO.P,U1,38,PA15*%
%TO.N,unconnected-(U1-PA15-Pad38)*%
X133050000Y-99937500D03*
%TO.P,U1,39,PB3*%
%TO.N,unconnected-(U1-PB3-Pad39)*%
X132550000Y-99937500D03*
%TO.P,U1,40,PB4*%
%TO.N,unconnected-(U1-PB4-Pad40)*%
X132050000Y-99937500D03*
%TO.P,U1,41,PB5*%
%TO.N,unconnected-(U1-PB5-Pad41)*%
X131550000Y-99937500D03*
%TO.P,U1,42,PB6*%
%TO.N,/USART1_TX*%
X131050000Y-99937500D03*
%TO.P,U1,43,PB7*%
%TO.N,/USART1_RX*%
X130550000Y-99937500D03*
%TO.P,U1,44,BOOT0*%
%TO.N,Net-(U1-BOOT0)*%
X130050000Y-99937500D03*
%TO.P,U1,45,PB8*%
%TO.N,unconnected-(U1-PB8-Pad45)*%
X129550000Y-99937500D03*
%TO.P,U1,46,PB9*%
%TO.N,unconnected-(U1-PB9-Pad46)*%
X129050000Y-99937500D03*
%TO.P,U1,47,VSS*%
%TO.N,GND*%
X128550000Y-99937500D03*
%TO.P,U1,48,VDD*%
%TO.N,+3V3*%
X128050000Y-99937500D03*
%TD*%
D27*
%TO.P,R4,1*%
%TO.N,+3V3*%
X128210000Y-115100000D03*
%TO.P,R4,2*%
%TO.N,/I2C2_SCL*%
X127190000Y-115100000D03*
%TD*%
D14*
%TO.P,C12,1*%
%TO.N,/HSE_IN*%
X123100000Y-102680000D03*
%TO.P,C12,2*%
%TO.N,GND*%
X123100000Y-101720000D03*
%TD*%
D28*
%TO.P,Y1,1,1*%
%TO.N,/HSE_IN*%
X119600000Y-102300000D03*
%TO.P,Y1,2,G*%
%TO.N,GND*%
X119600000Y-104500000D03*
%TO.P,Y1,3,3*%
%TO.N,/HS_OUT*%
X121300000Y-104500000D03*
%TO.P,Y1,4,G*%
%TO.N,GND*%
X121300000Y-102300000D03*
%TD*%
D29*
%TO.P,C6,1*%
%TO.N,+3V3*%
X136800000Y-101100000D03*
%TO.P,C6,2*%
%TO.N,GND*%
X136800000Y-102060000D03*
%TD*%
D15*
%TO.P,J4,1,Pin_1*%
%TO.N,+3V3*%
X125180000Y-117800000D03*
D16*
%TO.P,J4,2,Pin_2*%
%TO.N,/I2C2_SCL*%
X127720000Y-117800000D03*
%TO.P,J4,3,Pin_3*%
%TO.N,/I2C2_SDA*%
X130260000Y-117800000D03*
%TO.P,J4,4,Pin_4*%
%TO.N,GND*%
X132800000Y-117800000D03*
%TD*%
D22*
%TO.P,FB1,1*%
%TO.N,+3V3A*%
X126062500Y-108812500D03*
%TO.P,FB1,2*%
%TO.N,+3V3*%
X126062500Y-110387500D03*
%TD*%
D24*
%TO.P,C10,1*%
%TO.N,+3V3*%
X124562500Y-110200000D03*
%TO.P,C10,2*%
%TO.N,GND*%
X123602500Y-110200000D03*
%TD*%
D14*
%TO.P,C13,1*%
%TO.N,/HS_OUT*%
X123100000Y-105300000D03*
%TO.P,C13,2*%
%TO.N,GND*%
X123100000Y-104340000D03*
%TD*%
D30*
%TO.P,C2,1*%
%TO.N,+3V3*%
X144400000Y-113700000D03*
%TO.P,C2,2*%
%TO.N,GND*%
X144400000Y-111800000D03*
%TD*%
D27*
%TO.P,R1,1*%
%TO.N,/POWER_LED_K*%
X148200000Y-110300000D03*
%TO.P,R1,2*%
%TO.N,GND*%
X147180000Y-110300000D03*
%TD*%
D24*
%TO.P,C5,1*%
%TO.N,+3V3*%
X134160000Y-110100000D03*
%TO.P,C5,2*%
%TO.N,GND*%
X133200000Y-110100000D03*
%TD*%
D31*
%TO.P,USB,1,VBUS*%
%TO.N,VBUS*%
X148450000Y-105705000D03*
%TO.P,USB,2,D-*%
%TO.N,/USB_D-*%
X148450000Y-105055000D03*
%TO.P,USB,3,D+*%
%TO.N,/USB_D+*%
X148450000Y-104405000D03*
%TO.P,USB,4,ID*%
%TO.N,unconnected-(J1-ID-Pad4)*%
X148450000Y-103755000D03*
%TO.P,USB,5,GND*%
%TO.N,GND*%
X148450000Y-103105000D03*
D32*
%TO.P,USB,6,Shield*%
%TO.N,unconnected-(J1-Shield-Pad6)*%
X152300000Y-108280000D03*
D33*
%TO.N,unconnected-(J1-Shield-Pad6)_1*%
X148500000Y-108130000D03*
%TO.N,unconnected-(J1-Shield-Pad6)_3*%
X148500000Y-100680000D03*
D32*
%TO.N,unconnected-(J1-Shield-Pad6)_2*%
X152300000Y-100530000D03*
%TD*%
D15*
%TO.P,J2,1,Pin_1*%
%TO.N,+3V3*%
X143640000Y-91400000D03*
D16*
%TO.P,J2,2,Pin_2*%
%TO.N,/SWDIO*%
X141100000Y-91400000D03*
%TO.P,J2,3,Pin_3*%
%TO.N,/SWCLK*%
X138560000Y-91400000D03*
%TO.P,J2,4,Pin_4*%
%TO.N,GND*%
X136020000Y-91400000D03*
%TD*%
D34*
%TO.N,GND*%
X123100000Y-103800000D03*
X141600000Y-107500000D03*
X125500000Y-100400000D03*
X147400000Y-102800000D03*
X141300000Y-111200000D03*
X123300000Y-111100000D03*
X123900000Y-102030000D03*
X141600000Y-106500000D03*
X122200000Y-102500000D03*
X128700000Y-101200000D03*
X146200000Y-110300000D03*
X127900000Y-105100000D03*
X145600000Y-111800000D03*
X118000000Y-97300000D03*
X132700000Y-106800000D03*
X142100000Y-111200000D03*
X119800000Y-105800000D03*
X130000000Y-110200000D03*
X123400000Y-107700000D03*
X137800000Y-102000000D03*
%TO.N,+3V3*%
X129930000Y-113430000D03*
X126062500Y-115837500D03*
X131900000Y-113200000D03*
X128100000Y-115800000D03*
%TD*%
D35*
%TO.N,/HS_OUT*%
X121300000Y-104500000D02*
X122100000Y-105300000D01*
X122100000Y-105300000D02*
X123100000Y-105300000D01*
X123100000Y-105300000D02*
X123409999Y-105300000D01*
X123409999Y-105300000D02*
X124200000Y-104509999D01*
X124200000Y-104509999D02*
X124200000Y-104028260D01*
X124200000Y-104028260D02*
X124378260Y-103850000D01*
%TO.N,GND*%
X123100000Y-104120000D02*
X123100000Y-103800000D01*
%TO.N,/HSE_IN*%
X126637500Y-103350000D02*
X123770000Y-103350000D01*
X123770000Y-103350000D02*
X123100000Y-102680000D01*
D36*
%TO.N,+3V3*%
X128100000Y-115800000D02*
X128210000Y-115690000D01*
X128210000Y-115690000D02*
X128210000Y-115100000D01*
X135100000Y-113200000D02*
X131900000Y-113200000D01*
X129930000Y-113430000D02*
X129790000Y-113570000D01*
X129790000Y-113570000D02*
X129790000Y-115100000D01*
D35*
%TO.N,/NRST*%
X126637500Y-104350000D02*
X128550000Y-104350000D01*
X128550000Y-104350000D02*
X128800000Y-104600000D01*
X128800000Y-104600000D02*
X128800000Y-106100000D01*
X128800000Y-106100000D02*
X127100000Y-107800000D01*
X127100000Y-109117500D02*
X128082500Y-110100000D01*
X127100000Y-107800000D02*
X127100000Y-109117500D01*
D36*
%TO.N,GND*%
X122000000Y-102300000D02*
X121300000Y-102300000D01*
X122200000Y-102500000D02*
X122000000Y-102300000D01*
X123400000Y-107700000D02*
X123400000Y-107800000D01*
X123400000Y-107800000D02*
X123602500Y-108002500D01*
X123602500Y-108002500D02*
X123602500Y-108600000D01*
X123300000Y-111100000D02*
X123602500Y-110797500D01*
X123602500Y-110797500D02*
X123602500Y-110200000D01*
X129042500Y-110100000D02*
X129900000Y-110100000D01*
X129900000Y-110100000D02*
X130000000Y-110200000D01*
D35*
X132700000Y-106800000D02*
X133050000Y-107150000D01*
X133050000Y-107150000D02*
X133050000Y-108262500D01*
X137800000Y-102000000D02*
X137520000Y-102000000D01*
X137520000Y-102000000D02*
X137460000Y-102060000D01*
X137460000Y-102060000D02*
X136800000Y-102060000D01*
X147400000Y-102800000D02*
X147400000Y-102900000D01*
X147400000Y-102900000D02*
X147605000Y-103105000D01*
X147605000Y-103105000D02*
X148450000Y-103105000D01*
X147180000Y-110300000D02*
X146200000Y-110300000D01*
D36*
X125420000Y-100320000D02*
X125500000Y-100400000D01*
X129337500Y-97705000D02*
X128942500Y-98100000D01*
D35*
X124862500Y-104700000D02*
X125451000Y-104700000D01*
X133050000Y-108262500D02*
X133050000Y-109950000D01*
X135950000Y-101850000D02*
X134962500Y-101850000D01*
D36*
X119600000Y-104500000D02*
X119600000Y-105600000D01*
X116800000Y-97300000D02*
X118000000Y-97300000D01*
D35*
X127650000Y-104850000D02*
X127900000Y-105100000D01*
X136800000Y-102060000D02*
X136160000Y-102060000D01*
X125601000Y-104850000D02*
X126637500Y-104850000D01*
X133050000Y-109950000D02*
X133200000Y-110100000D01*
D36*
X129337500Y-96500000D02*
X129337500Y-97705000D01*
D35*
X126637500Y-104850000D02*
X127650000Y-104850000D01*
X128550000Y-101050000D02*
X128700000Y-101200000D01*
D36*
X119600000Y-105600000D02*
X119800000Y-105800000D01*
D35*
X136160000Y-102060000D02*
X135950000Y-101850000D01*
X128942500Y-98208500D02*
X128550000Y-98601000D01*
D36*
X123100000Y-101720000D02*
X123541000Y-101720000D01*
X123900000Y-102079000D02*
X123900000Y-102030000D01*
D35*
X125451000Y-104700000D02*
X125601000Y-104850000D01*
D36*
X123541000Y-101720000D02*
X123900000Y-102079000D01*
D35*
X128942500Y-98100000D02*
X128942500Y-98208500D01*
D36*
X124762500Y-100320000D02*
X125420000Y-100320000D01*
D35*
X128550000Y-98601000D02*
X128550000Y-99937500D01*
X128550000Y-99937500D02*
X128550000Y-101050000D01*
D36*
%TO.N,+3V3*%
X125180000Y-116080000D02*
X125180000Y-117800000D01*
X125100000Y-116000000D02*
X120900000Y-116000000D01*
X147320000Y-95080000D02*
X143640000Y-91400000D01*
D35*
X124832500Y-101350000D02*
X124762500Y-101280000D01*
D36*
X120900000Y-116000000D02*
X118500000Y-113600000D01*
D35*
X136800000Y-101100000D02*
X140110000Y-101100000D01*
D36*
X125100000Y-116000000D02*
X125180000Y-116080000D01*
X125900000Y-116000000D02*
X126062500Y-115837500D01*
X118500000Y-101601708D02*
X119270708Y-100831000D01*
X135100000Y-117200000D02*
X135100000Y-113200000D01*
D35*
X133550000Y-109150000D02*
X134160000Y-109760000D01*
D36*
X145900000Y-115200000D02*
X148500000Y-115200000D01*
X145900000Y-113700000D02*
X145900000Y-115200000D01*
X147320000Y-95800472D02*
X141430472Y-101690000D01*
X150451000Y-98211000D02*
X147720000Y-95480000D01*
X118500000Y-101900000D02*
X118500000Y-101601708D01*
X127787500Y-97905000D02*
X127982500Y-98100000D01*
X126018750Y-97818750D02*
X127337500Y-96500000D01*
X144400000Y-113700000D02*
X145900000Y-113700000D01*
X118500000Y-101900000D02*
X116900000Y-101900000D01*
D35*
X140110000Y-101100000D02*
X140700000Y-101690000D01*
D36*
X145900000Y-117400000D02*
X144400000Y-118900000D01*
X144400000Y-118900000D02*
X136800000Y-118900000D01*
D35*
X128050000Y-98167500D02*
X127982500Y-98100000D01*
D36*
X126637500Y-98437500D02*
X126637500Y-101249000D01*
X131910000Y-90100000D02*
X142340000Y-90100000D01*
D35*
X126637500Y-101350000D02*
X124832500Y-101350000D01*
D36*
X134300000Y-110100000D02*
X134160000Y-110100000D01*
X118500000Y-113600000D02*
X118500000Y-101900000D01*
D35*
X128050000Y-99937500D02*
X128050000Y-98167500D01*
D36*
X136800000Y-118900000D02*
X135100000Y-117200000D01*
X126062500Y-115837500D02*
X126062500Y-110387500D01*
X128210000Y-115100000D02*
X129790000Y-115100000D01*
X126018750Y-97818750D02*
X126637500Y-98437500D01*
X125900000Y-116000000D02*
X125100000Y-116000000D01*
X142340000Y-90100000D02*
X143640000Y-91400000D01*
X126062500Y-110387500D02*
X124750000Y-110387500D01*
X135100000Y-110900000D02*
X134300000Y-110100000D01*
X116900000Y-101900000D02*
X116800000Y-101800000D01*
D35*
X136300000Y-101100000D02*
X136050000Y-101350000D01*
D36*
X147320000Y-95080000D02*
X147320000Y-95800472D01*
X124750000Y-110387500D02*
X124562500Y-110200000D01*
X130610000Y-91400000D02*
X131910000Y-90100000D01*
X127337500Y-96500000D02*
X127787500Y-96500000D01*
X135100000Y-113200000D02*
X135100000Y-110900000D01*
X147720000Y-95480000D02*
X147320000Y-95080000D01*
X145900000Y-113700000D02*
X147000000Y-113700000D01*
X150451000Y-113249000D02*
X150451000Y-98211000D01*
D35*
X133550000Y-108262500D02*
X133550000Y-109150000D01*
D36*
X123006500Y-100831000D02*
X126018750Y-97818750D01*
X147000000Y-113700000D02*
X147100000Y-113600000D01*
D35*
X136050000Y-101350000D02*
X134962500Y-101350000D01*
D36*
X141430472Y-101690000D02*
X140700000Y-101690000D01*
X127787500Y-96500000D02*
X127787500Y-97905000D01*
X148500000Y-115200000D02*
X150451000Y-113249000D01*
D35*
X134160000Y-109760000D02*
X134160000Y-110100000D01*
X136800000Y-101100000D02*
X136300000Y-101100000D01*
D36*
X145900000Y-115200000D02*
X145900000Y-117400000D01*
X119270708Y-100831000D02*
X123006500Y-100831000D01*
%TO.N,+3V3A*%
X124562500Y-108600000D02*
X125850000Y-108600000D01*
X125850000Y-108600000D02*
X126062500Y-108812500D01*
D35*
X124862500Y-105660000D02*
X125340000Y-105660000D01*
X124862500Y-105660000D02*
X124862500Y-105937500D01*
X124862500Y-105937500D02*
X124562500Y-106237500D01*
X125650000Y-105350000D02*
X126637500Y-105350000D01*
X124562500Y-106237500D02*
X124562500Y-108600000D01*
X125340000Y-105660000D02*
X125650000Y-105350000D01*
%TO.N,/HSE_IN*%
X122380000Y-103400000D02*
X120700000Y-103400000D01*
X123100000Y-102680000D02*
X122380000Y-103400000D01*
X120700000Y-103400000D02*
X119600000Y-102300000D01*
%TO.N,/HS_OUT*%
X126637500Y-103850000D02*
X124378260Y-103850000D01*
D36*
%TO.N,/POWER_LED_K*%
X148200000Y-110925000D02*
X148200000Y-110300000D01*
X147100000Y-112025000D02*
X148200000Y-110925000D01*
D37*
%TO.N,/USB_D+*%
X136068751Y-102850000D02*
X136093751Y-102875000D01*
X134962500Y-102850000D02*
X136068751Y-102850000D01*
X136093751Y-102875000D02*
X146093000Y-102875000D01*
X147623000Y-104405000D02*
X148450000Y-104405000D01*
X146093000Y-102875000D02*
X147623000Y-104405000D01*
%TO.N,/USB_D-*%
X134962500Y-103350000D02*
X136068751Y-103350000D01*
X136093751Y-103325000D02*
X145906632Y-103325000D01*
X136068751Y-103350000D02*
X136093751Y-103325000D01*
X147512632Y-104931000D02*
X148326000Y-104931000D01*
X148326000Y-104931000D02*
X148450000Y-105055000D01*
X145906632Y-103325000D02*
X147512632Y-104931000D01*
D35*
%TO.N,/SWDIO*%
X133800000Y-101170466D02*
X141100000Y-93870466D01*
X133800000Y-102100000D02*
X133800000Y-101170466D01*
X134962500Y-102350000D02*
X134050000Y-102350000D01*
X141100000Y-93870466D02*
X141100000Y-91400000D01*
X134050000Y-102350000D02*
X133800000Y-102100000D01*
%TO.N,/SWCLK*%
X133550000Y-98450000D02*
X138560000Y-93440000D01*
X138560000Y-93440000D02*
X138560000Y-91400000D01*
X133550000Y-99937500D02*
X133550000Y-98450000D01*
%TO.N,/USART1_RX*%
X130550000Y-98350000D02*
X131300000Y-97600000D01*
X130400000Y-93800000D02*
X126300000Y-93800000D01*
X125530000Y-93030000D02*
X125530000Y-91400000D01*
X126300000Y-93800000D02*
X125530000Y-93030000D01*
X130550000Y-99937500D02*
X130550000Y-98350000D01*
X131300000Y-97600000D02*
X131300000Y-94700000D01*
X131300000Y-94700000D02*
X130400000Y-93800000D01*
%TO.N,/USART1_TX*%
X131050000Y-98950000D02*
X132200000Y-97800000D01*
X132200000Y-97800000D02*
X132200000Y-94300000D01*
X131100000Y-93200000D02*
X129000000Y-93200000D01*
X131050000Y-99937500D02*
X131050000Y-98950000D01*
X132200000Y-94300000D02*
X131100000Y-93200000D01*
X128070000Y-92270000D02*
X128070000Y-91400000D01*
X129000000Y-93200000D02*
X128070000Y-92270000D01*
%TO.N,/I2C2_SDA*%
X130810000Y-112790000D02*
X130810000Y-115100000D01*
X130810000Y-117250000D02*
X130260000Y-117800000D01*
X132550000Y-111050000D02*
X130810000Y-112790000D01*
X130810000Y-115100000D02*
X130810000Y-117250000D01*
X132550000Y-108262500D02*
X132550000Y-111050000D01*
%TO.N,/I2C2_SCL*%
X127190000Y-115100000D02*
X127190000Y-117270000D01*
X127190000Y-114310000D02*
X127190000Y-115100000D01*
X132050000Y-108262500D02*
X132050000Y-109450000D01*
X127190000Y-117270000D02*
X127720000Y-117800000D01*
X132050000Y-109450000D02*
X127190000Y-114310000D01*
%TO.N,Net-(SW1-B)*%
X120200000Y-100110000D02*
X116990000Y-100110000D01*
X116990000Y-100110000D02*
X116800000Y-100300000D01*
%TO.N,Net-(U1-BOOT0)*%
X120200000Y-95900000D02*
X120200000Y-99090000D01*
X121500000Y-94600000D02*
X120200000Y-95900000D01*
X130050000Y-99937500D02*
X130050000Y-97950000D01*
X130500000Y-97500000D02*
X130500000Y-95100000D01*
X130000000Y-94600000D02*
X121500000Y-94600000D01*
X130050000Y-97950000D02*
X130500000Y-97500000D01*
X130500000Y-95100000D02*
X130000000Y-94600000D01*
%TD*%
%TA.AperFunction,Conductor*%
%TO.N,GND*%
G36*
X141926734Y-106025185D02*
G01*
X141941339Y-106036172D01*
X142657656Y-106662949D01*
X142695145Y-106721907D01*
X142700000Y-106756267D01*
X142700000Y-110000000D01*
X143600000Y-110900000D01*
X145658667Y-110900000D01*
X145725706Y-110919685D01*
X145733067Y-110924800D01*
X146050400Y-111162800D01*
X146092221Y-111218771D01*
X146100000Y-111262000D01*
X146100000Y-112148638D01*
X146080315Y-112215677D01*
X146063681Y-112236319D01*
X145736319Y-112563681D01*
X145674996Y-112597166D01*
X145648638Y-112600000D01*
X141317166Y-112600000D01*
X141250127Y-112580315D01*
X141242766Y-112575200D01*
X141227407Y-112563681D01*
X140855100Y-112284450D01*
X140813279Y-112228479D01*
X140805500Y-112185250D01*
X140805500Y-108659589D01*
X140803355Y-108633247D01*
X140801479Y-108610191D01*
X140794993Y-108570613D01*
X140794010Y-108565806D01*
X140790197Y-108547152D01*
X140790196Y-108547149D01*
X140790195Y-108547144D01*
X140743835Y-108444892D01*
X140743833Y-108444889D01*
X140703786Y-108387647D01*
X140703785Y-108387646D01*
X140703783Y-108387643D01*
X140644306Y-108324215D01*
X140224809Y-107988617D01*
X140224808Y-107988616D01*
X140224799Y-107988609D01*
X140212201Y-107979054D01*
X140201776Y-107971565D01*
X140194860Y-107968188D01*
X140109614Y-107926561D01*
X140067569Y-107914215D01*
X140042579Y-107906877D01*
X140042577Y-107906876D01*
X140042575Y-107906876D01*
X139956503Y-107894500D01*
X139956500Y-107894500D01*
X139924000Y-107894500D01*
X139856961Y-107874815D01*
X139811206Y-107822011D01*
X139800000Y-107770500D01*
X139800000Y-106322416D01*
X139819685Y-106255377D01*
X139844614Y-106227158D01*
X140040513Y-106063909D01*
X140076118Y-106034240D01*
X140140221Y-106006445D01*
X140155501Y-106005500D01*
X141859695Y-106005500D01*
X141926734Y-106025185D01*
G37*
%TD.AperFunction*%
%TD*%
%TA.AperFunction,Conductor*%
%TO.N,+3V3*%
G36*
X140023542Y-108219685D02*
G01*
X140033965Y-108227172D01*
X140453462Y-108562770D01*
X140493514Y-108620019D01*
X140500000Y-108659597D01*
X140500000Y-112400000D01*
X140499999Y-112400000D01*
X140900000Y-112700000D01*
X141300000Y-113000000D01*
X145148638Y-113000000D01*
X145178078Y-113008644D01*
X145208065Y-113015168D01*
X145213080Y-113018922D01*
X145215677Y-113019685D01*
X145236319Y-113036319D01*
X145363681Y-113163681D01*
X145397166Y-113225004D01*
X145400000Y-113251362D01*
X145400000Y-114162456D01*
X145380315Y-114229495D01*
X145379174Y-114231239D01*
X145236811Y-114444783D01*
X145183246Y-114489644D01*
X145133637Y-114500000D01*
X142899999Y-114500000D01*
X142700000Y-114699999D01*
X142700000Y-116976000D01*
X142680315Y-117043039D01*
X142627511Y-117088794D01*
X142576000Y-117100000D01*
X137841333Y-117100000D01*
X137774294Y-117080315D01*
X137766933Y-117075200D01*
X137634666Y-116976000D01*
X137049600Y-116537200D01*
X137007779Y-116481229D01*
X137000000Y-116438000D01*
X137000000Y-112051361D01*
X137019685Y-111984322D01*
X137036314Y-111963685D01*
X138038094Y-110961905D01*
X138066342Y-110940760D01*
X138082730Y-110931812D01*
X138152340Y-110879702D01*
X138379702Y-110652340D01*
X138401558Y-110628008D01*
X138418192Y-110607366D01*
X138422553Y-110601825D01*
X138473439Y-110501749D01*
X138493124Y-110434710D01*
X138505500Y-110348638D01*
X138505500Y-108545862D01*
X138514143Y-108516425D01*
X138520667Y-108486436D01*
X138524422Y-108481419D01*
X138525185Y-108478823D01*
X138541818Y-108458182D01*
X138596265Y-108403734D01*
X138644726Y-108373783D01*
X139146986Y-108206362D01*
X139186198Y-108200000D01*
X139956503Y-108200000D01*
X140023542Y-108219685D01*
G37*
%TD.AperFunction*%
%TD*%
%TA.AperFunction,Conductor*%
%TO.N,VBUS*%
G36*
X147513327Y-105419685D02*
G01*
X147539353Y-105444955D01*
X147539669Y-105444640D01*
X147547794Y-105452765D01*
X147627235Y-105532206D01*
X147730009Y-105577585D01*
X147755135Y-105580500D01*
X149144864Y-105580499D01*
X149144879Y-105580497D01*
X149144882Y-105580497D01*
X149169986Y-105577586D01*
X149169987Y-105577585D01*
X149169991Y-105577585D01*
X149225916Y-105552891D01*
X149295192Y-105543821D01*
X149358377Y-105573645D01*
X149395408Y-105632894D01*
X149400000Y-105666327D01*
X149400000Y-105933637D01*
X149380315Y-106000676D01*
X149344783Y-106036811D01*
X149131239Y-106179174D01*
X149064540Y-106199982D01*
X149062456Y-106200000D01*
X147739738Y-106200000D01*
X147672699Y-106180315D01*
X147667664Y-106176903D01*
X147000000Y-105700000D01*
X140000000Y-105700000D01*
X139400000Y-106199999D01*
X139400000Y-107710625D01*
X139380315Y-107777664D01*
X139327511Y-107823419D01*
X139315212Y-107828262D01*
X138200000Y-108200000D01*
X138200000Y-110348638D01*
X138180315Y-110415677D01*
X138163681Y-110436319D01*
X137936319Y-110663681D01*
X137874996Y-110697166D01*
X137848638Y-110700000D01*
X136451362Y-110700000D01*
X136384323Y-110680315D01*
X136363681Y-110663681D01*
X136136319Y-110436319D01*
X136102834Y-110374996D01*
X136100000Y-110348638D01*
X136100000Y-108551362D01*
X136119685Y-108484323D01*
X136136319Y-108463681D01*
X136363681Y-108236319D01*
X136425004Y-108202834D01*
X136451362Y-108200000D01*
X137400000Y-108200000D01*
X137700000Y-108000000D01*
X137700000Y-106443497D01*
X137719685Y-106376458D01*
X137727172Y-106366035D01*
X138462770Y-105446538D01*
X138520021Y-105406486D01*
X138559598Y-105400000D01*
X147446288Y-105400000D01*
X147513327Y-105419685D01*
G37*
%TD.AperFunction*%
%TD*%
M02*
